<svg width="126" height="122" viewBox="0 0 126 122" fill="none" xmlns="http://www.w3.org/2000/svg">
<path d="M13.9658 85.0264V95H11.9971V87.2959L9.63184 88.0479V86.4961L13.7539 85.0264H13.9658ZM22.6953 84.5V95H20.7266V84.5H22.6953ZM22.415 91.042H21.875C21.8796 90.527 21.9479 90.0531 22.0801 89.6201C22.2122 89.1826 22.4014 88.8044 22.6475 88.4854C22.8936 88.1618 23.1875 87.9111 23.5293 87.7334C23.8757 87.5557 24.2585 87.4668 24.6777 87.4668C25.0423 87.4668 25.3727 87.5192 25.6689 87.624C25.9697 87.7243 26.2272 87.8883 26.4414 88.1162C26.6602 88.3395 26.8288 88.6335 26.9473 88.998C27.0658 89.3626 27.125 89.8047 27.125 90.3242V95H25.1426V90.3105C25.1426 89.9824 25.0947 89.7249 24.999 89.5381C24.9079 89.3467 24.7734 89.2122 24.5957 89.1348C24.4225 89.0527 24.2083 89.0117 23.9531 89.0117C23.6706 89.0117 23.429 89.0641 23.2285 89.1689C23.0326 89.2738 22.8753 89.4196 22.7568 89.6064C22.6383 89.7887 22.5518 90.0029 22.4971 90.249C22.4424 90.4951 22.415 90.7594 22.415 91.042ZM32.6143 93.332V90.0371C32.6143 89.8001 32.5755 89.5973 32.498 89.4287C32.4206 89.2555 32.2998 89.1211 32.1357 89.0254C31.9762 88.9297 31.7689 88.8818 31.5137 88.8818C31.2949 88.8818 31.1058 88.9206 30.9463 88.998C30.7868 89.071 30.6637 89.1781 30.5771 89.3193C30.4906 89.4561 30.4473 89.6178 30.4473 89.8047H28.4785C28.4785 89.4902 28.5514 89.1917 28.6973 88.9092C28.8431 88.6266 29.055 88.3783 29.333 88.1641C29.611 87.9453 29.9414 87.7744 30.3242 87.6514C30.7116 87.5283 31.1445 87.4668 31.623 87.4668C32.1973 87.4668 32.7077 87.5625 33.1543 87.7539C33.6009 87.9453 33.9518 88.2324 34.207 88.6152C34.4668 88.998 34.5967 89.4766 34.5967 90.0508V93.2158C34.5967 93.6214 34.6217 93.9541 34.6719 94.2139C34.722 94.4691 34.7949 94.6924 34.8906 94.8838V95H32.9014C32.8057 94.7995 32.7327 94.5488 32.6826 94.248C32.637 93.9427 32.6143 93.6374 32.6143 93.332ZM32.874 90.4951L32.8877 91.6094H31.7871C31.5273 91.6094 31.3018 91.639 31.1104 91.6982C30.9189 91.7575 30.7617 91.8418 30.6387 91.9512C30.5156 92.056 30.4245 92.179 30.3652 92.3203C30.3105 92.4616 30.2832 92.6165 30.2832 92.7852C30.2832 92.9538 30.3219 93.1064 30.3994 93.2432C30.4769 93.3753 30.5885 93.4801 30.7344 93.5576C30.8802 93.6305 31.0511 93.667 31.2471 93.667C31.5433 93.667 31.8008 93.6077 32.0195 93.4893C32.2383 93.3708 32.4069 93.2249 32.5254 93.0518C32.6484 92.8786 32.7122 92.7145 32.7168 92.5596L33.2363 93.3936C33.1634 93.5804 33.0632 93.7741 32.9355 93.9746C32.8125 94.1751 32.6553 94.3643 32.4639 94.542C32.2725 94.7152 32.0423 94.8587 31.7734 94.9727C31.5046 95.082 31.1855 95.1367 30.8164 95.1367C30.347 95.1367 29.9209 95.0433 29.5381 94.8564C29.1598 94.665 28.859 94.403 28.6357 94.0703C28.417 93.7331 28.3076 93.3503 28.3076 92.9219C28.3076 92.5345 28.3805 92.1904 28.5264 91.8896C28.6722 91.5889 28.8864 91.3359 29.1689 91.1309C29.4561 90.9212 29.8138 90.764 30.2422 90.6592C30.6706 90.5498 31.1673 90.4951 31.7324 90.4951H32.874ZM43.5996 92.9561C43.5996 92.8148 43.5586 92.6872 43.4766 92.5732C43.3945 92.4593 43.2419 92.3545 43.0186 92.2588C42.7998 92.1585 42.4831 92.0674 42.0684 91.9854C41.6947 91.9033 41.346 91.8008 41.0225 91.6777C40.7035 91.5501 40.4255 91.3975 40.1885 91.2197C39.9561 91.042 39.7738 90.8324 39.6416 90.5908C39.5094 90.3447 39.4434 90.0645 39.4434 89.75C39.4434 89.4401 39.5094 89.1484 39.6416 88.875C39.7783 88.6016 39.972 88.36 40.2227 88.1504C40.4779 87.9362 40.7878 87.7699 41.1523 87.6514C41.5215 87.5283 41.9362 87.4668 42.3965 87.4668C43.0391 87.4668 43.5905 87.5693 44.0508 87.7744C44.5156 87.9795 44.8711 88.262 45.1172 88.6221C45.3678 88.9775 45.4932 89.3831 45.4932 89.8389H43.5244C43.5244 89.6475 43.4834 89.4766 43.4014 89.3262C43.3239 89.1712 43.2008 89.0505 43.0322 88.9639C42.8682 88.8727 42.654 88.8271 42.3896 88.8271C42.1709 88.8271 41.9818 88.8659 41.8223 88.9434C41.6628 89.0163 41.5397 89.1165 41.4531 89.2441C41.3711 89.3672 41.3301 89.5039 41.3301 89.6543C41.3301 89.7682 41.3529 89.8708 41.3984 89.9619C41.4486 90.0485 41.5283 90.1283 41.6377 90.2012C41.7471 90.2741 41.8883 90.3424 42.0615 90.4062C42.2393 90.4655 42.458 90.5202 42.7178 90.5703C43.251 90.6797 43.7272 90.8232 44.1465 91.001C44.5658 91.1742 44.8984 91.4111 45.1445 91.7119C45.3906 92.0081 45.5137 92.3978 45.5137 92.8809C45.5137 93.209 45.4408 93.5098 45.2949 93.7832C45.1491 94.0566 44.9395 94.2959 44.666 94.501C44.3926 94.7015 44.0645 94.8587 43.6816 94.9727C43.3034 95.082 42.8773 95.1367 42.4033 95.1367C41.7152 95.1367 41.1318 95.0137 40.6533 94.7676C40.1794 94.5215 39.8193 94.2093 39.5732 93.8311C39.3317 93.4482 39.2109 93.0563 39.2109 92.6553H41.0771C41.0863 92.9242 41.1546 93.1406 41.2822 93.3047C41.4144 93.4688 41.5807 93.5872 41.7812 93.6602C41.9863 93.7331 42.2074 93.7695 42.4443 93.7695C42.6995 93.7695 42.9115 93.7354 43.0801 93.667C43.2487 93.5941 43.3763 93.4984 43.4629 93.3799C43.554 93.2568 43.5996 93.1156 43.5996 92.9561ZM46.4775 91.377V91.2334C46.4775 90.6911 46.555 90.1921 46.71 89.7363C46.8649 89.276 47.0905 88.8773 47.3867 88.54C47.6829 88.2028 48.0475 87.9408 48.4805 87.7539C48.9134 87.5625 49.4102 87.4668 49.9707 87.4668C50.5312 87.4668 51.0303 87.5625 51.4678 87.7539C51.9053 87.9408 52.2721 88.2028 52.5684 88.54C52.8691 88.8773 53.097 89.276 53.252 89.7363C53.4069 90.1921 53.4844 90.6911 53.4844 91.2334V91.377C53.4844 91.9147 53.4069 92.4137 53.252 92.874C53.097 93.3298 52.8691 93.7285 52.5684 94.0703C52.2721 94.4076 51.9076 94.6696 51.4746 94.8564C51.0417 95.0433 50.5449 95.1367 49.9844 95.1367C49.4238 95.1367 48.9248 95.0433 48.4873 94.8564C48.0544 94.6696 47.6875 94.4076 47.3867 94.0703C47.0905 93.7285 46.8649 93.3298 46.71 92.874C46.555 92.4137 46.4775 91.9147 46.4775 91.377ZM48.4463 91.2334V91.377C48.4463 91.6868 48.4736 91.9762 48.5283 92.2451C48.583 92.514 48.6696 92.751 48.7881 92.9561C48.9111 93.1566 49.0706 93.3138 49.2666 93.4277C49.4626 93.5417 49.7018 93.5986 49.9844 93.5986C50.2578 93.5986 50.4925 93.5417 50.6885 93.4277C50.8844 93.3138 51.0417 93.1566 51.1602 92.9561C51.2786 92.751 51.3652 92.514 51.4199 92.2451C51.4792 91.9762 51.5088 91.6868 51.5088 91.377V91.2334C51.5088 90.9326 51.4792 90.6501 51.4199 90.3857C51.3652 90.1169 51.2764 89.8799 51.1533 89.6748C51.0348 89.4652 50.8776 89.3011 50.6816 89.1826C50.4857 89.0641 50.2487 89.0049 49.9707 89.0049C49.6927 89.0049 49.4557 89.0641 49.2598 89.1826C49.0684 89.3011 48.9111 89.4652 48.7881 89.6748C48.6696 89.8799 48.583 90.1169 48.5283 90.3857C48.4736 90.6501 48.4463 90.9326 48.4463 91.2334ZM59.0693 93.2295V87.6035H61.0381V95H59.1855L59.0693 93.2295ZM59.2881 91.7119L59.8691 91.6982C59.8691 92.1904 59.8122 92.6484 59.6982 93.0723C59.5843 93.4915 59.4134 93.8561 59.1855 94.166C58.9577 94.4714 58.6706 94.7106 58.3242 94.8838C57.9779 95.0524 57.57 95.1367 57.1006 95.1367C56.7406 95.1367 56.4079 95.0866 56.1025 94.9863C55.8018 94.8815 55.542 94.7197 55.3232 94.501C55.109 94.2777 54.9404 93.9928 54.8174 93.6465C54.6989 93.2956 54.6396 92.874 54.6396 92.3818V87.6035H56.6084V92.3955C56.6084 92.6143 56.6335 92.7988 56.6836 92.9492C56.7383 93.0996 56.8135 93.2227 56.9092 93.3184C57.0049 93.4141 57.1165 93.4824 57.2441 93.5234C57.3763 93.5645 57.5221 93.585 57.6816 93.585C58.0872 93.585 58.4062 93.5029 58.6387 93.3389C58.8757 93.1748 59.042 92.9515 59.1377 92.6689C59.238 92.3818 59.2881 92.0628 59.2881 91.7119ZM64.5107 84.4932V95H62.542V84.4932H64.5107ZM69.1729 87.6035L65.96 91.2676L64.2373 93.0107L63.5195 91.5889L64.8867 89.8525L66.8076 87.6035H69.1729ZM67.1289 95L64.9414 91.582L66.3018 90.3926L69.3984 95H67.1289ZM71.9893 89.2168V95H70.0205V87.6035H71.873L71.9893 89.2168ZM74.2178 87.5557L74.1836 89.3809C74.0879 89.3672 73.9717 89.3558 73.835 89.3467C73.7028 89.333 73.582 89.3262 73.4727 89.3262C73.1947 89.3262 72.9531 89.3626 72.748 89.4355C72.5475 89.5039 72.3789 89.6064 72.2422 89.7432C72.11 89.8799 72.0098 90.0462 71.9414 90.2422C71.8776 90.4382 71.8411 90.6615 71.832 90.9121L71.4355 90.7891C71.4355 90.3105 71.4834 89.8708 71.5791 89.4697C71.6748 89.0641 71.8138 88.7109 71.9961 88.4102C72.1829 88.1094 72.4108 87.877 72.6797 87.7129C72.9486 87.5488 73.2562 87.4668 73.6025 87.4668C73.7119 87.4668 73.8236 87.4759 73.9375 87.4941C74.0514 87.5078 74.1449 87.5283 74.2178 87.5557ZM74.6279 91.377V91.2334C74.6279 90.6911 74.7054 90.1921 74.8604 89.7363C75.0153 89.276 75.2409 88.8773 75.5371 88.54C75.8333 88.2028 76.1979 87.9408 76.6309 87.7539C77.0638 87.5625 77.5605 87.4668 78.1211 87.4668C78.6816 87.4668 79.1807 87.5625 79.6182 87.7539C80.0557 87.9408 80.4225 88.2028 80.7188 88.54C81.0195 88.8773 81.2474 89.276 81.4023 89.7363C81.5573 90.1921 81.6348 90.6911 81.6348 91.2334V91.377C81.6348 91.9147 81.5573 92.4137 81.4023 92.874C81.2474 93.3298 81.0195 93.7285 80.7188 94.0703C80.4225 94.4076 80.0579 94.6696 79.625 94.8564C79.1921 95.0433 78.6953 95.1367 78.1348 95.1367C77.5742 95.1367 77.0752 95.0433 76.6377 94.8564C76.2048 94.6696 75.8379 94.4076 75.5371 94.0703C75.2409 93.7285 75.0153 93.3298 74.8604 92.874C74.7054 92.4137 74.6279 91.9147 74.6279 91.377ZM76.5967 91.2334V91.377C76.5967 91.6868 76.624 91.9762 76.6787 92.2451C76.7334 92.514 76.82 92.751 76.9385 92.9561C77.0615 93.1566 77.221 93.3138 77.417 93.4277C77.613 93.5417 77.8522 93.5986 78.1348 93.5986C78.4082 93.5986 78.6429 93.5417 78.8389 93.4277C79.0348 93.3138 79.1921 93.1566 79.3105 92.9561C79.429 92.751 79.5156 92.514 79.5703 92.2451C79.6296 91.9762 79.6592 91.6868 79.6592 91.377V91.2334C79.6592 90.9326 79.6296 90.6501 79.5703 90.3857C79.5156 90.1169 79.4268 89.8799 79.3037 89.6748C79.1852 89.4652 79.028 89.3011 78.832 89.1826C78.6361 89.0641 78.3991 89.0049 78.1211 89.0049C77.8431 89.0049 77.6061 89.0641 77.4102 89.1826C77.2188 89.3011 77.0615 89.4652 76.9385 89.6748C76.82 89.8799 76.7334 90.1169 76.6787 90.3857C76.624 90.6501 76.5967 90.9326 76.5967 91.2334ZM84.8135 89.1348V95H82.8379V87.6035H84.6904L84.8135 89.1348ZM84.54 91.042H83.9932C83.9932 90.527 84.0547 90.0531 84.1777 89.6201C84.3053 89.1826 84.4899 88.8044 84.7314 88.4854C84.9775 88.1618 85.2806 87.9111 85.6406 87.7334C86.0007 87.5557 86.4176 87.4668 86.8916 87.4668C87.2197 87.4668 87.5205 87.5169 87.7939 87.6172C88.0674 87.7129 88.3021 87.8656 88.498 88.0752C88.6986 88.2803 88.8535 88.5492 88.9629 88.8818C89.0723 89.21 89.127 89.6042 89.127 90.0645V95H87.1582V90.2832C87.1582 89.946 87.1126 89.6862 87.0215 89.5039C86.9303 89.3216 86.8005 89.194 86.6318 89.1211C86.4678 89.0482 86.2695 89.0117 86.0371 89.0117C85.7819 89.0117 85.5586 89.0641 85.3672 89.1689C85.1803 89.2738 85.0254 89.4196 84.9023 89.6064C84.7793 89.7887 84.6882 90.0029 84.6289 90.249C84.5697 90.4951 84.54 90.7594 84.54 91.042ZM88.9424 90.8164L88.2383 90.9053C88.2383 90.4222 88.2975 89.9733 88.416 89.5586C88.5391 89.1439 88.7191 88.7793 88.9561 88.4648C89.1976 88.1504 89.4961 87.9066 89.8516 87.7334C90.207 87.5557 90.6172 87.4668 91.082 87.4668C91.4375 87.4668 91.7611 87.5192 92.0527 87.624C92.3444 87.7243 92.5928 87.8861 92.7979 88.1094C93.0075 88.3281 93.167 88.6152 93.2764 88.9707C93.3903 89.3262 93.4473 89.7614 93.4473 90.2764V95H91.4717V90.2764C91.4717 89.9346 91.4261 89.6748 91.335 89.4971C91.2484 89.3148 91.1208 89.1895 90.9521 89.1211C90.7881 89.0482 90.5921 89.0117 90.3643 89.0117C90.1273 89.0117 89.9199 89.0596 89.7422 89.1553C89.5645 89.2464 89.4163 89.374 89.2979 89.5381C89.1794 89.7021 89.0905 89.8936 89.0312 90.1123C88.972 90.3265 88.9424 90.5612 88.9424 90.8164ZM98.376 95.1367C97.8018 95.1367 97.2868 95.0456 96.8311 94.8633C96.3753 94.6764 95.988 94.4189 95.6689 94.0908C95.3545 93.7627 95.113 93.3822 94.9443 92.9492C94.7757 92.5117 94.6914 92.0469 94.6914 91.5547V91.2812C94.6914 90.7207 94.7712 90.208 94.9307 89.7432C95.0902 89.2783 95.318 88.875 95.6143 88.5332C95.915 88.1914 96.2796 87.9294 96.708 87.7471C97.1364 87.5602 97.6195 87.4668 98.1572 87.4668C98.6813 87.4668 99.1462 87.5534 99.5518 87.7266C99.9574 87.8997 100.297 88.1458 100.57 88.4648C100.848 88.7839 101.058 89.1667 101.199 89.6133C101.34 90.0553 101.411 90.5475 101.411 91.0898V91.9102H95.5322V90.5977H99.4766V90.4473C99.4766 90.1738 99.4264 89.93 99.3262 89.7158C99.2305 89.4971 99.0846 89.3239 98.8887 89.1963C98.6927 89.0687 98.4421 89.0049 98.1367 89.0049C97.877 89.0049 97.6536 89.0618 97.4668 89.1758C97.2799 89.2897 97.1273 89.4492 97.0088 89.6543C96.8949 89.8594 96.8083 90.1009 96.749 90.3789C96.6943 90.6523 96.667 90.9531 96.667 91.2812V91.5547C96.667 91.8509 96.708 92.1243 96.79 92.375C96.8766 92.6257 96.9974 92.8421 97.1523 93.0244C97.3118 93.2067 97.5033 93.348 97.7266 93.4482C97.9544 93.5485 98.2119 93.5986 98.499 93.5986C98.8545 93.5986 99.1849 93.5303 99.4902 93.3936C99.8001 93.2523 100.067 93.0404 100.29 92.7578L101.247 93.7969C101.092 94.0202 100.88 94.2344 100.611 94.4395C100.347 94.6445 100.028 94.8132 99.6543 94.9453C99.2806 95.0729 98.8545 95.1367 98.376 95.1367ZM96.9883 86.5986L98.3281 84.4932H100.468L98.5879 86.5986H96.9883ZM104.453 84.5V95H102.484V84.5H104.453ZM104.173 91.042H103.633C103.637 90.527 103.706 90.0531 103.838 89.6201C103.97 89.1826 104.159 88.8044 104.405 88.4854C104.651 88.1618 104.945 87.9111 105.287 87.7334C105.633 87.5557 106.016 87.4668 106.436 87.4668C106.8 87.4668 107.131 87.5192 107.427 87.624C107.728 87.7243 107.985 87.8883 108.199 88.1162C108.418 88.3395 108.587 88.6335 108.705 88.998C108.824 89.3626 108.883 89.8047 108.883 90.3242V95H106.9V90.3105C106.9 89.9824 106.853 89.7249 106.757 89.5381C106.666 89.3467 106.531 89.2122 106.354 89.1348C106.18 89.0527 105.966 89.0117 105.711 89.0117C105.428 89.0117 105.187 89.0641 104.986 89.1689C104.79 89.2738 104.633 89.4196 104.515 89.6064C104.396 89.7887 104.31 90.0029 104.255 90.249C104.2 90.4951 104.173 90.7594 104.173 91.042ZM110.065 91.377V91.2334C110.065 90.6911 110.143 90.1921 110.298 89.7363C110.453 89.276 110.678 88.8773 110.975 88.54C111.271 88.2028 111.635 87.9408 112.068 87.7539C112.501 87.5625 112.998 87.4668 113.559 87.4668C114.119 87.4668 114.618 87.5625 115.056 87.7539C115.493 87.9408 115.86 88.2028 116.156 88.54C116.457 88.8773 116.685 89.276 116.84 89.7363C116.995 90.1921 117.072 90.6911 117.072 91.2334V91.377C117.072 91.9147 116.995 92.4137 116.84 92.874C116.685 93.3298 116.457 93.7285 116.156 94.0703C115.86 94.4076 115.495 94.6696 115.062 94.8564C114.63 95.0433 114.133 95.1367 113.572 95.1367C113.012 95.1367 112.513 95.0433 112.075 94.8564C111.642 94.6696 111.275 94.4076 110.975 94.0703C110.678 93.7285 110.453 93.3298 110.298 92.874C110.143 92.4137 110.065 91.9147 110.065 91.377ZM112.034 91.2334V91.377C112.034 91.6868 112.062 91.9762 112.116 92.2451C112.171 92.514 112.257 92.751 112.376 92.9561C112.499 93.1566 112.659 93.3138 112.854 93.4277C113.05 93.5417 113.29 93.5986 113.572 93.5986C113.846 93.5986 114.08 93.5417 114.276 93.4277C114.472 93.3138 114.63 93.1566 114.748 92.9561C114.867 92.751 114.953 92.514 115.008 92.2451C115.067 91.9762 115.097 91.6868 115.097 91.377V91.2334C115.097 90.9326 115.067 90.6501 115.008 90.3857C114.953 90.1169 114.864 89.8799 114.741 89.6748C114.623 89.4652 114.465 89.3011 114.27 89.1826C114.074 89.0641 113.837 89.0049 113.559 89.0049C113.281 89.0049 113.044 89.0641 112.848 89.1826C112.656 89.3011 112.499 89.4652 112.376 89.6748C112.257 89.8799 112.171 90.1169 112.116 90.3857C112.062 90.6501 112.034 90.9326 112.034 91.2334ZM34.7539 104.5V115H32.7783V104.5H34.7539ZM39.7852 115.137C39.2109 115.137 38.696 115.046 38.2402 114.863C37.7845 114.676 37.3971 114.419 37.0781 114.091C36.7637 113.763 36.5221 113.382 36.3535 112.949C36.1849 112.512 36.1006 112.047 36.1006 111.555V111.281C36.1006 110.721 36.1803 110.208 36.3398 109.743C36.4993 109.278 36.7272 108.875 37.0234 108.533C37.3242 108.191 37.6888 107.929 38.1172 107.747C38.5456 107.56 39.0286 107.467 39.5664 107.467C40.0905 107.467 40.5553 107.553 40.9609 107.727C41.3665 107.9 41.7061 108.146 41.9795 108.465C42.2575 108.784 42.4671 109.167 42.6084 109.613C42.7497 110.055 42.8203 110.548 42.8203 111.09V111.91H36.9414V110.598H40.8857V110.447C40.8857 110.174 40.8356 109.93 40.7354 109.716C40.6396 109.497 40.4938 109.324 40.2979 109.196C40.1019 109.069 39.8512 109.005 39.5459 109.005C39.2861 109.005 39.0628 109.062 38.876 109.176C38.6891 109.29 38.5365 109.449 38.418 109.654C38.304 109.859 38.2174 110.101 38.1582 110.379C38.1035 110.652 38.0762 110.953 38.0762 111.281V111.555C38.0762 111.851 38.1172 112.124 38.1992 112.375C38.2858 112.626 38.4066 112.842 38.5615 113.024C38.721 113.207 38.9124 113.348 39.1357 113.448C39.3636 113.549 39.6211 113.599 39.9082 113.599C40.2637 113.599 40.5941 113.53 40.8994 113.394C41.2093 113.252 41.4759 113.04 41.6992 112.758L42.6562 113.797C42.5013 114.02 42.2894 114.234 42.0205 114.439C41.7562 114.645 41.4372 114.813 41.0635 114.945C40.6898 115.073 40.2637 115.137 39.7852 115.137ZM47.9404 112.956C47.9404 112.815 47.8994 112.687 47.8174 112.573C47.7354 112.459 47.5827 112.354 47.3594 112.259C47.1406 112.159 46.8239 112.067 46.4092 111.985C46.0355 111.903 45.6868 111.801 45.3633 111.678C45.0443 111.55 44.7663 111.397 44.5293 111.22C44.2969 111.042 44.1146 110.832 43.9824 110.591C43.8503 110.345 43.7842 110.064 43.7842 109.75C43.7842 109.44 43.8503 109.148 43.9824 108.875C44.1191 108.602 44.3128 108.36 44.5635 108.15C44.8187 107.936 45.1286 107.77 45.4932 107.651C45.8623 107.528 46.277 107.467 46.7373 107.467C47.3799 107.467 47.9313 107.569 48.3916 107.774C48.8564 107.979 49.2119 108.262 49.458 108.622C49.7087 108.978 49.834 109.383 49.834 109.839H47.8652C47.8652 109.647 47.8242 109.477 47.7422 109.326C47.6647 109.171 47.5417 109.05 47.373 108.964C47.209 108.873 46.9948 108.827 46.7305 108.827C46.5117 108.827 46.3226 108.866 46.1631 108.943C46.0036 109.016 45.8805 109.117 45.7939 109.244C45.7119 109.367 45.6709 109.504 45.6709 109.654C45.6709 109.768 45.6937 109.871 45.7393 109.962C45.7894 110.049 45.8691 110.128 45.9785 110.201C46.0879 110.274 46.2292 110.342 46.4023 110.406C46.5801 110.465 46.7988 110.52 47.0586 110.57C47.5918 110.68 48.068 110.823 48.4873 111.001C48.9066 111.174 49.2393 111.411 49.4854 111.712C49.7314 112.008 49.8545 112.398 49.8545 112.881C49.8545 113.209 49.7816 113.51 49.6357 113.783C49.4899 114.057 49.2803 114.296 49.0068 114.501C48.7334 114.701 48.4053 114.859 48.0225 114.973C47.6442 115.082 47.2181 115.137 46.7441 115.137C46.056 115.137 45.4727 115.014 44.9941 114.768C44.5202 114.521 44.1602 114.209 43.9141 113.831C43.6725 113.448 43.5518 113.056 43.5518 112.655H45.418C45.4271 112.924 45.4954 113.141 45.623 113.305C45.7552 113.469 45.9215 113.587 46.1221 113.66C46.3271 113.733 46.5482 113.77 46.7852 113.77C47.0404 113.77 47.2523 113.735 47.4209 113.667C47.5895 113.594 47.7171 113.498 47.8037 113.38C47.8949 113.257 47.9404 113.116 47.9404 112.956ZM50.8184 111.377V111.233C50.8184 110.691 50.8958 110.192 51.0508 109.736C51.2057 109.276 51.4313 108.877 51.7275 108.54C52.0238 108.203 52.3883 107.941 52.8213 107.754C53.2542 107.562 53.751 107.467 54.3115 107.467C54.8721 107.467 55.3711 107.562 55.8086 107.754C56.2461 107.941 56.613 108.203 56.9092 108.54C57.21 108.877 57.4378 109.276 57.5928 109.736C57.7477 110.192 57.8252 110.691 57.8252 111.233V111.377C57.8252 111.915 57.7477 112.414 57.5928 112.874C57.4378 113.33 57.21 113.729 56.9092 114.07C56.613 114.408 56.2484 114.67 55.8154 114.856C55.3825 115.043 54.8857 115.137 54.3252 115.137C53.7646 115.137 53.2656 115.043 52.8281 114.856C52.3952 114.67 52.0283 114.408 51.7275 114.07C51.4313 113.729 51.2057 113.33 51.0508 112.874C50.8958 112.414 50.8184 111.915 50.8184 111.377ZM52.7871 111.233V111.377C52.7871 111.687 52.8145 111.976 52.8691 112.245C52.9238 112.514 53.0104 112.751 53.1289 112.956C53.252 113.157 53.4115 113.314 53.6074 113.428C53.8034 113.542 54.0426 113.599 54.3252 113.599C54.5986 113.599 54.8333 113.542 55.0293 113.428C55.2253 113.314 55.3825 113.157 55.501 112.956C55.6195 112.751 55.7061 112.514 55.7607 112.245C55.82 111.976 55.8496 111.687 55.8496 111.377V111.233C55.8496 110.933 55.82 110.65 55.7607 110.386C55.7061 110.117 55.6172 109.88 55.4941 109.675C55.3757 109.465 55.2184 109.301 55.0225 109.183C54.8265 109.064 54.5895 109.005 54.3115 109.005C54.0335 109.005 53.7965 109.064 53.6006 109.183C53.4092 109.301 53.252 109.465 53.1289 109.675C53.0104 109.88 52.9238 110.117 52.8691 110.386C52.8145 110.65 52.7871 110.933 52.7871 111.233ZM61.0039 109.025V117.844H59.0352V107.604H60.8604L61.0039 109.025ZM65.6865 111.22V111.363C65.6865 111.901 65.6227 112.4 65.4951 112.86C65.3721 113.321 65.1898 113.722 64.9482 114.063C64.7067 114.401 64.4059 114.665 64.0459 114.856C63.6904 115.043 63.2803 115.137 62.8154 115.137C62.3643 115.137 61.9723 115.046 61.6396 114.863C61.307 114.681 61.0267 114.426 60.7988 114.098C60.5755 113.765 60.3955 113.38 60.2588 112.942C60.1221 112.505 60.0173 112.035 59.9443 111.534V111.158C60.0173 110.62 60.1221 110.128 60.2588 109.682C60.3955 109.23 60.5755 108.841 60.7988 108.513C61.0267 108.18 61.3047 107.923 61.6328 107.74C61.9655 107.558 62.3551 107.467 62.8018 107.467C63.2712 107.467 63.6836 107.556 64.0391 107.733C64.3991 107.911 64.6999 108.166 64.9414 108.499C65.1875 108.832 65.3721 109.228 65.4951 109.688C65.6227 110.149 65.6865 110.659 65.6865 111.22ZM63.7109 111.363V111.22C63.7109 110.905 63.6836 110.616 63.6289 110.352C63.5788 110.083 63.4967 109.848 63.3828 109.647C63.2734 109.447 63.1276 109.292 62.9453 109.183C62.7676 109.069 62.5511 109.012 62.2959 109.012C62.027 109.012 61.7969 109.055 61.6055 109.142C61.4186 109.228 61.266 109.354 61.1475 109.518C61.029 109.682 60.9401 109.878 60.8809 110.105C60.8216 110.333 60.7852 110.591 60.7715 110.878V111.828C60.7943 112.165 60.8581 112.468 60.9629 112.737C61.0677 113.002 61.2295 113.211 61.4482 113.366C61.667 113.521 61.9541 113.599 62.3096 113.599C62.5693 113.599 62.7881 113.542 62.9658 113.428C63.1436 113.309 63.2871 113.147 63.3965 112.942C63.5104 112.737 63.5902 112.5 63.6357 112.231C63.6859 111.963 63.7109 111.673 63.7109 111.363ZM70.9023 113.332V110.037C70.9023 109.8 70.8636 109.597 70.7861 109.429C70.7087 109.256 70.5879 109.121 70.4238 109.025C70.2643 108.93 70.057 108.882 69.8018 108.882C69.583 108.882 69.3939 108.921 69.2344 108.998C69.0749 109.071 68.9518 109.178 68.8652 109.319C68.7786 109.456 68.7354 109.618 68.7354 109.805H66.7666C66.7666 109.49 66.8395 109.192 66.9854 108.909C67.1312 108.627 67.3431 108.378 67.6211 108.164C67.8991 107.945 68.2295 107.774 68.6123 107.651C68.9997 107.528 69.4326 107.467 69.9111 107.467C70.4854 107.467 70.9958 107.562 71.4424 107.754C71.889 107.945 72.2399 108.232 72.4951 108.615C72.7549 108.998 72.8848 109.477 72.8848 110.051V113.216C72.8848 113.621 72.9098 113.954 72.96 114.214C73.0101 114.469 73.083 114.692 73.1787 114.884V115H71.1895C71.0938 114.799 71.0208 114.549 70.9707 114.248C70.9251 113.943 70.9023 113.637 70.9023 113.332ZM71.1621 110.495L71.1758 111.609H70.0752C69.8154 111.609 69.5898 111.639 69.3984 111.698C69.207 111.757 69.0498 111.842 68.9268 111.951C68.8037 112.056 68.7126 112.179 68.6533 112.32C68.5986 112.462 68.5713 112.617 68.5713 112.785C68.5713 112.954 68.61 113.106 68.6875 113.243C68.765 113.375 68.8766 113.48 69.0225 113.558C69.1683 113.631 69.3392 113.667 69.5352 113.667C69.8314 113.667 70.0889 113.608 70.3076 113.489C70.5264 113.371 70.695 113.225 70.8135 113.052C70.9365 112.879 71.0003 112.715 71.0049 112.56L71.5244 113.394C71.4515 113.58 71.3512 113.774 71.2236 113.975C71.1006 114.175 70.9434 114.364 70.752 114.542C70.5605 114.715 70.3304 114.859 70.0615 114.973C69.7926 115.082 69.4736 115.137 69.1045 115.137C68.6351 115.137 68.209 115.043 67.8262 114.856C67.4479 114.665 67.1471 114.403 66.9238 114.07C66.7051 113.733 66.5957 113.35 66.5957 112.922C66.5957 112.535 66.6686 112.19 66.8145 111.89C66.9603 111.589 67.1745 111.336 67.457 111.131C67.7441 110.921 68.1019 110.764 68.5303 110.659C68.9587 110.55 69.4554 110.495 70.0205 110.495H71.1621ZM76.3711 109.217V115H74.4023V107.604H76.2549L76.3711 109.217ZM78.5996 107.556L78.5654 109.381C78.4697 109.367 78.3535 109.356 78.2168 109.347C78.0846 109.333 77.9639 109.326 77.8545 109.326C77.5765 109.326 77.335 109.363 77.1299 109.436C76.9294 109.504 76.7607 109.606 76.624 109.743C76.4919 109.88 76.3916 110.046 76.3232 110.242C76.2594 110.438 76.223 110.661 76.2139 110.912L75.8174 110.789C75.8174 110.311 75.8652 109.871 75.9609 109.47C76.0566 109.064 76.1956 108.711 76.3779 108.41C76.5648 108.109 76.7926 107.877 77.0615 107.713C77.3304 107.549 77.638 107.467 77.9844 107.467C78.0938 107.467 78.2054 107.476 78.3193 107.494C78.4333 107.508 78.5267 107.528 78.5996 107.556ZM81.498 104.493V115H79.5293V104.493H81.498ZM86.1602 107.604L82.9473 111.268L81.2246 113.011L80.5068 111.589L81.874 109.853L83.7949 107.604H86.1602ZM84.1162 115L81.9287 111.582L83.2891 110.393L86.3857 115H84.1162ZM91.3828 113.229V107.604H93.3516V115H91.499L91.3828 113.229ZM91.6016 111.712L92.1826 111.698C92.1826 112.19 92.1257 112.648 92.0117 113.072C91.8978 113.492 91.7269 113.856 91.499 114.166C91.2712 114.471 90.984 114.711 90.6377 114.884C90.2913 115.052 89.8835 115.137 89.4141 115.137C89.054 115.137 88.7214 115.087 88.416 114.986C88.1152 114.882 87.8555 114.72 87.6367 114.501C87.4225 114.278 87.2539 113.993 87.1309 113.646C87.0124 113.296 86.9531 112.874 86.9531 112.382V107.604H88.9219V112.396C88.9219 112.614 88.9469 112.799 88.9971 112.949C89.0518 113.1 89.127 113.223 89.2227 113.318C89.3184 113.414 89.43 113.482 89.5576 113.523C89.6898 113.564 89.8356 113.585 89.9951 113.585C90.4007 113.585 90.7197 113.503 90.9521 113.339C91.1891 113.175 91.3555 112.951 91.4512 112.669C91.5514 112.382 91.6016 112.063 91.6016 111.712Z" fill="#050706"/>
<path d="M61.325 0.7375L42.75 21.175C42.2625 21.7 42 22.4 42 23.1125C42 24.7125 43.2875 26 44.8875 26H48L38.825 35.175C38.3 35.7 38 36.425 38 37.175C38 38.7375 39.2625 40 40.825 40H45L35.675 51.1875C35.2375 51.7125 35 52.375 35 53.0625C35 54.6875 36.3125 56 37.9375 56H59V60C59 62.2125 60.7875 64 63 64C65.2125 64 67 62.2125 67 60V56H88.0625C89.6875 56 91 54.6875 91 53.0625C91 52.375 90.7625 51.7125 90.325 51.1875L81 40H85.175C86.7375 40 88 38.7375 88 37.175C88 36.425 87.7 35.7 87.175 35.175L78 26H81.1125C82.7 26 84 24.7125 84 23.1125C84 22.4 83.7375 21.7 83.25 21.175L64.675 0.7375C64.25 0.2625 63.6375 0 63 0C62.3625 0 61.75 0.2625 61.325 0.7375Z" fill="#7A9D8C"/>
</svg>
