<svg width="150" height="118" viewBox="0 0 150 118" fill="none" xmlns="http://www.w3.org/2000/svg">
<path d="M8.58203 89.4209L10.5645 81.0469H11.6719L11.9248 82.4414L9.8125 91H8.62305L8.58203 89.4209ZM7.56348 81.0469L9.2041 89.4209L9.06738 91H7.74121L5.5332 81.0469H7.56348ZM13.668 89.3867L15.2881 81.0469H17.3184L15.1172 91H13.791L13.668 89.3867ZM12.2939 81.0469L14.29 89.4551L14.2354 91H13.0459L10.9199 82.4346L11.1934 81.0469H12.2939ZM21.4951 91.1367C20.9209 91.1367 20.4059 91.0456 19.9502 90.8633C19.4945 90.6764 19.1071 90.4189 18.7881 90.0908C18.4736 89.7627 18.2321 89.3822 18.0635 88.9492C17.8949 88.5117 17.8105 88.0469 17.8105 87.5547V87.2812C17.8105 86.7207 17.8903 86.208 18.0498 85.7432C18.2093 85.2783 18.4372 84.875 18.7334 84.5332C19.0342 84.1914 19.3988 83.9294 19.8271 83.7471C20.2555 83.5602 20.7386 83.4668 21.2764 83.4668C21.8005 83.4668 22.2653 83.5534 22.6709 83.7266C23.0765 83.8997 23.416 84.1458 23.6895 84.4648C23.9674 84.7839 24.1771 85.1667 24.3184 85.6133C24.4596 86.0553 24.5303 86.5475 24.5303 87.0898V87.9102H18.6514V86.5977H22.5957V86.4473C22.5957 86.1738 22.5456 85.93 22.4453 85.7158C22.3496 85.4971 22.2038 85.3239 22.0078 85.1963C21.8118 85.0687 21.5612 85.0049 21.2559 85.0049C20.9961 85.0049 20.7728 85.0618 20.5859 85.1758C20.3991 85.2897 20.2464 85.4492 20.1279 85.6543C20.014 85.8594 19.9274 86.1009 19.8682 86.3789C19.8135 86.6523 19.7861 86.9531 19.7861 87.2812V87.5547C19.7861 87.8509 19.8271 88.1243 19.9092 88.375C19.9958 88.6257 20.1165 88.8421 20.2715 89.0244C20.431 89.2067 20.6224 89.348 20.8457 89.4482C21.0736 89.5485 21.3311 89.5986 21.6182 89.5986C21.9736 89.5986 22.304 89.5303 22.6094 89.3936C22.9193 89.2523 23.1859 89.0404 23.4092 88.7578L24.3662 89.7969C24.2113 90.0202 23.9993 90.2344 23.7305 90.4395C23.4661 90.6445 23.1471 90.8132 22.7734 90.9453C22.3997 91.0729 21.9736 91.1367 21.4951 91.1367ZM27.7295 80.5V91H25.7539V80.5H27.7295ZM31.4346 80.5V91H29.459V80.5H31.4346ZM34.9893 85.1826V91H33.0205V83.6035H34.8662L34.9893 85.1826ZM34.7021 87.042H34.1689C34.1689 86.4951 34.2396 86.0029 34.3809 85.5654C34.5221 85.1234 34.7204 84.7474 34.9756 84.4375C35.2308 84.123 35.5339 83.8838 35.8848 83.7197C36.2402 83.5511 36.6367 83.4668 37.0742 83.4668C37.4206 83.4668 37.7373 83.5169 38.0244 83.6172C38.3115 83.7174 38.5576 83.877 38.7627 84.0957C38.9723 84.3145 39.1318 84.6038 39.2412 84.9639C39.3551 85.3239 39.4121 85.7637 39.4121 86.2832V91H37.4297V86.2764C37.4297 85.9482 37.3841 85.693 37.293 85.5107C37.2018 85.3285 37.0674 85.2008 36.8896 85.1279C36.7165 85.0505 36.5023 85.0117 36.2471 85.0117C35.9827 85.0117 35.7526 85.0641 35.5566 85.1689C35.3652 85.2738 35.2057 85.4196 35.0781 85.6064C34.9551 85.7887 34.8617 86.0029 34.7979 86.249C34.734 86.4951 34.7021 86.7594 34.7021 87.042ZM44.3135 91.1367C43.7393 91.1367 43.2243 91.0456 42.7686 90.8633C42.3128 90.6764 41.9255 90.4189 41.6064 90.0908C41.292 89.7627 41.0505 89.3822 40.8818 88.9492C40.7132 88.5117 40.6289 88.0469 40.6289 87.5547V87.2812C40.6289 86.7207 40.7087 86.208 40.8682 85.7432C41.0277 85.2783 41.2555 84.875 41.5518 84.5332C41.8525 84.1914 42.2171 83.9294 42.6455 83.7471C43.0739 83.5602 43.557 83.4668 44.0947 83.4668C44.6188 83.4668 45.0837 83.5534 45.4893 83.7266C45.8949 83.8997 46.2344 84.1458 46.5078 84.4648C46.7858 84.7839 46.9954 85.1667 47.1367 85.6133C47.278 86.0553 47.3486 86.5475 47.3486 87.0898V87.9102H41.4697V86.5977H45.4141V86.4473C45.4141 86.1738 45.3639 85.93 45.2637 85.7158C45.168 85.4971 45.0221 85.3239 44.8262 85.1963C44.6302 85.0687 44.3796 85.0049 44.0742 85.0049C43.8145 85.0049 43.5911 85.0618 43.4043 85.1758C43.2174 85.2897 43.0648 85.4492 42.9463 85.6543C42.8324 85.8594 42.7458 86.1009 42.6865 86.3789C42.6318 86.6523 42.6045 86.9531 42.6045 87.2812V87.5547C42.6045 87.8509 42.6455 88.1243 42.7275 88.375C42.8141 88.6257 42.9349 88.8421 43.0898 89.0244C43.2493 89.2067 43.4408 89.348 43.6641 89.4482C43.8919 89.5485 44.1494 89.5986 44.4365 89.5986C44.792 89.5986 45.1224 89.5303 45.4277 89.3936C45.7376 89.2523 46.0042 89.0404 46.2275 88.7578L47.1846 89.7969C47.0296 90.0202 46.8177 90.2344 46.5488 90.4395C46.2845 90.6445 45.9655 90.8132 45.5918 90.9453C45.2181 91.0729 44.792 91.1367 44.3135 91.1367ZM52.4688 88.9561C52.4688 88.8148 52.4277 88.6872 52.3457 88.5732C52.2637 88.4593 52.111 88.3545 51.8877 88.2588C51.6689 88.1585 51.3522 88.0674 50.9375 87.9854C50.5638 87.9033 50.2152 87.8008 49.8916 87.6777C49.5726 87.5501 49.2946 87.3975 49.0576 87.2197C48.8252 87.042 48.6429 86.8324 48.5107 86.5908C48.3786 86.3447 48.3125 86.0645 48.3125 85.75C48.3125 85.4401 48.3786 85.1484 48.5107 84.875C48.6475 84.6016 48.8411 84.36 49.0918 84.1504C49.347 83.9362 49.6569 83.7699 50.0215 83.6514C50.3906 83.5283 50.8053 83.4668 51.2656 83.4668C51.9082 83.4668 52.4596 83.5693 52.9199 83.7744C53.3848 83.9795 53.7402 84.262 53.9863 84.6221C54.237 84.9775 54.3623 85.3831 54.3623 85.8389H52.3936C52.3936 85.6475 52.3525 85.4766 52.2705 85.3262C52.193 85.1712 52.07 85.0505 51.9014 84.9639C51.7373 84.8727 51.5231 84.8271 51.2588 84.8271C51.04 84.8271 50.8509 84.8659 50.6914 84.9434C50.5319 85.0163 50.4089 85.1165 50.3223 85.2441C50.2402 85.3672 50.1992 85.5039 50.1992 85.6543C50.1992 85.7682 50.222 85.8708 50.2676 85.9619C50.3177 86.0485 50.3975 86.1283 50.5068 86.2012C50.6162 86.2741 50.7575 86.3424 50.9307 86.4062C51.1084 86.4655 51.3271 86.5202 51.5869 86.5703C52.1201 86.6797 52.5964 86.8232 53.0156 87.001C53.4349 87.1742 53.7676 87.4111 54.0137 87.7119C54.2598 88.0081 54.3828 88.3978 54.3828 88.8809C54.3828 89.209 54.3099 89.5098 54.1641 89.7832C54.0182 90.0566 53.8086 90.2959 53.5352 90.501C53.2617 90.7015 52.9336 90.8587 52.5508 90.9727C52.1725 91.082 51.7464 91.1367 51.2725 91.1367C50.5843 91.1367 50.001 91.0137 49.5225 90.7676C49.0485 90.5215 48.6885 90.2093 48.4424 89.8311C48.2008 89.4482 48.0801 89.0563 48.0801 88.6553H49.9463C49.9554 88.9242 50.0238 89.1406 50.1514 89.3047C50.2835 89.4688 50.4499 89.5872 50.6504 89.6602C50.8555 89.7331 51.0765 89.7695 51.3135 89.7695C51.5687 89.7695 51.7806 89.7354 51.9492 89.667C52.1178 89.5941 52.2454 89.4984 52.332 89.3799C52.4232 89.2568 52.4688 89.1156 52.4688 88.9561ZM59.6602 88.9561C59.6602 88.8148 59.6191 88.6872 59.5371 88.5732C59.4551 88.4593 59.3024 88.3545 59.0791 88.2588C58.8604 88.1585 58.5436 88.0674 58.1289 87.9854C57.7552 87.9033 57.4066 87.8008 57.083 87.6777C56.764 87.5501 56.486 87.3975 56.249 87.2197C56.0166 87.042 55.8343 86.8324 55.7021 86.5908C55.57 86.3447 55.5039 86.0645 55.5039 85.75C55.5039 85.4401 55.57 85.1484 55.7021 84.875C55.8389 84.6016 56.0326 84.36 56.2832 84.1504C56.5384 83.9362 56.8483 83.7699 57.2129 83.6514C57.582 83.5283 57.9967 83.4668 58.457 83.4668C59.0996 83.4668 59.651 83.5693 60.1113 83.7744C60.5762 83.9795 60.9316 84.262 61.1777 84.6221C61.4284 84.9775 61.5537 85.3831 61.5537 85.8389H59.585C59.585 85.6475 59.5439 85.4766 59.4619 85.3262C59.3844 85.1712 59.2614 85.0505 59.0928 84.9639C58.9287 84.8727 58.7145 84.8271 58.4502 84.8271C58.2314 84.8271 58.0423 84.8659 57.8828 84.9434C57.7233 85.0163 57.6003 85.1165 57.5137 85.2441C57.4316 85.3672 57.3906 85.5039 57.3906 85.6543C57.3906 85.7682 57.4134 85.8708 57.459 85.9619C57.5091 86.0485 57.5889 86.1283 57.6982 86.2012C57.8076 86.2741 57.9489 86.3424 58.1221 86.4062C58.2998 86.4655 58.5186 86.5202 58.7783 86.5703C59.3115 86.6797 59.7878 86.8232 60.207 87.001C60.6263 87.1742 60.959 87.4111 61.2051 87.7119C61.4512 88.0081 61.5742 88.3978 61.5742 88.8809C61.5742 89.209 61.5013 89.5098 61.3555 89.7832C61.2096 90.0566 61 90.2959 60.7266 90.501C60.4531 90.7015 60.125 90.8587 59.7422 90.9727C59.3639 91.082 58.9378 91.1367 58.4639 91.1367C57.7757 91.1367 57.1924 91.0137 56.7139 90.7676C56.2399 90.5215 55.8799 90.2093 55.6338 89.8311C55.3923 89.4482 55.2715 89.0563 55.2715 88.6553H57.1377C57.1468 88.9242 57.2152 89.1406 57.3428 89.3047C57.4749 89.4688 57.6413 89.5872 57.8418 89.6602C58.0469 89.7331 58.2679 89.7695 58.5049 89.7695C58.7601 89.7695 58.972 89.7354 59.1406 89.667C59.3092 89.5941 59.4368 89.4984 59.5234 89.3799C59.6146 89.2568 59.6602 89.1156 59.6602 88.9561ZM70.3379 88.9561C70.3379 88.8148 70.2969 88.6872 70.2148 88.5732C70.1328 88.4593 69.9801 88.3545 69.7568 88.2588C69.5381 88.1585 69.2214 88.0674 68.8066 87.9854C68.4329 87.9033 68.0843 87.8008 67.7607 87.6777C67.4417 87.5501 67.1637 87.3975 66.9268 87.2197C66.6943 87.042 66.512 86.8324 66.3799 86.5908C66.2477 86.3447 66.1816 86.0645 66.1816 85.75C66.1816 85.4401 66.2477 85.1484 66.3799 84.875C66.5166 84.6016 66.7103 84.36 66.9609 84.1504C67.2161 83.9362 67.526 83.7699 67.8906 83.6514C68.2598 83.5283 68.6745 83.4668 69.1348 83.4668C69.7773 83.4668 70.3288 83.5693 70.7891 83.7744C71.2539 83.9795 71.6094 84.262 71.8555 84.6221C72.1061 84.9775 72.2314 85.3831 72.2314 85.8389H70.2627C70.2627 85.6475 70.2217 85.4766 70.1396 85.3262C70.0622 85.1712 69.9391 85.0505 69.7705 84.9639C69.6064 84.8727 69.3923 84.8271 69.1279 84.8271C68.9092 84.8271 68.7201 84.8659 68.5605 84.9434C68.401 85.0163 68.278 85.1165 68.1914 85.2441C68.1094 85.3672 68.0684 85.5039 68.0684 85.6543C68.0684 85.7682 68.0911 85.8708 68.1367 85.9619C68.1868 86.0485 68.2666 86.1283 68.376 86.2012C68.4854 86.2741 68.6266 86.3424 68.7998 86.4062C68.9775 86.4655 69.1963 86.5202 69.4561 86.5703C69.9893 86.6797 70.4655 86.8232 70.8848 87.001C71.304 87.1742 71.6367 87.4111 71.8828 87.7119C72.1289 88.0081 72.252 88.3978 72.252 88.8809C72.252 89.209 72.179 89.5098 72.0332 89.7832C71.8874 90.0566 71.6777 90.2959 71.4043 90.501C71.1309 90.7015 70.8027 90.8587 70.4199 90.9727C70.0417 91.082 69.6156 91.1367 69.1416 91.1367C68.4535 91.1367 67.8701 91.0137 67.3916 90.7676C66.9176 90.5215 66.5576 90.2093 66.3115 89.8311C66.07 89.4482 65.9492 89.0563 65.9492 88.6553H67.8154C67.8245 88.9242 67.8929 89.1406 68.0205 89.3047C68.1527 89.4688 68.319 89.5872 68.5195 89.6602C68.7246 89.7331 68.9456 89.7695 69.1826 89.7695C69.4378 89.7695 69.6497 89.7354 69.8184 89.667C69.987 89.5941 70.1146 89.4984 70.2012 89.3799C70.2923 89.2568 70.3379 89.1156 70.3379 88.9561ZM77.0166 80.5H78.9854V89.3047L78.7871 91H77.0166V80.5ZM83.668 87.2266V87.3701C83.668 87.9215 83.6087 88.4274 83.4902 88.8877C83.3763 89.348 83.1986 89.7467 82.957 90.084C82.7155 90.4167 82.4147 90.6764 82.0547 90.8633C81.6992 91.0456 81.2799 91.1367 80.7969 91.1367C80.3457 91.1367 79.9538 91.0456 79.6211 90.8633C79.293 90.681 79.0173 90.4235 78.7939 90.0908C78.5706 89.7581 78.3906 89.3685 78.2539 88.9219C78.1172 88.4753 78.0146 87.9876 77.9463 87.459V87.1445C78.0146 86.6159 78.1172 86.1283 78.2539 85.6816C78.3906 85.235 78.5706 84.8454 78.7939 84.5127C79.0173 84.18 79.293 83.9225 79.6211 83.7402C79.9492 83.5579 80.3366 83.4668 80.7832 83.4668C81.2708 83.4668 81.6947 83.5602 82.0547 83.7471C82.4193 83.9294 82.7201 84.1891 82.957 84.5264C83.1986 84.859 83.3763 85.2555 83.4902 85.7158C83.6087 86.1715 83.668 86.6751 83.668 87.2266ZM81.6992 87.3701V87.2266C81.6992 86.9258 81.6764 86.6432 81.6309 86.3789C81.5898 86.11 81.5169 85.8753 81.4121 85.6748C81.3073 85.4697 81.1637 85.3079 80.9814 85.1895C80.8037 85.071 80.5736 85.0117 80.291 85.0117C80.0221 85.0117 79.7943 85.0573 79.6074 85.1484C79.4206 85.2396 79.2656 85.3672 79.1426 85.5312C79.0241 85.6953 78.9352 85.8913 78.876 86.1191C78.8167 86.3424 78.7803 86.5885 78.7666 86.8574V87.7529C78.7803 88.113 78.8395 88.432 78.9443 88.71C79.0537 88.9834 79.2178 89.1999 79.4365 89.3594C79.6598 89.5143 79.9492 89.5918 80.3047 89.5918C80.5827 89.5918 80.8128 89.5371 80.9951 89.4277C81.1774 89.3184 81.3187 89.1634 81.4189 88.9629C81.5238 88.7624 81.5967 88.5277 81.6377 88.2588C81.6787 87.9854 81.6992 87.6891 81.6992 87.3701ZM88.8838 89.332V86.0371C88.8838 85.8001 88.8451 85.5973 88.7676 85.4287C88.6901 85.2555 88.5693 85.1211 88.4053 85.0254C88.2458 84.9297 88.0384 84.8818 87.7832 84.8818C87.5645 84.8818 87.3753 84.9206 87.2158 84.998C87.0563 85.071 86.9333 85.1781 86.8467 85.3193C86.7601 85.4561 86.7168 85.6178 86.7168 85.8047H84.748C84.748 85.4902 84.821 85.1917 84.9668 84.9092C85.1126 84.6266 85.3245 84.3783 85.6025 84.1641C85.8805 83.9453 86.2109 83.7744 86.5938 83.6514C86.9811 83.5283 87.4141 83.4668 87.8926 83.4668C88.4668 83.4668 88.9772 83.5625 89.4238 83.7539C89.8704 83.9453 90.2214 84.2324 90.4766 84.6152C90.7363 84.998 90.8662 85.4766 90.8662 86.0508V89.2158C90.8662 89.6214 90.8913 89.9541 90.9414 90.2139C90.9915 90.4691 91.0645 90.6924 91.1602 90.8838V91H89.1709C89.0752 90.7995 89.0023 90.5488 88.9521 90.248C88.9066 89.9427 88.8838 89.6374 88.8838 89.332ZM89.1436 86.4951L89.1572 87.6094H88.0566C87.7969 87.6094 87.5713 87.639 87.3799 87.6982C87.1885 87.7575 87.0312 87.8418 86.9082 87.9512C86.7852 88.056 86.694 88.179 86.6348 88.3203C86.5801 88.4616 86.5527 88.6165 86.5527 88.7852C86.5527 88.9538 86.5915 89.1064 86.6689 89.2432C86.7464 89.3753 86.8581 89.4801 87.0039 89.5576C87.1497 89.6305 87.3206 89.667 87.5166 89.667C87.8128 89.667 88.0703 89.6077 88.2891 89.4893C88.5078 89.3708 88.6764 89.2249 88.7949 89.0518C88.918 88.8786 88.9818 88.7145 88.9863 88.5596L89.5059 89.3936C89.4329 89.5804 89.3327 89.7741 89.2051 89.9746C89.082 90.1751 88.9248 90.3643 88.7334 90.542C88.542 90.7152 88.3118 90.8587 88.043 90.9727C87.7741 91.082 87.4551 91.1367 87.0859 91.1367C86.6165 91.1367 86.1904 91.0433 85.8076 90.8564C85.4294 90.665 85.1286 90.403 84.9053 90.0703C84.6865 89.7331 84.5771 89.3503 84.5771 88.9219C84.5771 88.5345 84.6501 88.1904 84.7959 87.8896C84.9417 87.5889 85.1559 87.3359 85.4385 87.1309C85.7256 86.9212 86.0833 86.764 86.5117 86.6592C86.9401 86.5498 87.4368 86.4951 88.002 86.4951H89.1436ZM98.2695 89.4619V91H92.6504V89.4619H98.2695ZM98.1602 84.7383L93.4434 91H92.124V89.8311L96.8203 83.6035H98.1602V84.7383ZM97.4629 83.6035V85.1484H92.2334V83.6035H97.4629ZM102.802 91.1367C102.228 91.1367 101.713 91.0456 101.257 90.8633C100.801 90.6764 100.414 90.4189 100.095 90.0908C99.7803 89.7627 99.5387 89.3822 99.3701 88.9492C99.2015 88.5117 99.1172 88.0469 99.1172 87.5547V87.2812C99.1172 86.7207 99.1969 86.208 99.3564 85.7432C99.516 85.2783 99.7438 84.875 100.04 84.5332C100.341 84.1914 100.705 83.9294 101.134 83.7471C101.562 83.5602 102.045 83.4668 102.583 83.4668C103.107 83.4668 103.572 83.5534 103.978 83.7266C104.383 83.8997 104.723 84.1458 104.996 84.4648C105.274 84.7839 105.484 85.1667 105.625 85.6133C105.766 86.0553 105.837 86.5475 105.837 87.0898V87.9102H99.958V86.5977H103.902V86.4473C103.902 86.1738 103.852 85.93 103.752 85.7158C103.656 85.4971 103.51 85.3239 103.314 85.1963C103.118 85.0687 102.868 85.0049 102.562 85.0049C102.303 85.0049 102.079 85.0618 101.893 85.1758C101.706 85.2897 101.553 85.4492 101.435 85.6543C101.321 85.8594 101.234 86.1009 101.175 86.3789C101.12 86.6523 101.093 86.9531 101.093 87.2812V87.5547C101.093 87.8509 101.134 88.1243 101.216 88.375C101.302 88.6257 101.423 88.8421 101.578 89.0244C101.738 89.2067 101.929 89.348 102.152 89.4482C102.38 89.5485 102.638 89.5986 102.925 89.5986C103.28 89.5986 103.611 89.5303 103.916 89.3936C104.226 89.2523 104.493 89.0404 104.716 88.7578L105.673 89.7969C105.518 90.0202 105.306 90.2344 105.037 90.4395C104.773 90.6445 104.454 90.8132 104.08 90.9453C103.706 91.0729 103.28 91.1367 102.802 91.1367ZM101.414 82.5986L102.754 80.4932H104.894L103.014 82.5986H101.414ZM108.886 85.1826V91H106.917V83.6035H108.763L108.886 85.1826ZM108.599 87.042H108.065C108.065 86.4951 108.136 86.0029 108.277 85.5654C108.419 85.1234 108.617 84.7474 108.872 84.4375C109.127 84.123 109.43 83.8838 109.781 83.7197C110.137 83.5511 110.533 83.4668 110.971 83.4668C111.317 83.4668 111.634 83.5169 111.921 83.6172C112.208 83.7174 112.454 83.877 112.659 84.0957C112.869 84.3145 113.028 84.6038 113.138 84.9639C113.252 85.3239 113.309 85.7637 113.309 86.2832V91H111.326V86.2764C111.326 85.9482 111.281 85.693 111.189 85.5107C111.098 85.3285 110.964 85.2008 110.786 85.1279C110.613 85.0505 110.399 85.0117 110.144 85.0117C109.879 85.0117 109.649 85.0641 109.453 85.1689C109.262 85.2738 109.102 85.4196 108.975 85.6064C108.852 85.7887 108.758 86.0029 108.694 86.249C108.631 86.4951 108.599 86.7594 108.599 87.042ZM118.21 91.1367C117.636 91.1367 117.121 91.0456 116.665 90.8633C116.209 90.6764 115.822 90.4189 115.503 90.0908C115.188 89.7627 114.947 89.3822 114.778 88.9492C114.61 88.5117 114.525 88.0469 114.525 87.5547V87.2812C114.525 86.7207 114.605 86.208 114.765 85.7432C114.924 85.2783 115.152 84.875 115.448 84.5332C115.749 84.1914 116.114 83.9294 116.542 83.7471C116.97 83.5602 117.453 83.4668 117.991 83.4668C118.515 83.4668 118.98 83.5534 119.386 83.7266C119.791 83.8997 120.131 84.1458 120.404 84.4648C120.682 84.7839 120.892 85.1667 121.033 85.6133C121.174 86.0553 121.245 86.5475 121.245 87.0898V87.9102H115.366V86.5977H119.311V86.4473C119.311 86.1738 119.26 85.93 119.16 85.7158C119.064 85.4971 118.919 85.3239 118.723 85.1963C118.527 85.0687 118.276 85.0049 117.971 85.0049C117.711 85.0049 117.488 85.0618 117.301 85.1758C117.114 85.2897 116.961 85.4492 116.843 85.6543C116.729 85.8594 116.642 86.1009 116.583 86.3789C116.528 86.6523 116.501 86.9531 116.501 87.2812V87.5547C116.501 87.8509 116.542 88.1243 116.624 88.375C116.711 88.6257 116.831 88.8421 116.986 89.0244C117.146 89.2067 117.337 89.348 117.561 89.4482C117.788 89.5485 118.046 89.5986 118.333 89.5986C118.688 89.5986 119.019 89.5303 119.324 89.3936C119.634 89.2523 119.901 89.0404 120.124 88.7578L121.081 89.7969C120.926 90.0202 120.714 90.2344 120.445 90.4395C120.181 90.6445 119.862 90.8132 119.488 90.9453C119.115 91.0729 118.688 91.1367 118.21 91.1367ZM124.335 85.1348V91H122.359V83.6035H124.212L124.335 85.1348ZM124.062 87.042H123.515C123.515 86.527 123.576 86.0531 123.699 85.6201C123.827 85.1826 124.011 84.8044 124.253 84.4854C124.499 84.1618 124.802 83.9111 125.162 83.7334C125.522 83.5557 125.939 83.4668 126.413 83.4668C126.741 83.4668 127.042 83.5169 127.315 83.6172C127.589 83.7129 127.824 83.8656 128.02 84.0752C128.22 84.2803 128.375 84.5492 128.484 84.8818C128.594 85.21 128.648 85.6042 128.648 86.0645V91H126.68V86.2832C126.68 85.946 126.634 85.6862 126.543 85.5039C126.452 85.3216 126.322 85.194 126.153 85.1211C125.989 85.0482 125.791 85.0117 125.559 85.0117C125.303 85.0117 125.08 85.0641 124.889 85.1689C124.702 85.2738 124.547 85.4196 124.424 85.6064C124.301 85.7887 124.21 86.0029 124.15 86.249C124.091 86.4951 124.062 86.7594 124.062 87.042ZM128.464 86.8164L127.76 86.9053C127.76 86.4222 127.819 85.9733 127.938 85.5586C128.061 85.1439 128.241 84.7793 128.478 84.4648C128.719 84.1504 129.018 83.9066 129.373 83.7334C129.729 83.5557 130.139 83.4668 130.604 83.4668C130.959 83.4668 131.283 83.5192 131.574 83.624C131.866 83.7243 132.114 83.8861 132.319 84.1094C132.529 84.3281 132.688 84.6152 132.798 84.9707C132.912 85.3262 132.969 85.7614 132.969 86.2764V91H130.993V86.2764C130.993 85.9346 130.948 85.6748 130.856 85.4971C130.77 85.3148 130.642 85.1895 130.474 85.1211C130.31 85.0482 130.114 85.0117 129.886 85.0117C129.649 85.0117 129.441 85.0596 129.264 85.1553C129.086 85.2464 128.938 85.374 128.819 85.5381C128.701 85.7021 128.612 85.8936 128.553 86.1123C128.493 86.3265 128.464 86.5612 128.464 86.8164ZM141.972 89.332V86.0371C141.972 85.8001 141.933 85.5973 141.855 85.4287C141.778 85.2555 141.657 85.1211 141.493 85.0254C141.334 84.9297 141.126 84.8818 140.871 84.8818C140.652 84.8818 140.463 84.9206 140.304 84.998C140.144 85.071 140.021 85.1781 139.935 85.3193C139.848 85.4561 139.805 85.6178 139.805 85.8047H137.836C137.836 85.4902 137.909 85.1917 138.055 84.9092C138.201 84.6266 138.412 84.3783 138.69 84.1641C138.968 83.9453 139.299 83.7744 139.682 83.6514C140.069 83.5283 140.502 83.4668 140.98 83.4668C141.555 83.4668 142.065 83.5625 142.512 83.7539C142.958 83.9453 143.309 84.2324 143.564 84.6152C143.824 84.998 143.954 85.4766 143.954 86.0508V89.2158C143.954 89.6214 143.979 89.9541 144.029 90.2139C144.079 90.4691 144.152 90.6924 144.248 90.8838V91H142.259C142.163 90.7995 142.09 90.5488 142.04 90.248C141.994 89.9427 141.972 89.6374 141.972 89.332ZM142.231 86.4951L142.245 87.6094H141.145C140.885 87.6094 140.659 87.639 140.468 87.6982C140.276 87.7575 140.119 87.8418 139.996 87.9512C139.873 88.056 139.782 88.179 139.723 88.3203C139.668 88.4616 139.641 88.6165 139.641 88.7852C139.641 88.9538 139.679 89.1064 139.757 89.2432C139.834 89.3753 139.946 89.4801 140.092 89.5576C140.238 89.6305 140.409 89.667 140.604 89.667C140.901 89.667 141.158 89.6077 141.377 89.4893C141.596 89.3708 141.764 89.2249 141.883 89.0518C142.006 88.8786 142.07 88.7145 142.074 88.5596L142.594 89.3936C142.521 89.5804 142.421 89.7741 142.293 89.9746C142.17 90.1751 142.013 90.3643 141.821 90.542C141.63 90.7152 141.4 90.8587 141.131 90.9727C140.862 91.082 140.543 91.1367 140.174 91.1367C139.704 91.1367 139.278 91.0433 138.896 90.8564C138.517 90.665 138.216 90.403 137.993 90.0703C137.774 89.7331 137.665 89.3503 137.665 88.9219C137.665 88.5345 137.738 88.1904 137.884 87.8896C138.03 87.5889 138.244 87.3359 138.526 87.1309C138.813 86.9212 139.171 86.764 139.6 86.6592C140.028 86.5498 140.525 86.4951 141.09 86.4951H142.231ZM56.7002 108.956C56.7002 108.815 56.6592 108.687 56.5771 108.573C56.4951 108.459 56.3424 108.354 56.1191 108.259C55.9004 108.159 55.5837 108.067 55.1689 107.985C54.7952 107.903 54.4466 107.801 54.123 107.678C53.804 107.55 53.526 107.397 53.2891 107.22C53.0566 107.042 52.8743 106.832 52.7422 106.591C52.61 106.345 52.5439 106.064 52.5439 105.75C52.5439 105.44 52.61 105.148 52.7422 104.875C52.8789 104.602 53.0726 104.36 53.3232 104.15C53.5785 103.936 53.8883 103.77 54.2529 103.651C54.6221 103.528 55.0368 103.467 55.4971 103.467C56.1396 103.467 56.6911 103.569 57.1514 103.774C57.6162 103.979 57.9717 104.262 58.2178 104.622C58.4684 104.978 58.5938 105.383 58.5938 105.839H56.625C56.625 105.647 56.584 105.477 56.502 105.326C56.4245 105.171 56.3014 105.05 56.1328 104.964C55.9688 104.873 55.7546 104.827 55.4902 104.827C55.2715 104.827 55.0824 104.866 54.9229 104.943C54.7633 105.016 54.6403 105.117 54.5537 105.244C54.4717 105.367 54.4307 105.504 54.4307 105.654C54.4307 105.768 54.4535 105.871 54.499 105.962C54.5492 106.049 54.6289 106.128 54.7383 106.201C54.8477 106.274 54.9889 106.342 55.1621 106.406C55.3398 106.465 55.5586 106.52 55.8184 106.57C56.3516 106.68 56.8278 106.823 57.2471 107.001C57.6663 107.174 57.999 107.411 58.2451 107.712C58.4912 108.008 58.6143 108.398 58.6143 108.881C58.6143 109.209 58.5413 109.51 58.3955 109.783C58.2497 110.057 58.04 110.296 57.7666 110.501C57.4932 110.701 57.165 110.859 56.7822 110.973C56.404 111.082 55.9779 111.137 55.5039 111.137C54.8158 111.137 54.2324 111.014 53.7539 110.768C53.2799 110.521 52.9199 110.209 52.6738 109.831C52.4323 109.448 52.3115 109.056 52.3115 108.655H54.1777C54.1868 108.924 54.2552 109.141 54.3828 109.305C54.515 109.469 54.6813 109.587 54.8818 109.66C55.0869 109.733 55.3079 109.77 55.5449 109.77C55.8001 109.77 56.012 109.735 56.1807 109.667C56.3493 109.594 56.4769 109.498 56.5635 109.38C56.6546 109.257 56.7002 109.116 56.7002 108.956ZM63.8848 109.332V106.037C63.8848 105.8 63.846 105.597 63.7686 105.429C63.6911 105.256 63.5703 105.121 63.4062 105.025C63.2467 104.93 63.0394 104.882 62.7842 104.882C62.5654 104.882 62.3763 104.921 62.2168 104.998C62.0573 105.071 61.9342 105.178 61.8477 105.319C61.7611 105.456 61.7178 105.618 61.7178 105.805H59.749C59.749 105.49 59.8219 105.192 59.9678 104.909C60.1136 104.627 60.3255 104.378 60.6035 104.164C60.8815 103.945 61.2119 103.774 61.5947 103.651C61.9821 103.528 62.415 103.467 62.8936 103.467C63.4678 103.467 63.9782 103.562 64.4248 103.754C64.8714 103.945 65.2223 104.232 65.4775 104.615C65.7373 104.998 65.8672 105.477 65.8672 106.051V109.216C65.8672 109.621 65.8923 109.954 65.9424 110.214C65.9925 110.469 66.0654 110.692 66.1611 110.884V111H64.1719C64.0762 110.799 64.0033 110.549 63.9531 110.248C63.9076 109.943 63.8848 109.637 63.8848 109.332ZM64.1445 106.495L64.1582 107.609H63.0576C62.7979 107.609 62.5723 107.639 62.3809 107.698C62.1895 107.757 62.0322 107.842 61.9092 107.951C61.7861 108.056 61.695 108.179 61.6357 108.32C61.5811 108.462 61.5537 108.617 61.5537 108.785C61.5537 108.954 61.5924 109.106 61.6699 109.243C61.7474 109.375 61.859 109.48 62.0049 109.558C62.1507 109.631 62.3216 109.667 62.5176 109.667C62.8138 109.667 63.0713 109.608 63.29 109.489C63.5088 109.371 63.6774 109.225 63.7959 109.052C63.9189 108.879 63.9827 108.715 63.9873 108.56L64.5068 109.394C64.4339 109.58 64.3337 109.774 64.2061 109.975C64.083 110.175 63.9258 110.364 63.7344 110.542C63.543 110.715 63.3128 110.859 63.0439 110.973C62.7751 111.082 62.4561 111.137 62.0869 111.137C61.6175 111.137 61.1914 111.043 60.8086 110.856C60.4303 110.665 60.1296 110.403 59.9062 110.07C59.6875 109.733 59.5781 109.35 59.5781 108.922C59.5781 108.535 59.651 108.19 59.7969 107.89C59.9427 107.589 60.1569 107.336 60.4395 107.131C60.7266 106.921 61.0843 106.764 61.5127 106.659C61.9411 106.55 62.4378 106.495 63.0029 106.495H64.1445ZM71.7598 109.229V103.604H73.7285V111H71.876L71.7598 109.229ZM71.9785 107.712L72.5596 107.698C72.5596 108.19 72.5026 108.648 72.3887 109.072C72.2747 109.492 72.1038 109.856 71.876 110.166C71.6481 110.471 71.361 110.711 71.0146 110.884C70.6683 111.052 70.2604 111.137 69.791 111.137C69.431 111.137 69.0983 111.087 68.793 110.986C68.4922 110.882 68.2324 110.72 68.0137 110.501C67.7995 110.278 67.6309 109.993 67.5078 109.646C67.3893 109.296 67.3301 108.874 67.3301 108.382V103.604H69.2988V108.396C69.2988 108.614 69.3239 108.799 69.374 108.949C69.4287 109.1 69.5039 109.223 69.5996 109.318C69.6953 109.414 69.807 109.482 69.9346 109.523C70.0667 109.564 70.2126 109.585 70.3721 109.585C70.7777 109.585 71.0967 109.503 71.3291 109.339C71.5661 109.175 71.7324 108.951 71.8281 108.669C71.9284 108.382 71.9785 108.063 71.9785 107.712ZM77.1602 105.183V111H75.1914V103.604H77.0371L77.1602 105.183ZM76.873 107.042H76.3398C76.3398 106.495 76.4105 106.003 76.5518 105.565C76.693 105.123 76.8913 104.747 77.1465 104.438C77.4017 104.123 77.7048 103.884 78.0557 103.72C78.4111 103.551 78.8076 103.467 79.2451 103.467C79.5915 103.467 79.9082 103.517 80.1953 103.617C80.4824 103.717 80.7285 103.877 80.9336 104.096C81.1432 104.314 81.3027 104.604 81.4121 104.964C81.526 105.324 81.583 105.764 81.583 106.283V111H79.6006V106.276C79.6006 105.948 79.555 105.693 79.4639 105.511C79.3727 105.328 79.2383 105.201 79.0605 105.128C78.8874 105.05 78.6732 105.012 78.418 105.012C78.1536 105.012 77.9235 105.064 77.7275 105.169C77.5361 105.274 77.3766 105.42 77.249 105.606C77.126 105.789 77.0326 106.003 76.9688 106.249C76.9049 106.495 76.873 106.759 76.873 107.042ZM82.7656 107.377V107.233C82.7656 106.691 82.8431 106.192 82.998 105.736C83.153 105.276 83.3786 104.877 83.6748 104.54C83.971 104.203 84.3356 103.941 84.7686 103.754C85.2015 103.562 85.6982 103.467 86.2588 103.467C86.8193 103.467 87.3184 103.562 87.7559 103.754C88.1934 103.941 88.5602 104.203 88.8564 104.54C89.1572 104.877 89.3851 105.276 89.54 105.736C89.695 106.192 89.7725 106.691 89.7725 107.233V107.377C89.7725 107.915 89.695 108.414 89.54 108.874C89.3851 109.33 89.1572 109.729 88.8564 110.07C88.5602 110.408 88.1956 110.67 87.7627 110.856C87.3298 111.043 86.833 111.137 86.2725 111.137C85.7119 111.137 85.2129 111.043 84.7754 110.856C84.3424 110.67 83.9756 110.408 83.6748 110.07C83.3786 109.729 83.153 109.33 82.998 108.874C82.8431 108.414 82.7656 107.915 82.7656 107.377ZM84.7344 107.233V107.377C84.7344 107.687 84.7617 107.976 84.8164 108.245C84.8711 108.514 84.9577 108.751 85.0762 108.956C85.1992 109.157 85.3587 109.314 85.5547 109.428C85.7507 109.542 85.9899 109.599 86.2725 109.599C86.5459 109.599 86.7806 109.542 86.9766 109.428C87.1725 109.314 87.3298 109.157 87.4482 108.956C87.5667 108.751 87.6533 108.514 87.708 108.245C87.7673 107.976 87.7969 107.687 87.7969 107.377V107.233C87.7969 106.933 87.7673 106.65 87.708 106.386C87.6533 106.117 87.5645 105.88 87.4414 105.675C87.3229 105.465 87.1657 105.301 86.9697 105.183C86.7738 105.064 86.5368 105.005 86.2588 105.005C85.9808 105.005 85.7438 105.064 85.5479 105.183C85.3564 105.301 85.1992 105.465 85.0762 105.675C84.9577 105.88 84.8711 106.117 84.8164 106.386C84.7617 106.65 84.7344 106.933 84.7344 107.233ZM95.3574 109.229V103.604H97.3262V111H95.4736L95.3574 109.229ZM95.5762 107.712L96.1572 107.698C96.1572 108.19 96.1003 108.648 95.9863 109.072C95.8724 109.492 95.7015 109.856 95.4736 110.166C95.2458 110.471 94.9587 110.711 94.6123 110.884C94.266 111.052 93.8581 111.137 93.3887 111.137C93.0286 111.137 92.696 111.087 92.3906 110.986C92.0898 110.882 91.8301 110.72 91.6113 110.501C91.3971 110.278 91.2285 109.993 91.1055 109.646C90.987 109.296 90.9277 108.874 90.9277 108.382V103.604H92.8965V108.396C92.8965 108.614 92.9215 108.799 92.9717 108.949C93.0264 109.1 93.1016 109.223 93.1973 109.318C93.293 109.414 93.4046 109.482 93.5322 109.523C93.6644 109.564 93.8102 109.585 93.9697 109.585C94.3753 109.585 94.6943 109.503 94.9268 109.339C95.1637 109.175 95.3301 108.951 95.4258 108.669C95.526 108.382 95.5762 108.063 95.5762 107.712Z" fill="#050706"/>
<path d="M61.8875 25.4125C66.1 28 69.75 31.425 72.6125 35.475C73.4875 36.7125 74.2875 38.0125 75 39.35C75.7125 38 76.5125 36.7125 77.3875 35.475C80.25 31.425 83.9 28 88.1125 25.4125C93.7 21.975 100.263 20 107.25 20H108.488C109.875 20 111 21.125 111 22.5125C111 41.0125 96.0125 56 77.5125 56H75H72.4875C53.9875 56 39 41.0125 39 22.5125C39 21.125 40.125 20 41.5125 20H42.75C49.7375 20 56.3 21.975 61.8875 25.4125ZM76.6875 0.7C78.65 2.8125 84.325 9.675 87.2375 21.275C82.4875 23.975 78.3125 27.625 75 31.975C71.6875 27.625 67.5125 23.9875 62.7625 21.275C65.6625 9.675 71.3375 2.8125 73.3125 0.7C73.75 0.2375 74.3625 0 75 0C75.6375 0 76.25 0.2375 76.6875 0.7Z" fill="#7A9D8C"/>
</svg>
