<svg width="166" height="113" viewBox="0 0 166 113" fill="none" xmlns="http://www.w3.org/2000/svg">
<path d="M20.793 83.9219L23.1377 76.0469H25.4209L21.9551 86H20.4512L20.793 83.9219ZM18.6328 76.0469L20.9707 83.9219L21.3262 86H19.8086L16.3633 76.0469H18.6328ZM29.3311 86.1367C28.7568 86.1367 28.2419 86.0456 27.7861 85.8633C27.3304 85.6764 26.943 85.4189 26.624 85.0908C26.3096 84.7627 26.068 84.3822 25.8994 83.9492C25.7308 83.5117 25.6465 83.0469 25.6465 82.5547V82.2812C25.6465 81.7207 25.7262 81.208 25.8857 80.7432C26.0452 80.2783 26.2731 79.875 26.5693 79.5332C26.8701 79.1914 27.2347 78.9294 27.6631 78.7471C28.0915 78.5602 28.5745 78.4668 29.1123 78.4668C29.6364 78.4668 30.1012 78.5534 30.5068 78.7266C30.9124 78.8997 31.252 79.1458 31.5254 79.4648C31.8034 79.7839 32.013 80.1667 32.1543 80.6133C32.2956 81.0553 32.3662 81.5475 32.3662 82.0898V82.9102H26.4873V81.5977H30.4316V81.4473C30.4316 81.1738 30.3815 80.93 30.2812 80.7158C30.1855 80.4971 30.0397 80.3239 29.8438 80.1963C29.6478 80.0687 29.3971 80.0049 29.0918 80.0049C28.832 80.0049 28.6087 80.0618 28.4219 80.1758C28.235 80.2897 28.0824 80.4492 27.9639 80.6543C27.8499 80.8594 27.7633 81.1009 27.7041 81.3789C27.6494 81.6523 27.6221 81.9531 27.6221 82.2812V82.5547C27.6221 82.8509 27.6631 83.1243 27.7451 83.375C27.8317 83.6257 27.9525 83.8421 28.1074 84.0244C28.2669 84.2067 28.4583 84.348 28.6816 84.4482C28.9095 84.5485 29.167 84.5986 29.4541 84.5986C29.8096 84.5986 30.14 84.5303 30.4453 84.3936C30.7552 84.2523 31.0218 84.0404 31.2451 83.7578L32.2021 84.7969C32.0472 85.0202 31.8353 85.2344 31.5664 85.4395C31.3021 85.6445 30.9831 85.8132 30.6094 85.9453C30.2357 86.0729 29.8096 86.1367 29.3311 86.1367ZM35.415 80.1826V86H33.4463V78.6035H35.292L35.415 80.1826ZM35.1279 82.042H34.5947C34.5947 81.4951 34.6654 81.0029 34.8066 80.5654C34.9479 80.1234 35.1462 79.7474 35.4014 79.4375C35.6566 79.123 35.9596 78.8838 36.3105 78.7197C36.666 78.5511 37.0625 78.4668 37.5 78.4668C37.8464 78.4668 38.1631 78.5169 38.4502 78.6172C38.7373 78.7174 38.9834 78.877 39.1885 79.0957C39.3981 79.3145 39.5576 79.6038 39.667 79.9639C39.7809 80.3239 39.8379 80.7637 39.8379 81.2832V86H37.8555V81.2764C37.8555 80.9482 37.8099 80.693 37.7188 80.5107C37.6276 80.3285 37.4932 80.2008 37.3154 80.1279C37.1423 80.0505 36.9281 80.0117 36.6729 80.0117C36.4085 80.0117 36.1784 80.0641 35.9824 80.1689C35.791 80.2738 35.6315 80.4196 35.5039 80.6064C35.3809 80.7887 35.2874 81.0029 35.2236 81.249C35.1598 81.4951 35.1279 81.7594 35.1279 82.042ZM43.3037 75.4932V86H41.335V75.4932H43.3037ZM47.9658 78.6035L44.7529 82.2676L43.0303 84.0107L42.3125 82.5889L43.6797 80.8525L45.6006 78.6035H47.9658ZM45.9219 86L43.7344 82.582L45.0947 81.3926L48.1914 86H45.9219ZM48.499 82.377V82.2334C48.499 81.6911 48.5765 81.1921 48.7314 80.7363C48.8864 80.276 49.112 79.8773 49.4082 79.54C49.7044 79.2028 50.069 78.9408 50.502 78.7539C50.9349 78.5625 51.4316 78.4668 51.9922 78.4668C52.5527 78.4668 53.0518 78.5625 53.4893 78.7539C53.9268 78.9408 54.2936 79.2028 54.5898 79.54C54.8906 79.8773 55.1185 80.276 55.2734 80.7363C55.4284 81.1921 55.5059 81.6911 55.5059 82.2334V82.377C55.5059 82.9147 55.4284 83.4137 55.2734 83.874C55.1185 84.3298 54.8906 84.7285 54.5898 85.0703C54.2936 85.4076 53.929 85.6696 53.4961 85.8564C53.0632 86.0433 52.5664 86.1367 52.0059 86.1367C51.4453 86.1367 50.9463 86.0433 50.5088 85.8564C50.0758 85.6696 49.709 85.4076 49.4082 85.0703C49.112 84.7285 48.8864 84.3298 48.7314 83.874C48.5765 83.4137 48.499 82.9147 48.499 82.377ZM50.4678 82.2334V82.377C50.4678 82.6868 50.4951 82.9762 50.5498 83.2451C50.6045 83.514 50.6911 83.751 50.8096 83.9561C50.9326 84.1566 51.0921 84.3138 51.2881 84.4277C51.484 84.5417 51.7233 84.5986 52.0059 84.5986C52.2793 84.5986 52.514 84.5417 52.71 84.4277C52.9059 84.3138 53.0632 84.1566 53.1816 83.9561C53.3001 83.751 53.3867 83.514 53.4414 83.2451C53.5007 82.9762 53.5303 82.6868 53.5303 82.377V82.2334C53.5303 81.9326 53.5007 81.6501 53.4414 81.3857C53.3867 81.1169 53.2979 80.8799 53.1748 80.6748C53.0563 80.4652 52.8991 80.3011 52.7031 80.1826C52.5072 80.0641 52.2702 80.0049 51.9922 80.0049C51.7142 80.0049 51.4772 80.0641 51.2812 80.1826C51.0898 80.3011 50.9326 80.4652 50.8096 80.6748C50.6911 80.8799 50.6045 81.1169 50.5498 81.3857C50.4951 81.6501 50.4678 81.9326 50.4678 82.2334ZM59.1221 84.5645L60.7627 78.6035H62.8203L60.3252 86H59.0811L59.1221 84.5645ZM57.9941 78.6035L59.6416 84.5713L59.6758 86H58.4248L55.9297 78.6035H57.9941ZM65.6299 80.1826V86H63.6611V78.6035H65.5068L65.6299 80.1826ZM65.3428 82.042H64.8096C64.8096 81.4951 64.8802 81.0029 65.0215 80.5654C65.1628 80.1234 65.361 79.7474 65.6162 79.4375C65.8714 79.123 66.1745 78.8838 66.5254 78.7197C66.8809 78.5511 67.2773 78.4668 67.7148 78.4668C68.0612 78.4668 68.3779 78.5169 68.665 78.6172C68.9521 78.7174 69.1982 78.877 69.4033 79.0957C69.613 79.3145 69.7725 79.6038 69.8818 79.9639C69.9958 80.3239 70.0527 80.7637 70.0527 81.2832V86H68.0703V81.2764C68.0703 80.9482 68.0247 80.693 67.9336 80.5107C67.8424 80.3285 67.708 80.2008 67.5303 80.1279C67.3571 80.0505 67.1429 80.0117 66.8877 80.0117C66.6234 80.0117 66.3932 80.0641 66.1973 80.1689C66.0059 80.2738 65.8464 80.4196 65.7188 80.6064C65.5957 80.7887 65.5023 81.0029 65.4385 81.249C65.3747 81.4951 65.3428 81.7594 65.3428 82.042ZM73.6758 78.6035V86H71.7002V78.6035H73.6758ZM71.7617 77.708L73.1016 75.6025H75.2412L73.3613 77.708H71.7617ZM80.833 80.0254V88.8438H78.8643V78.6035H80.6895L80.833 80.0254ZM85.5156 82.2197V82.3633C85.5156 82.901 85.4518 83.4001 85.3242 83.8604C85.2012 84.3206 85.0189 84.7217 84.7773 85.0635C84.5358 85.4007 84.235 85.665 83.875 85.8564C83.5195 86.0433 83.1094 86.1367 82.6445 86.1367C82.1934 86.1367 81.8014 86.0456 81.4688 85.8633C81.1361 85.681 80.8558 85.4258 80.6279 85.0977C80.4046 84.765 80.2246 84.3799 80.0879 83.9424C79.9512 83.5049 79.8464 83.0355 79.7734 82.5342V82.1582C79.8464 81.6204 79.9512 81.1283 80.0879 80.6816C80.2246 80.2305 80.4046 79.8408 80.6279 79.5127C80.8558 79.18 81.1338 78.9225 81.4619 78.7402C81.7946 78.5579 82.1842 78.4668 82.6309 78.4668C83.1003 78.4668 83.5127 78.5557 83.8682 78.7334C84.2282 78.9111 84.529 79.1663 84.7705 79.499C85.0166 79.8317 85.2012 80.2282 85.3242 80.6885C85.4518 81.1488 85.5156 81.6592 85.5156 82.2197ZM83.54 82.3633V82.2197C83.54 81.9053 83.5127 81.6159 83.458 81.3516C83.4079 81.0827 83.3258 80.848 83.2119 80.6475C83.1025 80.4469 82.9567 80.292 82.7744 80.1826C82.5967 80.0687 82.3802 80.0117 82.125 80.0117C81.8561 80.0117 81.626 80.055 81.4346 80.1416C81.2477 80.2282 81.0951 80.3535 80.9766 80.5176C80.8581 80.6816 80.7692 80.8776 80.71 81.1055C80.6507 81.3333 80.6143 81.5908 80.6006 81.8779V82.8281C80.6234 83.1654 80.6872 83.4684 80.792 83.7373C80.8968 84.0016 81.0586 84.2113 81.2773 84.3662C81.4961 84.5212 81.7832 84.5986 82.1387 84.5986C82.3984 84.5986 82.6172 84.5417 82.7949 84.4277C82.9727 84.3092 83.1162 84.1475 83.2256 83.9424C83.3395 83.7373 83.4193 83.5003 83.4648 83.2314C83.515 82.9626 83.54 82.6732 83.54 82.3633ZM86.4248 82.377V82.2334C86.4248 81.6911 86.5023 81.1921 86.6572 80.7363C86.8122 80.276 87.0378 79.8773 87.334 79.54C87.6302 79.2028 87.9948 78.9408 88.4277 78.7539C88.8607 78.5625 89.3574 78.4668 89.918 78.4668C90.4785 78.4668 90.9775 78.5625 91.415 78.7539C91.8525 78.9408 92.2194 79.2028 92.5156 79.54C92.8164 79.8773 93.0443 80.276 93.1992 80.7363C93.3542 81.1921 93.4316 81.6911 93.4316 82.2334V82.377C93.4316 82.9147 93.3542 83.4137 93.1992 83.874C93.0443 84.3298 92.8164 84.7285 92.5156 85.0703C92.2194 85.4076 91.8548 85.6696 91.4219 85.8564C90.9889 86.0433 90.4922 86.1367 89.9316 86.1367C89.3711 86.1367 88.8721 86.0433 88.4346 85.8564C88.0016 85.6696 87.6348 85.4076 87.334 85.0703C87.0378 84.7285 86.8122 84.3298 86.6572 83.874C86.5023 83.4137 86.4248 82.9147 86.4248 82.377ZM88.3936 82.2334V82.377C88.3936 82.6868 88.4209 82.9762 88.4756 83.2451C88.5303 83.514 88.6169 83.751 88.7354 83.9561C88.8584 84.1566 89.0179 84.3138 89.2139 84.4277C89.4098 84.5417 89.6491 84.5986 89.9316 84.5986C90.2051 84.5986 90.4398 84.5417 90.6357 84.4277C90.8317 84.3138 90.9889 84.1566 91.1074 83.9561C91.2259 83.751 91.3125 83.514 91.3672 83.2451C91.4264 82.9762 91.4561 82.6868 91.4561 82.377V82.2334C91.4561 81.9326 91.4264 81.6501 91.3672 81.3857C91.3125 81.1169 91.2236 80.8799 91.1006 80.6748C90.9821 80.4652 90.8249 80.3011 90.6289 80.1826C90.4329 80.0641 90.196 80.0049 89.918 80.0049C89.64 80.0049 89.403 80.0641 89.207 80.1826C89.0156 80.3011 88.8584 80.4652 88.7354 80.6748C88.6169 80.8799 88.5303 81.1169 88.4756 81.3857C88.4209 81.6501 88.3936 81.9326 88.3936 82.2334ZM98.6406 83.9561C98.6406 83.8148 98.5996 83.6872 98.5176 83.5732C98.4355 83.4593 98.2829 83.3545 98.0596 83.2588C97.8408 83.1585 97.5241 83.0674 97.1094 82.9854C96.7357 82.9033 96.387 82.8008 96.0635 82.6777C95.7445 82.5501 95.4665 82.3975 95.2295 82.2197C94.9971 82.042 94.8148 81.8324 94.6826 81.5908C94.5505 81.3447 94.4844 81.0645 94.4844 80.75C94.4844 80.4401 94.5505 80.1484 94.6826 79.875C94.8193 79.6016 95.013 79.36 95.2637 79.1504C95.5189 78.9362 95.8288 78.7699 96.1934 78.6514C96.5625 78.5283 96.9772 78.4668 97.4375 78.4668C98.0801 78.4668 98.6315 78.5693 99.0918 78.7744C99.5566 78.9795 99.9121 79.262 100.158 79.6221C100.409 79.9775 100.534 80.3831 100.534 80.8389H98.5654C98.5654 80.6475 98.5244 80.4766 98.4424 80.3262C98.3649 80.1712 98.2419 80.0505 98.0732 79.9639C97.9092 79.8727 97.695 79.8271 97.4307 79.8271C97.2119 79.8271 97.0228 79.8659 96.8633 79.9434C96.7038 80.0163 96.5807 80.1165 96.4941 80.2441C96.4121 80.3672 96.3711 80.5039 96.3711 80.6543C96.3711 80.7682 96.3939 80.8708 96.4395 80.9619C96.4896 81.0485 96.5693 81.1283 96.6787 81.2012C96.7881 81.2741 96.9294 81.3424 97.1025 81.4062C97.2803 81.4655 97.499 81.5202 97.7588 81.5703C98.292 81.6797 98.7682 81.8232 99.1875 82.001C99.6068 82.1742 99.9395 82.4111 100.186 82.7119C100.432 83.0081 100.555 83.3978 100.555 83.8809C100.555 84.209 100.482 84.5098 100.336 84.7832C100.19 85.0566 99.9805 85.2959 99.707 85.501C99.4336 85.7015 99.1055 85.8587 98.7227 85.9727C98.3444 86.082 97.9183 86.1367 97.4443 86.1367C96.7562 86.1367 96.1729 86.0137 95.6943 85.7676C95.2204 85.5215 94.8604 85.2093 94.6143 84.8311C94.3727 84.4482 94.252 84.0563 94.252 83.6553H96.1182C96.1273 83.9242 96.1956 84.1406 96.3232 84.3047C96.4554 84.4688 96.6217 84.5872 96.8223 84.6602C97.0273 84.7331 97.2484 84.7695 97.4854 84.7695C97.7406 84.7695 97.9525 84.7354 98.1211 84.667C98.2897 84.5941 98.4173 84.4984 98.5039 84.3799C98.5951 84.2568 98.6406 84.1156 98.6406 83.9561ZM103.911 78.6035V86H101.936V78.6035H103.911ZM101.812 76.6758C101.812 76.3887 101.913 76.1517 102.113 75.9648C102.314 75.778 102.583 75.6846 102.92 75.6846C103.253 75.6846 103.519 75.778 103.72 75.9648C103.925 76.1517 104.027 76.3887 104.027 76.6758C104.027 76.9629 103.925 77.1999 103.72 77.3867C103.519 77.5736 103.253 77.667 102.92 77.667C102.583 77.667 102.314 77.5736 102.113 77.3867C101.913 77.1999 101.812 76.9629 101.812 76.6758ZM107.616 75.5V86H105.641V75.5H107.616ZM108.929 82.377V82.2334C108.929 81.6911 109.006 81.1921 109.161 80.7363C109.316 80.276 109.542 79.8773 109.838 79.54C110.134 79.2028 110.499 78.9408 110.932 78.7539C111.365 78.5625 111.861 78.4668 112.422 78.4668C112.982 78.4668 113.481 78.5625 113.919 78.7539C114.356 78.9408 114.723 79.2028 115.02 79.54C115.32 79.8773 115.548 80.276 115.703 80.7363C115.858 81.1921 115.936 81.6911 115.936 82.2334V82.377C115.936 82.9147 115.858 83.4137 115.703 83.874C115.548 84.3298 115.32 84.7285 115.02 85.0703C114.723 85.4076 114.359 85.6696 113.926 85.8564C113.493 86.0433 112.996 86.1367 112.436 86.1367C111.875 86.1367 111.376 86.0433 110.938 85.8564C110.506 85.6696 110.139 85.4076 109.838 85.0703C109.542 84.7285 109.316 84.3298 109.161 83.874C109.006 83.4137 108.929 82.9147 108.929 82.377ZM110.897 82.2334V82.377C110.897 82.6868 110.925 82.9762 110.979 83.2451C111.034 83.514 111.121 83.751 111.239 83.9561C111.362 84.1566 111.522 84.3138 111.718 84.4277C111.914 84.5417 112.153 84.5986 112.436 84.5986C112.709 84.5986 112.944 84.5417 113.14 84.4277C113.336 84.3138 113.493 84.1566 113.611 83.9561C113.73 83.751 113.816 83.514 113.871 83.2451C113.93 82.9762 113.96 82.6868 113.96 82.377V82.2334C113.96 81.9326 113.93 81.6501 113.871 81.3857C113.816 81.1169 113.728 80.8799 113.604 80.6748C113.486 80.4652 113.329 80.3011 113.133 80.1826C112.937 80.0641 112.7 80.0049 112.422 80.0049C112.144 80.0049 111.907 80.0641 111.711 80.1826C111.52 80.3011 111.362 80.4652 111.239 80.6748C111.121 80.8799 111.034 81.1169 110.979 81.3857C110.925 81.6501 110.897 81.9326 110.897 82.2334ZM119.552 84.5645L121.192 78.6035H123.25L120.755 86H119.511L119.552 84.5645ZM118.424 78.6035L120.071 84.5713L120.105 86H118.854L116.359 78.6035H118.424ZM126.06 80.1826V86H124.091V78.6035H125.937L126.06 80.1826ZM125.772 82.042H125.239C125.239 81.4951 125.31 81.0029 125.451 80.5654C125.592 80.1234 125.791 79.7474 126.046 79.4375C126.301 79.123 126.604 78.8838 126.955 78.7197C127.311 78.5511 127.707 78.4668 128.145 78.4668C128.491 78.4668 128.808 78.5169 129.095 78.6172C129.382 78.7174 129.628 78.877 129.833 79.0957C130.043 79.3145 130.202 79.6038 130.312 79.9639C130.425 80.3239 130.482 80.7637 130.482 81.2832V86H128.5V81.2764C128.5 80.9482 128.454 80.693 128.363 80.5107C128.272 80.3285 128.138 80.2008 127.96 80.1279C127.787 80.0505 127.573 80.0117 127.317 80.0117C127.053 80.0117 126.823 80.0641 126.627 80.1689C126.436 80.2738 126.276 80.4196 126.148 80.6064C126.025 80.7887 125.932 81.0029 125.868 81.249C125.804 81.4951 125.772 81.7594 125.772 82.042ZM135.972 84.332V81.0371C135.972 80.8001 135.933 80.5973 135.855 80.4287C135.778 80.2555 135.657 80.1211 135.493 80.0254C135.334 79.9297 135.126 79.8818 134.871 79.8818C134.652 79.8818 134.463 79.9206 134.304 79.998C134.144 80.071 134.021 80.1781 133.935 80.3193C133.848 80.4561 133.805 80.6178 133.805 80.8047H131.836C131.836 80.4902 131.909 80.1917 132.055 79.9092C132.201 79.6266 132.412 79.3783 132.69 79.1641C132.968 78.9453 133.299 78.7744 133.682 78.6514C134.069 78.5283 134.502 78.4668 134.98 78.4668C135.555 78.4668 136.065 78.5625 136.512 78.7539C136.958 78.9453 137.309 79.2324 137.564 79.6152C137.824 79.998 137.954 80.4766 137.954 81.0508V84.2158C137.954 84.6214 137.979 84.9541 138.029 85.2139C138.079 85.4691 138.152 85.6924 138.248 85.8838V86H136.259C136.163 85.7995 136.09 85.5488 136.04 85.248C135.994 84.9427 135.972 84.6374 135.972 84.332ZM136.231 81.4951L136.245 82.6094H135.145C134.885 82.6094 134.659 82.639 134.468 82.6982C134.276 82.7575 134.119 82.8418 133.996 82.9512C133.873 83.056 133.782 83.179 133.723 83.3203C133.668 83.4616 133.641 83.6165 133.641 83.7852C133.641 83.9538 133.679 84.1064 133.757 84.2432C133.834 84.3753 133.946 84.4801 134.092 84.5576C134.238 84.6305 134.409 84.667 134.604 84.667C134.901 84.667 135.158 84.6077 135.377 84.4893C135.596 84.3708 135.764 84.2249 135.883 84.0518C136.006 83.8786 136.07 83.7145 136.074 83.5596L136.594 84.3936C136.521 84.5804 136.421 84.7741 136.293 84.9746C136.17 85.1751 136.013 85.3643 135.821 85.542C135.63 85.7152 135.4 85.8587 135.131 85.9727C134.862 86.082 134.543 86.1367 134.174 86.1367C133.704 86.1367 133.278 86.0433 132.896 85.8564C132.517 85.665 132.216 85.403 131.993 85.0703C131.774 84.7331 131.665 84.3503 131.665 83.9219C131.665 83.5345 131.738 83.1904 131.884 82.8896C132.03 82.5889 132.244 82.3359 132.526 82.1309C132.813 81.9212 133.171 81.764 133.6 81.6592C134.028 81.5498 134.525 81.4951 135.09 81.4951H136.231ZM146.95 84.332V81.0371C146.95 80.8001 146.911 80.5973 146.834 80.4287C146.757 80.2555 146.636 80.1211 146.472 80.0254C146.312 79.9297 146.105 79.8818 145.85 79.8818C145.631 79.8818 145.442 79.9206 145.282 79.998C145.123 80.071 145 80.1781 144.913 80.3193C144.826 80.4561 144.783 80.6178 144.783 80.8047H142.814C142.814 80.4902 142.887 80.1917 143.033 79.9092C143.179 79.6266 143.391 79.3783 143.669 79.1641C143.947 78.9453 144.277 78.7744 144.66 78.6514C145.048 78.5283 145.48 78.4668 145.959 78.4668C146.533 78.4668 147.044 78.5625 147.49 78.7539C147.937 78.9453 148.288 79.2324 148.543 79.6152C148.803 79.998 148.933 80.4766 148.933 81.0508V84.2158C148.933 84.6214 148.958 84.9541 149.008 85.2139C149.058 85.4691 149.131 85.6924 149.227 85.8838V86H147.237C147.142 85.7995 147.069 85.5488 147.019 85.248C146.973 84.9427 146.95 84.6374 146.95 84.332ZM147.21 81.4951L147.224 82.6094H146.123C145.863 82.6094 145.638 82.639 145.446 82.6982C145.255 82.7575 145.098 82.8418 144.975 82.9512C144.852 83.056 144.76 83.179 144.701 83.3203C144.646 83.4616 144.619 83.6165 144.619 83.7852C144.619 83.9538 144.658 84.1064 144.735 84.2432C144.813 84.3753 144.924 84.4801 145.07 84.5576C145.216 84.6305 145.387 84.667 145.583 84.667C145.879 84.667 146.137 84.6077 146.355 84.4893C146.574 84.3708 146.743 84.2249 146.861 84.0518C146.984 83.8786 147.048 83.7145 147.053 83.5596L147.572 84.3936C147.499 84.5804 147.399 84.7741 147.271 84.9746C147.148 85.1751 146.991 85.3643 146.8 85.542C146.608 85.7152 146.378 85.8587 146.109 85.9727C145.84 86.082 145.521 86.1367 145.152 86.1367C144.683 86.1367 144.257 86.0433 143.874 85.8564C143.496 85.665 143.195 85.403 142.972 85.0703C142.753 84.7331 142.644 84.3503 142.644 83.9219C142.644 83.5345 142.716 83.1904 142.862 82.8896C143.008 82.5889 143.222 82.3359 143.505 82.1309C143.792 81.9212 144.15 81.764 144.578 81.6592C145.007 81.5498 145.503 81.4951 146.068 81.4951H147.21ZM21.415 98.6035V99.998H17.1084V98.6035H21.415ZM18.1748 96.7783H20.1436V103.771C20.1436 103.986 20.1709 104.15 20.2256 104.264C20.2848 104.378 20.3714 104.457 20.4854 104.503C20.5993 104.544 20.7428 104.564 20.916 104.564C21.0391 104.564 21.1484 104.56 21.2441 104.551C21.3444 104.537 21.4287 104.523 21.4971 104.51L21.5039 105.959C21.3353 106.014 21.153 106.057 20.957 106.089C20.7611 106.121 20.5446 106.137 20.3076 106.137C19.8747 106.137 19.4964 106.066 19.1729 105.925C18.8538 105.779 18.6077 105.547 18.4346 105.228C18.2614 104.909 18.1748 104.489 18.1748 103.97V96.7783ZM25.9404 106.137C25.3662 106.137 24.8512 106.046 24.3955 105.863C23.9398 105.676 23.5524 105.419 23.2334 105.091C22.9189 104.763 22.6774 104.382 22.5088 103.949C22.3402 103.512 22.2559 103.047 22.2559 102.555V102.281C22.2559 101.721 22.3356 101.208 22.4951 100.743C22.6546 100.278 22.8825 99.875 23.1787 99.5332C23.4795 99.1914 23.8441 98.9294 24.2725 98.7471C24.7008 98.5602 25.1839 98.4668 25.7217 98.4668C26.2458 98.4668 26.7106 98.5534 27.1162 98.7266C27.5218 98.8997 27.8613 99.1458 28.1348 99.4648C28.4128 99.7839 28.6224 100.167 28.7637 100.613C28.9049 101.055 28.9756 101.548 28.9756 102.09V102.91H23.0967V101.598H27.041V101.447C27.041 101.174 26.9909 100.93 26.8906 100.716C26.7949 100.497 26.6491 100.324 26.4531 100.196C26.2572 100.069 26.0065 100.005 25.7012 100.005C25.4414 100.005 25.2181 100.062 25.0312 100.176C24.8444 100.29 24.6917 100.449 24.5732 100.654C24.4593 100.859 24.3727 101.101 24.3135 101.379C24.2588 101.652 24.2314 101.953 24.2314 102.281V102.555C24.2314 102.851 24.2725 103.124 24.3545 103.375C24.4411 103.626 24.5618 103.842 24.7168 104.024C24.8763 104.207 25.0677 104.348 25.291 104.448C25.5189 104.549 25.7764 104.599 26.0635 104.599C26.4189 104.599 26.7493 104.53 27.0547 104.394C27.3646 104.252 27.6312 104.04 27.8545 103.758L28.8115 104.797C28.6566 105.02 28.4447 105.234 28.1758 105.439C27.9115 105.645 27.5924 105.813 27.2188 105.945C26.8451 106.073 26.4189 106.137 25.9404 106.137ZM24.4775 95.4932L25.4893 96.4844L26.501 95.4932H28.1826V95.5615L26.1182 97.4756H24.8672L22.7959 95.5547V95.4932H24.4775ZM32.1748 95.5V106H30.1992V95.5H32.1748ZM33.4873 102.377V102.233C33.4873 101.691 33.5648 101.192 33.7197 100.736C33.8747 100.276 34.1003 99.8773 34.3965 99.54C34.6927 99.2028 35.0573 98.9408 35.4902 98.7539C35.9232 98.5625 36.4199 98.4668 36.9805 98.4668C37.541 98.4668 38.04 98.5625 38.4775 98.7539C38.915 98.9408 39.2819 99.2028 39.5781 99.54C39.8789 99.8773 40.1068 100.276 40.2617 100.736C40.4167 101.192 40.4941 101.691 40.4941 102.233V102.377C40.4941 102.915 40.4167 103.414 40.2617 103.874C40.1068 104.33 39.8789 104.729 39.5781 105.07C39.2819 105.408 38.9173 105.67 38.4844 105.856C38.0514 106.043 37.5547 106.137 36.9941 106.137C36.4336 106.137 35.9346 106.043 35.4971 105.856C35.0641 105.67 34.6973 105.408 34.3965 105.07C34.1003 104.729 33.8747 104.33 33.7197 103.874C33.5648 103.414 33.4873 102.915 33.4873 102.377ZM35.4561 102.233V102.377C35.4561 102.687 35.4834 102.976 35.5381 103.245C35.5928 103.514 35.6794 103.751 35.7979 103.956C35.9209 104.157 36.0804 104.314 36.2764 104.428C36.4723 104.542 36.7116 104.599 36.9941 104.599C37.2676 104.599 37.5023 104.542 37.6982 104.428C37.8942 104.314 38.0514 104.157 38.1699 103.956C38.2884 103.751 38.375 103.514 38.4297 103.245C38.4889 102.976 38.5186 102.687 38.5186 102.377V102.233C38.5186 101.933 38.4889 101.65 38.4297 101.386C38.375 101.117 38.2861 100.88 38.1631 100.675C38.0446 100.465 37.8874 100.301 37.6914 100.183C37.4954 100.064 37.2585 100.005 36.9805 100.005C36.7025 100.005 36.4655 100.064 36.2695 100.183C36.0781 100.301 35.9209 100.465 35.7979 100.675C35.6794 100.88 35.5928 101.117 35.5381 101.386C35.4834 101.65 35.4561 101.933 35.4561 102.233ZM44.7598 104.599C45.0013 104.599 45.2155 104.553 45.4023 104.462C45.5892 104.366 45.735 104.234 45.8398 104.065C45.9492 103.892 46.0062 103.689 46.0107 103.457H47.8633C47.8587 103.977 47.7197 104.439 47.4463 104.845C47.1729 105.246 46.806 105.562 46.3457 105.795C45.8854 106.023 45.3704 106.137 44.8008 106.137C44.2266 106.137 43.7253 106.041 43.2969 105.85C42.873 105.658 42.5199 105.394 42.2373 105.057C41.9548 104.715 41.7428 104.318 41.6016 103.867C41.4603 103.411 41.3896 102.924 41.3896 102.404V102.206C41.3896 101.682 41.4603 101.194 41.6016 100.743C41.7428 100.287 41.9548 99.891 42.2373 99.5537C42.5199 99.2119 42.873 98.9453 43.2969 98.7539C43.7207 98.5625 44.2174 98.4668 44.7871 98.4668C45.3932 98.4668 45.9242 98.583 46.3799 98.8154C46.8402 99.0479 47.2002 99.3805 47.46 99.8135C47.7243 100.242 47.8587 100.75 47.8633 101.338H46.0107C46.0062 101.092 45.9538 100.868 45.8535 100.668C45.7578 100.467 45.6165 100.308 45.4297 100.189C45.2474 100.066 45.0218 100.005 44.7529 100.005C44.4658 100.005 44.2311 100.066 44.0488 100.189C43.8665 100.308 43.7253 100.472 43.625 100.682C43.5247 100.887 43.4541 101.121 43.4131 101.386C43.3766 101.646 43.3584 101.919 43.3584 102.206V102.404C43.3584 102.691 43.3766 102.967 43.4131 103.231C43.4495 103.496 43.5179 103.73 43.6182 103.936C43.723 104.141 43.8665 104.302 44.0488 104.421C44.2311 104.539 44.4681 104.599 44.7598 104.599ZM51.5205 104.564L53.1611 98.6035H55.2188L52.7236 106H51.4795L51.5205 104.564ZM50.3926 98.6035L52.04 104.571L52.0742 106H50.8232L48.3281 98.6035H50.3926ZM58.1787 98.6035V106H56.2031V98.6035H58.1787ZM56.0801 96.6758C56.0801 96.3887 56.1803 96.1517 56.3809 95.9648C56.5814 95.778 56.8503 95.6846 57.1875 95.6846C57.5202 95.6846 57.7868 95.778 57.9873 95.9648C58.1924 96.1517 58.2949 96.3887 58.2949 96.6758C58.2949 96.9629 58.1924 97.1999 57.9873 97.3867C57.7868 97.5736 57.5202 97.667 57.1875 97.667C56.8503 97.667 56.5814 97.5736 56.3809 97.3867C56.1803 97.1999 56.0801 96.9629 56.0801 96.6758ZM62.8613 104.599C63.1029 104.599 63.3171 104.553 63.5039 104.462C63.6908 104.366 63.8366 104.234 63.9414 104.065C64.0508 103.892 64.1077 103.689 64.1123 103.457H65.9648C65.9603 103.977 65.8213 104.439 65.5479 104.845C65.2744 105.246 64.9076 105.562 64.4473 105.795C63.987 106.023 63.472 106.137 62.9023 106.137C62.3281 106.137 61.8268 106.041 61.3984 105.85C60.9746 105.658 60.6214 105.394 60.3389 105.057C60.0563 104.715 59.8444 104.318 59.7031 103.867C59.5618 103.411 59.4912 102.924 59.4912 102.404V102.206C59.4912 101.682 59.5618 101.194 59.7031 100.743C59.8444 100.287 60.0563 99.891 60.3389 99.5537C60.6214 99.2119 60.9746 98.9453 61.3984 98.7539C61.8223 98.5625 62.319 98.4668 62.8887 98.4668C63.4948 98.4668 64.0257 98.583 64.4814 98.8154C64.9417 99.0479 65.3018 99.3805 65.5615 99.8135C65.8258 100.242 65.9603 100.75 65.9648 101.338H64.1123C64.1077 101.092 64.0553 100.868 63.9551 100.668C63.8594 100.467 63.7181 100.308 63.5312 100.189C63.349 100.066 63.1234 100.005 62.8545 100.005C62.5674 100.005 62.3327 100.066 62.1504 100.189C61.9681 100.308 61.8268 100.472 61.7266 100.682C61.6263 100.887 61.5557 101.121 61.5146 101.386C61.4782 101.646 61.46 101.919 61.46 102.206V102.404C61.46 102.691 61.4782 102.967 61.5146 103.231C61.5511 103.496 61.6195 103.73 61.7197 103.936C61.8245 104.141 61.9681 104.302 62.1504 104.421C62.3327 104.539 62.5697 104.599 62.8613 104.599ZM61.6855 95.5L62.6973 96.4912L63.709 95.5H65.3906V95.5684L63.3262 97.4824H62.0752L60.0039 95.5615V95.5H61.6855ZM69.0342 100.183V106H67.0654V98.6035H68.9111L69.0342 100.183ZM68.7471 102.042H68.2139C68.2139 101.495 68.2845 101.003 68.4258 100.565C68.5671 100.123 68.7653 99.7474 69.0205 99.4375C69.2757 99.123 69.5788 98.8838 69.9297 98.7197C70.2852 98.5511 70.6816 98.4668 71.1191 98.4668C71.4655 98.4668 71.7822 98.5169 72.0693 98.6172C72.3564 98.7174 72.6025 98.877 72.8076 99.0957C73.0173 99.3145 73.1768 99.6038 73.2861 99.9639C73.4001 100.324 73.457 100.764 73.457 101.283V106H71.4746V101.276C71.4746 100.948 71.429 100.693 71.3379 100.511C71.2467 100.328 71.1123 100.201 70.9346 100.128C70.7614 100.05 70.5472 100.012 70.292 100.012C70.0277 100.012 69.7975 100.064 69.6016 100.169C69.4102 100.274 69.2507 100.42 69.123 100.606C69 100.789 68.9066 101.003 68.8428 101.249C68.779 101.495 68.7471 101.759 68.7471 102.042ZM78.9463 104.332V101.037C78.9463 100.8 78.9076 100.597 78.8301 100.429C78.7526 100.256 78.6318 100.121 78.4678 100.025C78.3083 99.9297 78.1009 99.8818 77.8457 99.8818C77.627 99.8818 77.4378 99.9206 77.2783 99.998C77.1188 100.071 76.9958 100.178 76.9092 100.319C76.8226 100.456 76.7793 100.618 76.7793 100.805H74.8105C74.8105 100.49 74.8835 100.192 75.0293 99.9092C75.1751 99.6266 75.387 99.3783 75.665 99.1641C75.943 98.9453 76.2734 98.7744 76.6562 98.6514C77.0436 98.5283 77.4766 98.4668 77.9551 98.4668C78.5293 98.4668 79.0397 98.5625 79.4863 98.7539C79.9329 98.9453 80.2839 99.2324 80.5391 99.6152C80.7988 99.998 80.9287 100.477 80.9287 101.051V104.216C80.9287 104.621 80.9538 104.954 81.0039 105.214C81.054 105.469 81.127 105.692 81.2227 105.884V106H79.2334C79.1377 105.799 79.0648 105.549 79.0146 105.248C78.9691 104.943 78.9463 104.637 78.9463 104.332ZM79.2061 101.495L79.2197 102.609H78.1191C77.8594 102.609 77.6338 102.639 77.4424 102.698C77.251 102.757 77.0938 102.842 76.9707 102.951C76.8477 103.056 76.7565 103.179 76.6973 103.32C76.6426 103.462 76.6152 103.617 76.6152 103.785C76.6152 103.954 76.654 104.106 76.7314 104.243C76.8089 104.375 76.9206 104.48 77.0664 104.558C77.2122 104.631 77.3831 104.667 77.5791 104.667C77.8753 104.667 78.1328 104.608 78.3516 104.489C78.5703 104.371 78.7389 104.225 78.8574 104.052C78.9805 103.879 79.0443 103.715 79.0488 103.56L79.5684 104.394C79.4954 104.58 79.3952 104.774 79.2676 104.975C79.1445 105.175 78.9873 105.364 78.7959 105.542C78.6045 105.715 78.3743 105.859 78.1055 105.973C77.8366 106.082 77.5176 106.137 77.1484 106.137C76.679 106.137 76.2529 106.043 75.8701 105.856C75.4919 105.665 75.1911 105.403 74.9678 105.07C74.749 104.733 74.6396 104.35 74.6396 103.922C74.6396 103.535 74.7126 103.19 74.8584 102.89C75.0042 102.589 75.2184 102.336 75.501 102.131C75.7881 101.921 76.1458 101.764 76.5742 101.659C77.0026 101.55 77.4993 101.495 78.0645 101.495H79.2061ZM88.4482 104.564L90.0889 98.6035H92.1465L89.6514 106H88.4072L88.4482 104.564ZM87.3203 98.6035L88.9678 104.571L89.002 106H87.751L85.2559 98.6035H87.3203ZM98.5928 98.6035V106H96.6172V98.6035H98.5928ZM96.4941 96.6758C96.4941 96.3887 96.5944 96.1517 96.7949 95.9648C96.9954 95.778 97.2643 95.6846 97.6016 95.6846C97.9342 95.6846 98.2008 95.778 98.4014 95.9648C98.6064 96.1517 98.709 96.3887 98.709 96.6758C98.709 96.9629 98.6064 97.1999 98.4014 97.3867C98.2008 97.5736 97.9342 97.667 97.6016 97.667C97.2643 97.667 96.9954 97.5736 96.7949 97.3867C96.5944 97.1999 96.4941 96.9629 96.4941 96.6758ZM102.147 100.183V106H100.179V98.6035H102.024L102.147 100.183ZM101.86 102.042H101.327C101.327 101.495 101.398 101.003 101.539 100.565C101.68 100.123 101.879 99.7474 102.134 99.4375C102.389 99.123 102.692 98.8838 103.043 98.7197C103.398 98.5511 103.795 98.4668 104.232 98.4668C104.579 98.4668 104.896 98.5169 105.183 98.6172C105.47 98.7174 105.716 98.877 105.921 99.0957C106.131 99.3145 106.29 99.6038 106.399 99.9639C106.513 100.324 106.57 100.764 106.57 101.283V106H104.588V101.276C104.588 100.948 104.542 100.693 104.451 100.511C104.36 100.328 104.226 100.201 104.048 100.128C103.875 100.05 103.66 100.012 103.405 100.012C103.141 100.012 102.911 100.064 102.715 100.169C102.523 100.274 102.364 100.42 102.236 100.606C102.113 100.789 102.02 101.003 101.956 101.249C101.892 101.495 101.86 101.759 101.86 102.042ZM111.69 98.6035V99.998H107.384V98.6035H111.69ZM108.45 96.7783H110.419V103.771C110.419 103.986 110.446 104.15 110.501 104.264C110.56 104.378 110.647 104.457 110.761 104.503C110.875 104.544 111.018 104.564 111.191 104.564C111.314 104.564 111.424 104.56 111.52 104.551C111.62 104.537 111.704 104.523 111.772 104.51L111.779 105.959C111.611 106.014 111.428 106.057 111.232 106.089C111.036 106.121 110.82 106.137 110.583 106.137C110.15 106.137 109.772 106.066 109.448 105.925C109.129 105.779 108.883 105.547 108.71 105.228C108.537 104.909 108.45 104.489 108.45 103.97V96.7783ZM116.216 106.137C115.642 106.137 115.127 106.046 114.671 105.863C114.215 105.676 113.828 105.419 113.509 105.091C113.194 104.763 112.953 104.382 112.784 103.949C112.616 103.512 112.531 103.047 112.531 102.555V102.281C112.531 101.721 112.611 101.208 112.771 100.743C112.93 100.278 113.158 99.875 113.454 99.5332C113.755 99.1914 114.119 98.9294 114.548 98.7471C114.976 98.5602 115.459 98.4668 115.997 98.4668C116.521 98.4668 116.986 98.5534 117.392 98.7266C117.797 98.8997 118.137 99.1458 118.41 99.4648C118.688 99.7839 118.898 100.167 119.039 100.613C119.18 101.055 119.251 101.548 119.251 102.09V102.91H113.372V101.598H117.316V101.447C117.316 101.174 117.266 100.93 117.166 100.716C117.07 100.497 116.924 100.324 116.729 100.196C116.533 100.069 116.282 100.005 115.977 100.005C115.717 100.005 115.493 100.062 115.307 100.176C115.12 100.29 114.967 100.449 114.849 100.654C114.735 100.859 114.648 101.101 114.589 101.379C114.534 101.652 114.507 101.953 114.507 102.281V102.555C114.507 102.851 114.548 103.124 114.63 103.375C114.716 103.626 114.837 103.842 114.992 104.024C115.152 104.207 115.343 104.348 115.566 104.448C115.794 104.549 116.052 104.599 116.339 104.599C116.694 104.599 117.025 104.53 117.33 104.394C117.64 104.252 117.907 104.04 118.13 103.758L119.087 104.797C118.932 105.02 118.72 105.234 118.451 105.439C118.187 105.645 117.868 105.813 117.494 105.945C117.12 106.073 116.694 106.137 116.216 106.137ZM122.341 100.217V106H120.372V98.6035H122.225L122.341 100.217ZM124.569 98.5557L124.535 100.381C124.439 100.367 124.323 100.356 124.187 100.347C124.054 100.333 123.934 100.326 123.824 100.326C123.546 100.326 123.305 100.363 123.1 100.436C122.899 100.504 122.73 100.606 122.594 100.743C122.462 100.88 122.361 101.046 122.293 101.242C122.229 101.438 122.193 101.661 122.184 101.912L121.787 101.789C121.787 101.311 121.835 100.871 121.931 100.47C122.026 100.064 122.165 99.7109 122.348 99.4102C122.535 99.1094 122.762 98.877 123.031 98.7129C123.3 98.5488 123.608 98.4668 123.954 98.4668C124.063 98.4668 124.175 98.4759 124.289 98.4941C124.403 98.5078 124.496 98.5283 124.569 98.5557ZM127.577 98.6035V106H125.602V98.6035H127.577ZM125.479 96.6758C125.479 96.3887 125.579 96.1517 125.779 95.9648C125.98 95.778 126.249 95.6846 126.586 95.6846C126.919 95.6846 127.185 95.778 127.386 95.9648C127.591 96.1517 127.693 96.3887 127.693 96.6758C127.693 96.9629 127.591 97.1999 127.386 97.3867C127.185 97.5736 126.919 97.667 126.586 97.667C126.249 97.667 125.98 97.5736 125.779 97.3867C125.579 97.1999 125.479 96.9629 125.479 96.6758ZM132.608 106.137C132.034 106.137 131.519 106.046 131.063 105.863C130.608 105.676 130.22 105.419 129.901 105.091C129.587 104.763 129.345 104.382 129.177 103.949C129.008 103.512 128.924 103.047 128.924 102.555V102.281C128.924 101.721 129.004 101.208 129.163 100.743C129.323 100.278 129.55 99.875 129.847 99.5332C130.147 99.1914 130.512 98.9294 130.94 98.7471C131.369 98.5602 131.852 98.4668 132.39 98.4668C132.914 98.4668 133.379 98.5534 133.784 98.7266C134.19 98.8997 134.529 99.1458 134.803 99.4648C135.081 99.7839 135.29 100.167 135.432 100.613C135.573 101.055 135.644 101.548 135.644 102.09V102.91H129.765V101.598H133.709V101.447C133.709 101.174 133.659 100.93 133.559 100.716C133.463 100.497 133.317 100.324 133.121 100.196C132.925 100.069 132.674 100.005 132.369 100.005C132.109 100.005 131.886 100.062 131.699 100.176C131.512 100.29 131.36 100.449 131.241 100.654C131.127 100.859 131.041 101.101 130.981 101.379C130.927 101.652 130.899 101.953 130.899 102.281V102.555C130.899 102.851 130.94 103.124 131.022 103.375C131.109 103.626 131.23 103.842 131.385 104.024C131.544 104.207 131.736 104.348 131.959 104.448C132.187 104.549 132.444 104.599 132.731 104.599C133.087 104.599 133.417 104.53 133.723 104.394C134.033 104.252 134.299 104.04 134.522 103.758L135.479 104.797C135.325 105.02 135.113 105.234 134.844 105.439C134.579 105.645 134.26 105.813 133.887 105.945C133.513 106.073 133.087 106.137 132.608 106.137ZM131.221 97.5986L132.561 95.4932H134.7L132.82 97.5986H131.221ZM138.733 100.217V106H136.765V98.6035H138.617L138.733 100.217ZM140.962 98.5557L140.928 100.381C140.832 100.367 140.716 100.356 140.579 100.347C140.447 100.333 140.326 100.326 140.217 100.326C139.939 100.326 139.697 100.363 139.492 100.436C139.292 100.504 139.123 100.606 138.986 100.743C138.854 100.88 138.754 101.046 138.686 101.242C138.622 101.438 138.585 101.661 138.576 101.912L138.18 101.789C138.18 101.311 138.228 100.871 138.323 100.47C138.419 100.064 138.558 99.7109 138.74 99.4102C138.927 99.1094 139.155 98.877 139.424 98.7129C139.693 98.5488 140 98.4668 140.347 98.4668C140.456 98.4668 140.568 98.4759 140.682 98.4941C140.796 98.5078 140.889 98.5283 140.962 98.5557ZM146.267 104.229V98.6035H148.235V106H146.383L146.267 104.229ZM146.485 102.712L147.066 102.698C147.066 103.19 147.009 103.648 146.896 104.072C146.782 104.492 146.611 104.856 146.383 105.166C146.155 105.471 145.868 105.711 145.521 105.884C145.175 106.052 144.767 106.137 144.298 106.137C143.938 106.137 143.605 106.087 143.3 105.986C142.999 105.882 142.739 105.72 142.521 105.501C142.306 105.278 142.138 104.993 142.015 104.646C141.896 104.296 141.837 103.874 141.837 103.382V98.6035H143.806V103.396C143.806 103.614 143.831 103.799 143.881 103.949C143.936 104.1 144.011 104.223 144.106 104.318C144.202 104.414 144.314 104.482 144.441 104.523C144.574 104.564 144.719 104.585 144.879 104.585C145.285 104.585 145.604 104.503 145.836 104.339C146.073 104.175 146.239 103.951 146.335 103.669C146.435 103.382 146.485 103.063 146.485 102.712Z" fill="#050706"/>
<path d="M60.6 3.8001C60.6 2.0301 62.03 0.600098 63.8 0.600098H67C68.77 0.600098 70.2 2.0301 70.2 3.8001V19.8001V26.2001V42.2001C70.2 43.9701 68.77 45.4001 67 45.4001H63.8C62.03 45.4001 60.6 43.9701 60.6 42.2001V35.8001H57.4C55.63 35.8001 54.2 34.3701 54.2 32.6001V26.2001C52.43 26.2001 51 24.7701 51 23.0001C51 21.2301 52.43 19.8001 54.2 19.8001V13.4001C54.2 11.6301 55.63 10.2001 57.4 10.2001H60.6V3.8001ZM105.4 3.8001V10.2001H108.6C110.37 10.2001 111.8 11.6301 111.8 13.4001V19.8001C113.57 19.8001 115 21.2301 115 23.0001C115 24.7701 113.57 26.2001 111.8 26.2001V32.6001C111.8 34.3701 110.37 35.8001 108.6 35.8001H105.4V42.2001C105.4 43.9701 103.97 45.4001 102.2 45.4001H99C97.23 45.4001 95.8 43.9701 95.8 42.2001V26.2001V19.8001V3.8001C95.8 2.0301 97.23 0.600098 99 0.600098H102.2C103.97 0.600098 105.4 2.0301 105.4 3.8001ZM92.6 19.8001V26.2001H73.4V19.8001H92.6Z" fill="#7A9D8C"/>
</svg>
