<svg width="100" height="118" viewBox="0 0 100 118" fill="none" xmlns="http://www.w3.org/2000/svg">
<path d="M7.93164 81.0469H9.97559V87.623C9.97559 88.3887 9.81152 89.0335 9.4834 89.5576C9.15983 90.0817 8.71094 90.4759 8.13672 90.7402C7.56706 91.0046 6.91081 91.1367 6.16797 91.1367C5.42513 91.1367 4.76432 91.0046 4.18555 90.7402C3.61133 90.4759 3.16016 90.0817 2.83203 89.5576C2.50846 89.0335 2.34668 88.3887 2.34668 87.623V81.0469H4.39746V87.623C4.39746 88.0697 4.4681 88.4342 4.60938 88.7168C4.75065 88.9993 4.95345 89.2067 5.21777 89.3389C5.48665 89.471 5.80339 89.5371 6.16797 89.5371C6.54167 89.5371 6.8584 89.471 7.11816 89.3389C7.38249 89.2067 7.58301 88.9993 7.71973 88.7168C7.861 88.4342 7.93164 88.0697 7.93164 87.623V81.0469ZM13.5098 85.1348V91H11.5342V83.6035H13.3867L13.5098 85.1348ZM13.2363 87.042H12.6895C12.6895 86.527 12.751 86.0531 12.874 85.6201C13.0016 85.1826 13.1862 84.8044 13.4277 84.4854C13.6738 84.1618 13.9769 83.9111 14.3369 83.7334C14.6969 83.5557 15.1139 83.4668 15.5879 83.4668C15.916 83.4668 16.2168 83.5169 16.4902 83.6172C16.7637 83.7129 16.9984 83.8656 17.1943 84.0752C17.3949 84.2803 17.5498 84.5492 17.6592 84.8818C17.7686 85.21 17.8232 85.6042 17.8232 86.0645V91H15.8545V86.2832C15.8545 85.946 15.8089 85.6862 15.7178 85.5039C15.6266 85.3216 15.4967 85.194 15.3281 85.1211C15.1641 85.0482 14.9658 85.0117 14.7334 85.0117C14.4782 85.0117 14.2549 85.0641 14.0635 85.1689C13.8766 85.2738 13.7217 85.4196 13.5986 85.6064C13.4756 85.7887 13.3844 86.0029 13.3252 86.249C13.266 86.4951 13.2363 86.7594 13.2363 87.042ZM17.6387 86.8164L16.9346 86.9053C16.9346 86.4222 16.9938 85.9733 17.1123 85.5586C17.2354 85.1439 17.4154 84.7793 17.6523 84.4648C17.8939 84.1504 18.1924 83.9066 18.5479 83.7334C18.9033 83.5557 19.3135 83.4668 19.7783 83.4668C20.1338 83.4668 20.4574 83.5192 20.749 83.624C21.0407 83.7243 21.2891 83.8861 21.4941 84.1094C21.7038 84.3281 21.8633 84.6152 21.9727 84.9707C22.0866 85.3262 22.1436 85.7614 22.1436 86.2764V91H20.168V86.2764C20.168 85.9346 20.1224 85.6748 20.0312 85.4971C19.9447 85.3148 19.8171 85.1895 19.6484 85.1211C19.4844 85.0482 19.2884 85.0117 19.0605 85.0117C18.8236 85.0117 18.6162 85.0596 18.4385 85.1553C18.2607 85.2464 18.1126 85.374 17.9941 85.5381C17.8757 85.7021 17.7868 85.8936 17.7275 86.1123C17.6683 86.3265 17.6387 86.5612 17.6387 86.8164ZM25.8623 90.166L27.8242 83.6035H29.9365L26.9629 92.1143C26.8991 92.3011 26.8125 92.5016 26.7031 92.7158C26.5983 92.93 26.4548 93.1328 26.2725 93.3242C26.0947 93.5202 25.8691 93.6797 25.5957 93.8027C25.3268 93.9258 24.9964 93.9873 24.6045 93.9873C24.4176 93.9873 24.265 93.9759 24.1465 93.9531C24.028 93.9303 23.8867 93.8984 23.7227 93.8574V92.415C23.7728 92.415 23.8252 92.415 23.8799 92.415C23.9346 92.4196 23.987 92.4219 24.0371 92.4219C24.2969 92.4219 24.5088 92.3923 24.6729 92.333C24.8369 92.2738 24.9691 92.1826 25.0693 92.0596C25.1696 91.9411 25.2493 91.7861 25.3086 91.5947L25.8623 90.166ZM25.042 83.6035L26.6484 88.9629L26.9287 91.0479L25.5889 91.1914L22.9297 83.6035H25.042ZM25.5273 82.6055L26.8672 80.5H29.0068L27.127 82.6055H25.5273ZM33.2383 89.5645L34.8789 83.6035H36.9365L34.4414 91H33.1973L33.2383 89.5645ZM32.1104 83.6035L33.7578 89.5713L33.792 91H32.541L30.0459 83.6035H32.1104ZM41.7012 89.332V86.0371C41.7012 85.8001 41.6624 85.5973 41.585 85.4287C41.5075 85.2555 41.3867 85.1211 41.2227 85.0254C41.0632 84.9297 40.8558 84.8818 40.6006 84.8818C40.3818 84.8818 40.1927 84.9206 40.0332 84.998C39.8737 85.071 39.7507 85.1781 39.6641 85.3193C39.5775 85.4561 39.5342 85.6178 39.5342 85.8047H37.5654C37.5654 85.4902 37.6383 85.1917 37.7842 84.9092C37.93 84.6266 38.1419 84.3783 38.4199 84.1641C38.6979 83.9453 39.0283 83.7744 39.4111 83.6514C39.7985 83.5283 40.2314 83.4668 40.71 83.4668C41.2842 83.4668 41.7946 83.5625 42.2412 83.7539C42.6878 83.9453 43.0387 84.2324 43.2939 84.6152C43.5537 84.998 43.6836 85.4766 43.6836 86.0508V89.2158C43.6836 89.6214 43.7087 89.9541 43.7588 90.2139C43.8089 90.4691 43.8818 90.6924 43.9775 90.8838V91H41.9883C41.8926 90.7995 41.8197 90.5488 41.7695 90.248C41.724 89.9427 41.7012 89.6374 41.7012 89.332ZM41.9609 86.4951L41.9746 87.6094H40.874C40.6143 87.6094 40.3887 87.639 40.1973 87.6982C40.0059 87.7575 39.8486 87.8418 39.7256 87.9512C39.6025 88.056 39.5114 88.179 39.4521 88.3203C39.3975 88.4616 39.3701 88.6165 39.3701 88.7852C39.3701 88.9538 39.4089 89.1064 39.4863 89.2432C39.5638 89.3753 39.6755 89.4801 39.8213 89.5576C39.9671 89.6305 40.138 89.667 40.334 89.667C40.6302 89.667 40.8877 89.6077 41.1064 89.4893C41.3252 89.3708 41.4938 89.2249 41.6123 89.0518C41.7354 88.8786 41.7992 88.7145 41.8037 88.5596L42.3232 89.3936C42.2503 89.5804 42.1501 89.7741 42.0225 89.9746C41.8994 90.1751 41.7422 90.3643 41.5508 90.542C41.3594 90.7152 41.1292 90.8587 40.8604 90.9727C40.5915 91.082 40.2725 91.1367 39.9033 91.1367C39.4339 91.1367 39.0078 91.0433 38.625 90.8564C38.2467 90.665 37.946 90.403 37.7227 90.0703C37.5039 89.7331 37.3945 89.3503 37.3945 88.9219C37.3945 88.5345 37.4674 88.1904 37.6133 87.8896C37.7591 87.5889 37.9733 87.3359 38.2559 87.1309C38.543 86.9212 38.9007 86.764 39.3291 86.6592C39.7575 86.5498 40.2542 86.4951 40.8193 86.4951H41.9609ZM39.7666 82.6055L41.1064 80.5H43.2461L41.3662 82.6055H39.7666ZM47.1699 85.2168V91H45.2012V83.6035H47.0537L47.1699 85.2168ZM49.3984 83.5557L49.3643 85.3809C49.2686 85.3672 49.1523 85.3558 49.0156 85.3467C48.8835 85.333 48.7627 85.3262 48.6533 85.3262C48.3753 85.3262 48.1338 85.3626 47.9287 85.4355C47.7282 85.5039 47.5596 85.6064 47.4229 85.7432C47.2907 85.8799 47.1904 86.0462 47.1221 86.2422C47.0583 86.4382 47.0218 86.6615 47.0127 86.9121L46.6162 86.7891C46.6162 86.3105 46.6641 85.8708 46.7598 85.4697C46.8555 85.0641 46.9945 84.7109 47.1768 84.4102C47.3636 84.1094 47.5915 83.877 47.8604 83.7129C48.1292 83.5488 48.4368 83.4668 48.7832 83.4668C48.8926 83.4668 49.0042 83.4759 49.1182 83.4941C49.2321 83.5078 49.3255 83.5283 49.3984 83.5557ZM52.2559 85.1826V91H50.2871V83.6035H52.1328L52.2559 85.1826ZM51.9688 87.042H51.4355C51.4355 86.4951 51.5062 86.0029 51.6475 85.5654C51.7887 85.1234 51.987 84.7474 52.2422 84.4375C52.4974 84.123 52.8005 83.8838 53.1514 83.7197C53.5068 83.5511 53.9033 83.4668 54.3408 83.4668C54.6872 83.4668 55.0039 83.5169 55.291 83.6172C55.5781 83.7174 55.8242 83.877 56.0293 84.0957C56.2389 84.3145 56.3984 84.6038 56.5078 84.9639C56.6217 85.3239 56.6787 85.7637 56.6787 86.2832V91H54.6963V86.2764C54.6963 85.9482 54.6507 85.693 54.5596 85.5107C54.4684 85.3285 54.334 85.2008 54.1562 85.1279C53.9831 85.0505 53.7689 85.0117 53.5137 85.0117C53.2493 85.0117 53.0192 85.0641 52.8232 85.1689C52.6318 85.2738 52.4723 85.4196 52.3447 85.6064C52.2217 85.7887 52.1283 86.0029 52.0645 86.249C52.0007 86.4951 51.9688 86.7594 51.9688 87.042ZM62.168 89.332V86.0371C62.168 85.8001 62.1292 85.5973 62.0518 85.4287C61.9743 85.2555 61.8535 85.1211 61.6895 85.0254C61.5299 84.9297 61.3226 84.8818 61.0674 84.8818C60.8486 84.8818 60.6595 84.9206 60.5 84.998C60.3405 85.071 60.2174 85.1781 60.1309 85.3193C60.0443 85.4561 60.001 85.6178 60.001 85.8047H58.0322C58.0322 85.4902 58.1051 85.1917 58.251 84.9092C58.3968 84.6266 58.6087 84.3783 58.8867 84.1641C59.1647 83.9453 59.4951 83.7744 59.8779 83.6514C60.2653 83.5283 60.6982 83.4668 61.1768 83.4668C61.751 83.4668 62.2614 83.5625 62.708 83.7539C63.1546 83.9453 63.5055 84.2324 63.7607 84.6152C64.0205 84.998 64.1504 85.4766 64.1504 86.0508V89.2158C64.1504 89.6214 64.1755 89.9541 64.2256 90.2139C64.2757 90.4691 64.3486 90.6924 64.4443 90.8838V91H62.4551C62.3594 90.7995 62.2865 90.5488 62.2363 90.248C62.1908 89.9427 62.168 89.6374 62.168 89.332ZM62.4277 86.4951L62.4414 87.6094H61.3408C61.0811 87.6094 60.8555 87.639 60.6641 87.6982C60.4727 87.7575 60.3154 87.8418 60.1924 87.9512C60.0693 88.056 59.9782 88.179 59.9189 88.3203C59.8643 88.4616 59.8369 88.6165 59.8369 88.7852C59.8369 88.9538 59.8757 89.1064 59.9531 89.2432C60.0306 89.3753 60.1423 89.4801 60.2881 89.5576C60.4339 89.6305 60.6048 89.667 60.8008 89.667C61.097 89.667 61.3545 89.6077 61.5732 89.4893C61.792 89.3708 61.9606 89.2249 62.0791 89.0518C62.2021 88.8786 62.266 88.7145 62.2705 88.5596L62.79 89.3936C62.7171 89.5804 62.6169 89.7741 62.4893 89.9746C62.3662 90.1751 62.209 90.3643 62.0176 90.542C61.8262 90.7152 61.596 90.8587 61.3271 90.9727C61.0583 91.082 60.7393 91.1367 60.3701 91.1367C59.9007 91.1367 59.4746 91.0433 59.0918 90.8564C58.7135 90.665 58.4128 90.403 58.1895 90.0703C57.9707 89.7331 57.8613 89.3503 57.8613 88.9219C57.8613 88.5345 57.9342 88.1904 58.0801 87.8896C58.2259 87.5889 58.4401 87.3359 58.7227 87.1309C59.0098 86.9212 59.3675 86.764 59.7959 86.6592C60.2243 86.5498 60.721 86.4951 61.2861 86.4951H62.4277ZM71.123 80.4932V91H69.1543V80.4932H71.123ZM75.7852 83.6035L72.5723 87.2676L70.8496 89.0107L70.1318 87.5889L71.499 85.8525L73.4199 83.6035H75.7852ZM73.7412 91L71.5537 87.582L72.9141 86.3926L76.0107 91H73.7412ZM76.3184 87.377V87.2334C76.3184 86.6911 76.3958 86.1921 76.5508 85.7363C76.7057 85.276 76.9313 84.8773 77.2275 84.54C77.5238 84.2028 77.8883 83.9408 78.3213 83.7539C78.7542 83.5625 79.251 83.4668 79.8115 83.4668C80.3721 83.4668 80.8711 83.5625 81.3086 83.7539C81.7461 83.9408 82.113 84.2028 82.4092 84.54C82.71 84.8773 82.9378 85.276 83.0928 85.7363C83.2477 86.1921 83.3252 86.6911 83.3252 87.2334V87.377C83.3252 87.9147 83.2477 88.4137 83.0928 88.874C82.9378 89.3298 82.71 89.7285 82.4092 90.0703C82.113 90.4076 81.7484 90.6696 81.3154 90.8564C80.8825 91.0433 80.3857 91.1367 79.8252 91.1367C79.2646 91.1367 78.7656 91.0433 78.3281 90.8564C77.8952 90.6696 77.5283 90.4076 77.2275 90.0703C76.9313 89.7285 76.7057 89.3298 76.5508 88.874C76.3958 88.4137 76.3184 87.9147 76.3184 87.377ZM78.2871 87.2334V87.377C78.2871 87.6868 78.3145 87.9762 78.3691 88.2451C78.4238 88.514 78.5104 88.751 78.6289 88.9561C78.752 89.1566 78.9115 89.3138 79.1074 89.4277C79.3034 89.5417 79.5426 89.5986 79.8252 89.5986C80.0986 89.5986 80.3333 89.5417 80.5293 89.4277C80.7253 89.3138 80.8825 89.1566 81.001 88.9561C81.1195 88.751 81.2061 88.514 81.2607 88.2451C81.32 87.9762 81.3496 87.6868 81.3496 87.377V87.2334C81.3496 86.9326 81.32 86.6501 81.2607 86.3857C81.2061 86.1169 81.1172 85.8799 80.9941 85.6748C80.8757 85.4652 80.7184 85.3011 80.5225 85.1826C80.3265 85.0641 80.0895 85.0049 79.8115 85.0049C79.5335 85.0049 79.2965 85.0641 79.1006 85.1826C78.9092 85.3011 78.752 85.4652 78.6289 85.6748C78.5104 85.8799 78.4238 86.1169 78.3691 86.3857C78.3145 86.6501 78.2871 86.9326 78.2871 87.2334ZM86.6133 80.5V91H84.6377V80.5H86.6133ZM95.7188 89.332V86.0371C95.7188 85.8001 95.68 85.5973 95.6025 85.4287C95.5251 85.2555 95.4043 85.1211 95.2402 85.0254C95.0807 84.9297 94.8734 84.8818 94.6182 84.8818C94.3994 84.8818 94.2103 84.9206 94.0508 84.998C93.8913 85.071 93.7682 85.1781 93.6816 85.3193C93.5951 85.4561 93.5518 85.6178 93.5518 85.8047H91.583C91.583 85.4902 91.6559 85.1917 91.8018 84.9092C91.9476 84.6266 92.1595 84.3783 92.4375 84.1641C92.7155 83.9453 93.0459 83.7744 93.4287 83.6514C93.8161 83.5283 94.249 83.4668 94.7275 83.4668C95.3018 83.4668 95.8122 83.5625 96.2588 83.7539C96.7054 83.9453 97.0563 84.2324 97.3115 84.6152C97.5713 84.998 97.7012 85.4766 97.7012 86.0508V89.2158C97.7012 89.6214 97.7262 89.9541 97.7764 90.2139C97.8265 90.4691 97.8994 90.6924 97.9951 90.8838V91H96.0059C95.9102 90.7995 95.8372 90.5488 95.7871 90.248C95.7415 89.9427 95.7188 89.6374 95.7188 89.332ZM95.9785 86.4951L95.9922 87.6094H94.8916C94.6318 87.6094 94.4062 87.639 94.2148 87.6982C94.0234 87.7575 93.8662 87.8418 93.7432 87.9512C93.6201 88.056 93.529 88.179 93.4697 88.3203C93.415 88.4616 93.3877 88.6165 93.3877 88.7852C93.3877 88.9538 93.4264 89.1064 93.5039 89.2432C93.5814 89.3753 93.693 89.4801 93.8389 89.5576C93.9847 89.6305 94.1556 89.667 94.3516 89.667C94.6478 89.667 94.9053 89.6077 95.124 89.4893C95.3428 89.3708 95.5114 89.2249 95.6299 89.0518C95.7529 88.8786 95.8167 88.7145 95.8213 88.5596L96.3408 89.3936C96.2679 89.5804 96.1676 89.7741 96.04 89.9746C95.917 90.1751 95.7598 90.3643 95.5684 90.542C95.377 90.7152 95.1468 90.8587 94.8779 90.9727C94.609 91.082 94.29 91.1367 93.9209 91.1367C93.4515 91.1367 93.0254 91.0433 92.6426 90.8564C92.2643 90.665 91.9635 90.403 91.7402 90.0703C91.5215 89.7331 91.4121 89.3503 91.4121 88.9219C91.4121 88.5345 91.485 88.1904 91.6309 87.8896C91.7767 87.5889 91.9909 87.3359 92.2734 87.1309C92.5605 86.9212 92.9183 86.764 93.3467 86.6592C93.7751 86.5498 94.2718 86.4951 94.8369 86.4951H95.9785ZM41.2773 105.025V113.844H39.3086V103.604H41.1338L41.2773 105.025ZM45.96 107.22V107.363C45.96 107.901 45.8962 108.4 45.7686 108.86C45.6455 109.321 45.4632 109.722 45.2217 110.063C44.9801 110.401 44.6794 110.665 44.3193 110.856C43.9639 111.043 43.5537 111.137 43.0889 111.137C42.6377 111.137 42.2458 111.046 41.9131 110.863C41.5804 110.681 41.3001 110.426 41.0723 110.098C40.849 109.765 40.6689 109.38 40.5322 108.942C40.3955 108.505 40.2907 108.035 40.2178 107.534V107.158C40.2907 106.62 40.3955 106.128 40.5322 105.682C40.6689 105.23 40.849 104.841 41.0723 104.513C41.3001 104.18 41.5781 103.923 41.9062 103.74C42.2389 103.558 42.6286 103.467 43.0752 103.467C43.5446 103.467 43.957 103.556 44.3125 103.733C44.6725 103.911 44.9733 104.166 45.2148 104.499C45.4609 104.832 45.6455 105.228 45.7686 105.688C45.8962 106.149 45.96 106.659 45.96 107.22ZM43.9844 107.363V107.22C43.9844 106.905 43.957 106.616 43.9023 106.352C43.8522 106.083 43.7702 105.848 43.6562 105.647C43.5469 105.447 43.401 105.292 43.2188 105.183C43.041 105.069 42.8245 105.012 42.5693 105.012C42.3005 105.012 42.0703 105.055 41.8789 105.142C41.6921 105.228 41.5394 105.354 41.4209 105.518C41.3024 105.682 41.2135 105.878 41.1543 106.105C41.0951 106.333 41.0586 106.591 41.0449 106.878V107.828C41.0677 108.165 41.1315 108.468 41.2363 108.737C41.3411 109.002 41.5029 109.211 41.7217 109.366C41.9404 109.521 42.2275 109.599 42.583 109.599C42.8428 109.599 43.0615 109.542 43.2393 109.428C43.417 109.309 43.5605 109.147 43.6699 108.942C43.7839 108.737 43.8636 108.5 43.9092 108.231C43.9593 107.963 43.9844 107.673 43.9844 107.363ZM51.1826 108.956C51.1826 108.815 51.1416 108.687 51.0596 108.573C50.9775 108.459 50.8249 108.354 50.6016 108.259C50.3828 108.159 50.0661 108.067 49.6514 107.985C49.2777 107.903 48.929 107.801 48.6055 107.678C48.2865 107.55 48.0085 107.397 47.7715 107.22C47.5391 107.042 47.3568 106.832 47.2246 106.591C47.0924 106.345 47.0264 106.064 47.0264 105.75C47.0264 105.44 47.0924 105.148 47.2246 104.875C47.3613 104.602 47.555 104.36 47.8057 104.15C48.0609 103.936 48.3708 103.77 48.7354 103.651C49.1045 103.528 49.5192 103.467 49.9795 103.467C50.6221 103.467 51.1735 103.569 51.6338 103.774C52.0986 103.979 52.4541 104.262 52.7002 104.622C52.9508 104.978 53.0762 105.383 53.0762 105.839H51.1074C51.1074 105.647 51.0664 105.477 50.9844 105.326C50.9069 105.171 50.7839 105.05 50.6152 104.964C50.4512 104.873 50.237 104.827 49.9727 104.827C49.7539 104.827 49.5648 104.866 49.4053 104.943C49.2458 105.016 49.1227 105.117 49.0361 105.244C48.9541 105.367 48.9131 105.504 48.9131 105.654C48.9131 105.768 48.9359 105.871 48.9814 105.962C49.0316 106.049 49.1113 106.128 49.2207 106.201C49.3301 106.274 49.4714 106.342 49.6445 106.406C49.8223 106.465 50.041 106.52 50.3008 106.57C50.834 106.68 51.3102 106.823 51.7295 107.001C52.1488 107.174 52.4814 107.411 52.7275 107.712C52.9736 108.008 53.0967 108.398 53.0967 108.881C53.0967 109.209 53.0238 109.51 52.8779 109.783C52.7321 110.057 52.5225 110.296 52.249 110.501C51.9756 110.701 51.6475 110.859 51.2646 110.973C50.8864 111.082 50.4603 111.137 49.9863 111.137C49.2982 111.137 48.7148 111.014 48.2363 110.768C47.7624 110.521 47.4023 110.209 47.1562 109.831C46.9147 109.448 46.7939 109.056 46.7939 108.655H48.6602C48.6693 108.924 48.7376 109.141 48.8652 109.305C48.9974 109.469 49.1637 109.587 49.3643 109.66C49.5693 109.733 49.7904 109.77 50.0273 109.77C50.2826 109.77 50.4945 109.735 50.6631 109.667C50.8317 109.594 50.9593 109.498 51.0459 109.38C51.137 109.257 51.1826 109.116 51.1826 108.956ZM58.75 109.229V103.604H60.7188V111H58.8662L58.75 109.229ZM58.9688 107.712L59.5498 107.698C59.5498 108.19 59.4928 108.648 59.3789 109.072C59.265 109.492 59.0941 109.856 58.8662 110.166C58.6383 110.471 58.3512 110.711 58.0049 110.884C57.6585 111.052 57.2507 111.137 56.7812 111.137C56.4212 111.137 56.0885 111.087 55.7832 110.986C55.4824 110.882 55.2227 110.72 55.0039 110.501C54.7897 110.278 54.6211 109.993 54.498 109.646C54.3796 109.296 54.3203 108.874 54.3203 108.382V103.604H56.2891V108.396C56.2891 108.614 56.3141 108.799 56.3643 108.949C56.4189 109.1 56.4941 109.223 56.5898 109.318C56.6855 109.414 56.7972 109.482 56.9248 109.523C57.057 109.564 57.2028 109.585 57.3623 109.585C57.7679 109.585 58.0869 109.503 58.3193 109.339C58.5563 109.175 58.7227 108.951 58.8184 108.669C58.9186 108.382 58.9688 108.063 58.9688 107.712ZM56.0293 101.3C56.0293 101.045 56.0931 100.812 56.2207 100.603C56.3529 100.388 56.5329 100.217 56.7607 100.09C56.9886 99.9622 57.2484 99.8984 57.54 99.8984C57.973 99.8984 58.333 100.037 58.6201 100.315C58.9118 100.589 59.0576 100.917 59.0576 101.3C59.0576 101.555 58.9915 101.787 58.8594 101.997C58.7272 102.202 58.5472 102.366 58.3193 102.489C58.0915 102.612 57.8317 102.674 57.54 102.674C57.1071 102.674 56.7471 102.542 56.46 102.277C56.1729 102.008 56.0293 101.683 56.0293 101.3ZM56.8086 101.3C56.8086 101.496 56.8747 101.667 57.0068 101.812C57.139 101.958 57.3167 102.031 57.54 102.031C57.7633 102.031 57.9411 101.961 58.0732 101.819C58.21 101.674 58.2783 101.5 58.2783 101.3C58.2783 101.095 58.21 100.919 58.0732 100.773C57.9411 100.623 57.7633 100.548 57.54 100.548C57.3167 100.548 57.139 100.623 57.0068 100.773C56.8747 100.919 56.8086 101.095 56.8086 101.3Z" fill="#050706"/>
<path d="M26 12.4875C26 10.0125 28.0125 8 30.4875 8C31.675 8 32.8125 8.475 33.6625 9.3125L35.6875 11.3375C33.0625 16.2 33.5125 22.275 37.05 26.7125L36.875 26.875C35.7 28.05 35.7 29.95 36.875 31.1125C38.05 32.275 39.95 32.2875 41.1125 31.1125L61.125 11.125C62.3 9.95 62.3 8.05 61.125 6.8875C59.95 5.725 58.05 5.7125 56.8875 6.8875L56.725 7.05C52.2875 3.5125 46.2 3.0625 41.35 5.6875L39.3125 3.6625C36.975 1.3125 33.8 0 30.4875 0C23.5875 0 18 5.5875 18 12.4875V52C18 54.2125 19.7875 56 22 56C24.2125 56 26 54.2125 26 52V12.4875ZM50 40C51.0609 40 52.0783 39.5786 52.8284 38.8284C53.5786 38.0783 54 37.0609 54 36C54 34.9391 53.5786 33.9217 52.8284 33.1716C52.0783 32.4214 51.0609 32 50 32C48.9391 32 47.9217 32.4214 47.1716 33.1716C46.4214 33.9217 46 34.9391 46 36C46 37.0609 46.4214 38.0783 47.1716 38.8284C47.9217 39.5786 48.9391 40 50 40ZM58 48C58 46.9391 57.5786 45.9217 56.8284 45.1716C56.0783 44.4214 55.0609 44 54 44C52.9391 44 51.9217 44.4214 51.1716 45.1716C50.4214 45.9217 50 46.9391 50 48C50 49.0609 50.4214 50.0783 51.1716 50.8284C51.9217 51.5786 52.9391 52 54 52C55.0609 52 56.0783 51.5786 56.8284 50.8284C57.5786 50.0783 58 49.0609 58 48ZM58 32C59.0609 32 60.0783 31.5786 60.8284 30.8284C61.5786 30.0783 62 29.0609 62 28C62 26.9391 61.5786 25.9217 60.8284 25.1716C60.0783 24.4214 59.0609 24 58 24C56.9391 24 55.9217 24.4214 55.1716 25.1716C54.4214 25.9217 54 26.9391 54 28C54 29.0609 54.4214 30.0783 55.1716 30.8284C55.9217 31.5786 56.9391 32 58 32ZM66 40C66 38.9391 65.5786 37.9217 64.8284 37.1716C64.0783 36.4214 63.0609 36 62 36C60.9391 36 59.9217 36.4214 59.1716 37.1716C58.4214 37.9217 58 38.9391 58 40C58 41.0609 58.4214 42.0783 59.1716 42.8284C59.9217 43.5786 60.9391 44 62 44C63.0609 44 64.0783 43.5786 64.8284 42.8284C65.5786 42.0783 66 41.0609 66 40ZM66 24C67.0609 24 68.0783 23.5786 68.8284 22.8284C69.5786 22.0783 70 21.0609 70 20C70 18.9391 69.5786 17.9217 68.8284 17.1716C68.0783 16.4214 67.0609 16 66 16C64.9391 16 63.9217 16.4214 63.1716 17.1716C62.4214 17.9217 62 18.9391 62 20C62 21.0609 62.4214 22.0783 63.1716 22.8284C63.9217 23.5786 64.9391 24 66 24ZM74 32C74 30.9391 73.5786 29.9217 72.8284 29.1716C72.0783 28.4214 71.0609 28 70 28C68.9391 28 67.9217 28.4214 67.1716 29.1716C66.4214 29.9217 66 30.9391 66 32C66 33.0609 66.4214 34.0783 67.1716 34.8284C67.9217 35.5786 68.9391 36 70 36C71.0609 36 72.0783 35.5786 72.8284 34.8284C73.5786 34.0783 74 33.0609 74 32ZM78 28C79.0609 28 80.0783 27.5786 80.8284 26.8284C81.5786 26.0783 82 25.0609 82 24C82 22.9391 81.5786 21.9217 80.8284 21.1716C80.0783 20.4214 79.0609 20 78 20C76.9391 20 75.9217 20.4214 75.1716 21.1716C74.4214 21.9217 74 22.9391 74 24C74 25.0609 74.4214 26.0783 75.1716 26.8284C75.9217 27.5786 76.9391 28 78 28Z" fill="#7A9D8C"/>
</svg>
