<svg width="126" height="122" viewBox="0 0 126 122" fill="none" xmlns="http://www.w3.org/2000/svg">
<path d="M63 32C67.2435 32 71.3131 30.3143 74.3137 27.3137C77.3143 24.3131 79 20.2435 79 16C79 11.7565 77.3143 7.68687 74.3137 4.68629C71.3131 1.68571 67.2435 0 63 0C58.7565 0 54.6869 1.68571 51.6863 4.68629C48.6857 7.68687 47 11.7565 47 16C47 20.2435 48.6857 24.3131 51.6863 27.3137C54.6869 30.3143 58.7565 32 63 32ZM51 38.9C41.75 41.6125 35 50.1625 35 60.2875C35 62.3375 36.6625 64 38.7125 64H87.2875C89.3375 64 91 62.3375 91 60.2875C91 50.1625 84.25 41.6125 75 38.9V45.25C78.45 46.1375 81 49.275 81 53V58C81 59.1 80.1 60 79 60H77C75.9 60 75 59.1 75 58C75 56.9 75.9 56 77 56V53C77 50.7875 75.2125 49 73 49C70.7875 49 69 50.7875 69 53V56C70.1 56 71 56.9 71 58C71 59.1 70.1 60 69 60H67C65.9 60 65 59.1 65 58V53C65 49.275 67.55 46.1375 71 45.25V38.1125C70.25 38.0375 69.4875 38 68.7125 38H57.2875C56.5125 38 55.75 38.0375 55 38.1125V46.2875C57.8875 47.15 60 49.825 60 53C60 56.8625 56.8625 60 53 60C49.1375 60 46 56.8625 46 53C46 49.825 48.1125 47.15 51 46.2875V38.9ZM53 56C53.7956 56 54.5587 55.6839 55.1213 55.1213C55.6839 54.5587 56 53.7957 56 53C56 52.2043 55.6839 51.4413 55.1213 50.8787C54.5587 50.3161 53.7956 50 53 50C52.2044 50 51.4413 50.3161 50.8787 50.8787C50.3161 51.4413 50 52.2043 50 53C50 53.7957 50.3161 54.5587 50.8787 55.1213C51.4413 55.6839 52.2044 56 53 56Z" fill="#7A9D8C"/>
<path d="M24.876 85.0469H26.6123L29.1689 92.3545L31.7256 85.0469H33.4619L29.8662 95H28.4717L24.876 85.0469ZM23.9395 85.0469H25.6689L25.9834 92.1699V95H23.9395V85.0469ZM32.6689 85.0469H34.4053V95H32.3545V92.1699L32.6689 85.0469ZM38.2061 87.6035V95H36.2305V87.6035H38.2061ZM36.292 86.708L37.6318 84.6025H39.7715L37.8916 86.708H36.292ZM43.9072 92.9561C43.9072 92.8148 43.8662 92.6872 43.7842 92.5732C43.7021 92.4593 43.5495 92.3545 43.3262 92.2588C43.1074 92.1585 42.7907 92.0674 42.376 91.9854C42.0023 91.9033 41.6536 91.8008 41.3301 91.6777C41.0111 91.5501 40.7331 91.3975 40.4961 91.2197C40.2637 91.042 40.0814 90.8324 39.9492 90.5908C39.8171 90.3447 39.751 90.0645 39.751 89.75C39.751 89.4401 39.8171 89.1484 39.9492 88.875C40.0859 88.6016 40.2796 88.36 40.5303 88.1504C40.7855 87.9362 41.0954 87.7699 41.46 87.6514C41.8291 87.5283 42.2438 87.4668 42.7041 87.4668C43.3467 87.4668 43.8981 87.5693 44.3584 87.7744C44.8232 87.9795 45.1787 88.262 45.4248 88.6221C45.6755 88.9775 45.8008 89.3831 45.8008 89.8389H43.832C43.832 89.6475 43.791 89.4766 43.709 89.3262C43.6315 89.1712 43.5085 89.0505 43.3398 88.9639C43.1758 88.8727 42.9616 88.8271 42.6973 88.8271C42.4785 88.8271 42.2894 88.8659 42.1299 88.9434C41.9704 89.0163 41.8473 89.1165 41.7607 89.2441C41.6787 89.3672 41.6377 89.5039 41.6377 89.6543C41.6377 89.7682 41.6605 89.8708 41.7061 89.9619C41.7562 90.0485 41.8359 90.1283 41.9453 90.2012C42.0547 90.2741 42.196 90.3424 42.3691 90.4062C42.5469 90.4655 42.7656 90.5202 43.0254 90.5703C43.5586 90.6797 44.0348 90.8232 44.4541 91.001C44.8734 91.1742 45.2061 91.4111 45.4521 91.7119C45.6982 92.0081 45.8213 92.3978 45.8213 92.8809C45.8213 93.209 45.7484 93.5098 45.6025 93.7832C45.4567 94.0566 45.2471 94.2959 44.9736 94.501C44.7002 94.7015 44.3721 94.8587 43.9893 94.9727C43.611 95.082 43.1849 95.1367 42.7109 95.1367C42.0228 95.1367 41.4395 95.0137 40.9609 94.7676C40.487 94.5215 40.127 94.2093 39.8809 93.8311C39.6393 93.4482 39.5186 93.0563 39.5186 92.6553H41.3848C41.3939 92.9242 41.4622 93.1406 41.5898 93.3047C41.722 93.4688 41.8883 93.5872 42.0889 93.6602C42.2939 93.7331 42.515 93.7695 42.752 93.7695C43.0072 93.7695 43.2191 93.7354 43.3877 93.667C43.5563 93.5941 43.6839 93.4984 43.7705 93.3799C43.8617 93.2568 43.9072 93.1156 43.9072 92.9561ZM50.7227 87.6035V88.998H46.416V87.6035H50.7227ZM47.4824 85.7783H49.4512V92.7715C49.4512 92.9857 49.4785 93.1497 49.5332 93.2637C49.5924 93.3776 49.679 93.4574 49.793 93.5029C49.9069 93.5439 50.0505 93.5645 50.2236 93.5645C50.3467 93.5645 50.4561 93.5599 50.5518 93.5508C50.652 93.5371 50.7363 93.5234 50.8047 93.5098L50.8115 94.959C50.6429 95.0137 50.4606 95.057 50.2646 95.0889C50.0687 95.1208 49.8522 95.1367 49.6152 95.1367C49.1823 95.1367 48.804 95.0661 48.4805 94.9248C48.1615 94.779 47.9154 94.5465 47.7422 94.2275C47.569 93.9085 47.4824 93.4893 47.4824 92.9697V85.7783ZM53.7715 89.1826V95H51.8027V87.6035H53.6484L53.7715 89.1826ZM53.4844 91.042H52.9512C52.9512 90.4951 53.0218 90.0029 53.1631 89.5654C53.3044 89.1234 53.5026 88.7474 53.7578 88.4375C54.013 88.123 54.3161 87.8838 54.667 87.7197C55.0225 87.5511 55.4189 87.4668 55.8564 87.4668C56.2028 87.4668 56.5195 87.5169 56.8066 87.6172C57.0938 87.7174 57.3398 87.877 57.5449 88.0957C57.7546 88.3145 57.9141 88.6038 58.0234 88.9639C58.1374 89.3239 58.1943 89.7637 58.1943 90.2832V95H56.2119V90.2764C56.2119 89.9482 56.1663 89.693 56.0752 89.5107C55.984 89.3285 55.8496 89.2008 55.6719 89.1279C55.4987 89.0505 55.2845 89.0117 55.0293 89.0117C54.765 89.0117 54.5348 89.0641 54.3389 89.1689C54.1475 89.2738 53.988 89.4196 53.8604 89.6064C53.7373 89.7887 53.6439 90.0029 53.5801 90.249C53.5163 90.4951 53.4844 90.7594 53.4844 91.042ZM59.377 91.377V91.2334C59.377 90.6911 59.4544 90.1921 59.6094 89.7363C59.7643 89.276 59.9899 88.8773 60.2861 88.54C60.5824 88.2028 60.9469 87.9408 61.3799 87.7539C61.8128 87.5625 62.3096 87.4668 62.8701 87.4668C63.4307 87.4668 63.9297 87.5625 64.3672 87.7539C64.8047 87.9408 65.1715 88.2028 65.4678 88.54C65.7686 88.8773 65.9964 89.276 66.1514 89.7363C66.3063 90.1921 66.3838 90.6911 66.3838 91.2334V91.377C66.3838 91.9147 66.3063 92.4137 66.1514 92.874C65.9964 93.3298 65.7686 93.7285 65.4678 94.0703C65.1715 94.4076 64.807 94.6696 64.374 94.8564C63.9411 95.0433 63.4443 95.1367 62.8838 95.1367C62.3232 95.1367 61.8242 95.0433 61.3867 94.8564C60.9538 94.6696 60.5869 94.4076 60.2861 94.0703C59.9899 93.7285 59.7643 93.3298 59.6094 92.874C59.4544 92.4137 59.377 91.9147 59.377 91.377ZM61.3457 91.2334V91.377C61.3457 91.6868 61.373 91.9762 61.4277 92.2451C61.4824 92.514 61.569 92.751 61.6875 92.9561C61.8105 93.1566 61.9701 93.3138 62.166 93.4277C62.362 93.5417 62.6012 93.5986 62.8838 93.5986C63.1572 93.5986 63.3919 93.5417 63.5879 93.4277C63.7839 93.3138 63.9411 93.1566 64.0596 92.9561C64.1781 92.751 64.2646 92.514 64.3193 92.2451C64.3786 91.9762 64.4082 91.6868 64.4082 91.377V91.2334C64.4082 90.9326 64.3786 90.6501 64.3193 90.3857C64.2646 90.1169 64.1758 89.8799 64.0527 89.6748C63.9342 89.4652 63.777 89.3011 63.5811 89.1826C63.3851 89.0641 63.1481 89.0049 62.8701 89.0049C62.5921 89.0049 62.3551 89.0641 62.1592 89.1826C61.9678 89.3011 61.8105 89.4652 61.6875 89.6748C61.569 89.8799 61.4824 90.1169 61.4277 90.3857C61.373 90.6501 61.3457 90.9326 61.3457 91.2334ZM71.5928 92.9561C71.5928 92.8148 71.5518 92.6872 71.4697 92.5732C71.3877 92.4593 71.235 92.3545 71.0117 92.2588C70.793 92.1585 70.4762 92.0674 70.0615 91.9854C69.6878 91.9033 69.3392 91.8008 69.0156 91.6777C68.6966 91.5501 68.4186 91.3975 68.1816 91.2197C67.9492 91.042 67.7669 90.8324 67.6348 90.5908C67.5026 90.3447 67.4365 90.0645 67.4365 89.75C67.4365 89.4401 67.5026 89.1484 67.6348 88.875C67.7715 88.6016 67.9652 88.36 68.2158 88.1504C68.471 87.9362 68.7809 87.7699 69.1455 87.6514C69.5146 87.5283 69.9294 87.4668 70.3896 87.4668C71.0322 87.4668 71.5837 87.5693 72.0439 87.7744C72.5088 87.9795 72.8643 88.262 73.1104 88.6221C73.361 88.9775 73.4863 89.3831 73.4863 89.8389H71.5176C71.5176 89.6475 71.4766 89.4766 71.3945 89.3262C71.3171 89.1712 71.194 89.0505 71.0254 88.9639C70.8613 88.8727 70.6471 88.8271 70.3828 88.8271C70.1641 88.8271 69.9749 88.8659 69.8154 88.9434C69.6559 89.0163 69.5329 89.1165 69.4463 89.2441C69.3643 89.3672 69.3232 89.5039 69.3232 89.6543C69.3232 89.7682 69.346 89.8708 69.3916 89.9619C69.4417 90.0485 69.5215 90.1283 69.6309 90.2012C69.7402 90.2741 69.8815 90.3424 70.0547 90.4062C70.2324 90.4655 70.4512 90.5202 70.7109 90.5703C71.2441 90.6797 71.7204 90.8232 72.1396 91.001C72.5589 91.1742 72.8916 91.4111 73.1377 91.7119C73.3838 92.0081 73.5068 92.3978 73.5068 92.8809C73.5068 93.209 73.4339 93.5098 73.2881 93.7832C73.1423 94.0566 72.9326 94.2959 72.6592 94.501C72.3857 94.7015 72.0576 94.8587 71.6748 94.9727C71.2965 95.082 70.8704 95.1367 70.3965 95.1367C69.7083 95.1367 69.125 95.0137 68.6465 94.7676C68.1725 94.5215 67.8125 94.2093 67.5664 93.8311C67.3249 93.4482 67.2041 93.0563 67.2041 92.6553H69.0703C69.0794 92.9242 69.1478 93.1406 69.2754 93.3047C69.4076 93.4688 69.5739 93.5872 69.7744 93.6602C69.9795 93.7331 70.2005 93.7695 70.4375 93.7695C70.6927 93.7695 70.9046 93.7354 71.0732 93.667C71.2419 93.5941 71.3695 93.4984 71.4561 93.3799C71.5472 93.2568 71.5928 93.1156 71.5928 92.9561ZM78.4082 87.6035V88.998H74.1016V87.6035H78.4082ZM75.168 85.7783H77.1367V92.7715C77.1367 92.9857 77.1641 93.1497 77.2188 93.2637C77.278 93.3776 77.3646 93.4574 77.4785 93.5029C77.5924 93.5439 77.736 93.5645 77.9092 93.5645C78.0322 93.5645 78.1416 93.5599 78.2373 93.5508C78.3376 93.5371 78.4219 93.5234 78.4902 93.5098L78.4971 94.959C78.3285 95.0137 78.1462 95.057 77.9502 95.0889C77.7542 95.1208 77.5378 95.1367 77.3008 95.1367C76.8678 95.1367 76.4896 95.0661 76.166 94.9248C75.847 94.779 75.6009 94.5465 75.4277 94.2275C75.2546 93.9085 75.168 93.4893 75.168 92.9697V85.7783ZM84.9844 89.0254V97.8438H83.0156V87.6035H84.8408L84.9844 89.0254ZM89.667 91.2197V91.3633C89.667 91.901 89.6032 92.4001 89.4756 92.8604C89.3525 93.3206 89.1702 93.7217 88.9287 94.0635C88.6872 94.4007 88.3864 94.665 88.0264 94.8564C87.6709 95.0433 87.2607 95.1367 86.7959 95.1367C86.3447 95.1367 85.9528 95.0456 85.6201 94.8633C85.2874 94.681 85.0072 94.4258 84.7793 94.0977C84.556 93.765 84.376 93.3799 84.2393 92.9424C84.1025 92.5049 83.9977 92.0355 83.9248 91.5342V91.1582C83.9977 90.6204 84.1025 90.1283 84.2393 89.6816C84.376 89.2305 84.556 88.8408 84.7793 88.5127C85.0072 88.18 85.2852 87.9225 85.6133 87.7402C85.946 87.5579 86.3356 87.4668 86.7822 87.4668C87.2516 87.4668 87.6641 87.5557 88.0195 87.7334C88.3796 87.9111 88.6803 88.1663 88.9219 88.499C89.168 88.8317 89.3525 89.2282 89.4756 89.6885C89.6032 90.1488 89.667 90.6592 89.667 91.2197ZM87.6914 91.3633V91.2197C87.6914 90.9053 87.6641 90.6159 87.6094 90.3516C87.5592 90.0827 87.4772 89.848 87.3633 89.6475C87.2539 89.4469 87.1081 89.292 86.9258 89.1826C86.748 89.0687 86.5316 89.0117 86.2764 89.0117C86.0075 89.0117 85.7773 89.055 85.5859 89.1416C85.3991 89.2282 85.2464 89.3535 85.1279 89.5176C85.0094 89.6816 84.9206 89.8776 84.8613 90.1055C84.8021 90.3333 84.7656 90.5908 84.752 90.8779V91.8281C84.7747 92.1654 84.8385 92.4684 84.9434 92.7373C85.0482 93.0016 85.21 93.2113 85.4287 93.3662C85.6475 93.5212 85.9346 93.5986 86.29 93.5986C86.5498 93.5986 86.7686 93.5417 86.9463 93.4277C87.124 93.3092 87.2676 93.1475 87.377 92.9424C87.4909 92.7373 87.5706 92.5003 87.6162 92.2314C87.6663 91.9626 87.6914 91.6732 87.6914 91.3633ZM92.8594 89.2168V95H90.8906V87.6035H92.7432L92.8594 89.2168ZM95.0879 87.5557L95.0537 89.3809C94.958 89.3672 94.8418 89.3558 94.7051 89.3467C94.5729 89.333 94.4521 89.3262 94.3428 89.3262C94.0648 89.3262 93.8232 89.3626 93.6182 89.4355C93.4176 89.5039 93.249 89.6064 93.1123 89.7432C92.9801 89.8799 92.8799 90.0462 92.8115 90.2422C92.7477 90.4382 92.7113 90.6615 92.7021 90.9121L92.3057 90.7891C92.3057 90.3105 92.3535 89.8708 92.4492 89.4697C92.5449 89.0641 92.6839 88.7109 92.8662 88.4102C93.0531 88.1094 93.2809 87.877 93.5498 87.7129C93.8187 87.5488 94.1263 87.4668 94.4727 87.4668C94.582 87.4668 94.6937 87.4759 94.8076 87.4941C94.9215 87.5078 95.015 87.5283 95.0879 87.5557ZM95.498 91.377V91.2334C95.498 90.6911 95.5755 90.1921 95.7305 89.7363C95.8854 89.276 96.111 88.8773 96.4072 88.54C96.7035 88.2028 97.068 87.9408 97.501 87.7539C97.9339 87.5625 98.4307 87.4668 98.9912 87.4668C99.5518 87.4668 100.051 87.5625 100.488 87.7539C100.926 87.9408 101.293 88.2028 101.589 88.54C101.89 88.8773 102.118 89.276 102.272 89.7363C102.427 90.1921 102.505 90.6911 102.505 91.2334V91.377C102.505 91.9147 102.427 92.4137 102.272 92.874C102.118 93.3298 101.89 93.7285 101.589 94.0703C101.293 94.4076 100.928 94.6696 100.495 94.8564C100.062 95.0433 99.5654 95.1367 99.0049 95.1367C98.4443 95.1367 97.9453 95.0433 97.5078 94.8564C97.0749 94.6696 96.708 94.4076 96.4072 94.0703C96.111 93.7285 95.8854 93.3298 95.7305 92.874C95.5755 92.4137 95.498 91.9147 95.498 91.377ZM97.4668 91.2334V91.377C97.4668 91.6868 97.4941 91.9762 97.5488 92.2451C97.6035 92.514 97.6901 92.751 97.8086 92.9561C97.9316 93.1566 98.0911 93.3138 98.2871 93.4277C98.4831 93.5417 98.7223 93.5986 99.0049 93.5986C99.2783 93.5986 99.513 93.5417 99.709 93.4277C99.9049 93.3138 100.062 93.1566 100.181 92.9561C100.299 92.751 100.386 92.514 100.44 92.2451C100.5 91.9762 100.529 91.6868 100.529 91.377V91.2334C100.529 90.9326 100.5 90.6501 100.44 90.3857C100.386 90.1169 100.297 89.8799 100.174 89.6748C100.055 89.4652 99.8981 89.3011 99.7021 89.1826C99.5062 89.0641 99.2692 89.0049 98.9912 89.0049C98.7132 89.0049 98.4762 89.0641 98.2803 89.1826C98.0889 89.3011 97.9316 89.4652 97.8086 89.6748C97.6901 89.8799 97.6035 90.1169 97.5488 90.3857C97.4941 90.6501 97.4668 90.9326 97.4668 91.2334ZM12.8857 109.217V115H10.917V107.604H12.7695L12.8857 109.217ZM15.1143 107.556L15.0801 109.381C14.9844 109.367 14.8682 109.356 14.7314 109.347C14.5993 109.333 14.4785 109.326 14.3691 109.326C14.0911 109.326 13.8496 109.363 13.6445 109.436C13.444 109.504 13.2754 109.606 13.1387 109.743C13.0065 109.88 12.9062 110.046 12.8379 110.242C12.7741 110.438 12.7376 110.661 12.7285 110.912L12.332 110.789C12.332 110.311 12.3799 109.871 12.4756 109.47C12.5713 109.064 12.7103 108.711 12.8926 108.41C13.0794 108.109 13.3073 107.877 13.5762 107.713C13.8451 107.549 14.1527 107.467 14.499 107.467C14.6084 107.467 14.7201 107.476 14.834 107.494C14.9479 107.508 15.0413 107.528 15.1143 107.556ZM15.5244 111.377V111.233C15.5244 110.691 15.6019 110.192 15.7568 109.736C15.9118 109.276 16.1374 108.877 16.4336 108.54C16.7298 108.203 17.0944 107.941 17.5273 107.754C17.9603 107.562 18.457 107.467 19.0176 107.467C19.5781 107.467 20.0771 107.562 20.5146 107.754C20.9521 107.941 21.319 108.203 21.6152 108.54C21.916 108.877 22.1439 109.276 22.2988 109.736C22.4538 110.192 22.5312 110.691 22.5312 111.233V111.377C22.5312 111.915 22.4538 112.414 22.2988 112.874C22.1439 113.33 21.916 113.729 21.6152 114.07C21.319 114.408 20.9544 114.67 20.5215 114.856C20.0885 115.043 19.5918 115.137 19.0312 115.137C18.4707 115.137 17.9717 115.043 17.5342 114.856C17.1012 114.67 16.7344 114.408 16.4336 114.07C16.1374 113.729 15.9118 113.33 15.7568 112.874C15.6019 112.414 15.5244 111.915 15.5244 111.377ZM17.4932 111.233V111.377C17.4932 111.687 17.5205 111.976 17.5752 112.245C17.6299 112.514 17.7165 112.751 17.835 112.956C17.958 113.157 18.1175 113.314 18.3135 113.428C18.5094 113.542 18.7487 113.599 19.0312 113.599C19.3047 113.599 19.5394 113.542 19.7354 113.428C19.9313 113.314 20.0885 113.157 20.207 112.956C20.3255 112.751 20.4121 112.514 20.4668 112.245C20.526 111.976 20.5557 111.687 20.5557 111.377V111.233C20.5557 110.933 20.526 110.65 20.4668 110.386C20.4121 110.117 20.3232 109.88 20.2002 109.675C20.0817 109.465 19.9245 109.301 19.7285 109.183C19.5326 109.064 19.2956 109.005 19.0176 109.005C18.7396 109.005 18.5026 109.064 18.3066 109.183C18.1152 109.301 17.958 109.465 17.835 109.675C17.7165 109.88 17.6299 110.117 17.5752 110.386C17.5205 110.65 17.4932 110.933 17.4932 111.233ZM28.1094 113.387V104.5H30.0918V115H28.3076L28.1094 113.387ZM23.4336 111.391V111.247C23.4336 110.682 23.4974 110.169 23.625 109.709C23.7526 109.244 23.9395 108.845 24.1855 108.513C24.4316 108.18 24.7347 107.923 25.0947 107.74C25.4548 107.558 25.8649 107.467 26.3252 107.467C26.7581 107.467 27.1364 107.558 27.46 107.74C27.7881 107.923 28.0661 108.182 28.2939 108.52C28.5264 108.852 28.7132 109.246 28.8545 109.702C28.9958 110.153 29.0983 110.648 29.1621 111.186V111.5C29.0983 112.015 28.9958 112.493 28.8545 112.936C28.7132 113.378 28.5264 113.765 28.2939 114.098C28.0661 114.426 27.7881 114.681 27.46 114.863C27.1318 115.046 26.749 115.137 26.3115 115.137C25.8512 115.137 25.4411 115.043 25.0811 114.856C24.7256 114.67 24.4248 114.408 24.1787 114.07C23.9372 113.733 23.7526 113.337 23.625 112.881C23.4974 112.425 23.4336 111.928 23.4336 111.391ZM25.4023 111.247V111.391C25.4023 111.696 25.4251 111.981 25.4707 112.245C25.5208 112.509 25.6006 112.744 25.71 112.949C25.8239 113.15 25.9697 113.307 26.1475 113.421C26.3298 113.53 26.5508 113.585 26.8105 113.585C27.1478 113.585 27.4258 113.51 27.6445 113.359C27.8633 113.204 28.0296 112.993 28.1436 112.724C28.262 112.455 28.3304 112.145 28.3486 111.794V110.898C28.335 110.611 28.2939 110.354 28.2256 110.126C28.1618 109.894 28.0661 109.695 27.9385 109.531C27.8154 109.367 27.6605 109.24 27.4736 109.148C27.2913 109.057 27.0749 109.012 26.8242 109.012C26.569 109.012 26.3503 109.071 26.168 109.189C25.9857 109.303 25.8376 109.461 25.7236 109.661C25.6143 109.862 25.5322 110.099 25.4775 110.372C25.4274 110.641 25.4023 110.933 25.4023 111.247ZM33.708 107.604V115H31.7324V107.604H33.708ZM31.6094 105.676C31.6094 105.389 31.7096 105.152 31.9102 104.965C32.1107 104.778 32.3796 104.685 32.7168 104.685C33.0495 104.685 33.3161 104.778 33.5166 104.965C33.7217 105.152 33.8242 105.389 33.8242 105.676C33.8242 105.963 33.7217 106.2 33.5166 106.387C33.3161 106.574 33.0495 106.667 32.7168 106.667C32.3796 106.667 32.1107 106.574 31.9102 106.387C31.7096 106.2 31.6094 105.963 31.6094 105.676ZM37.2627 109.183V115H35.2939V107.604H37.1396L37.2627 109.183ZM36.9756 111.042H36.4424C36.4424 110.495 36.513 110.003 36.6543 109.565C36.7956 109.123 36.9938 108.747 37.249 108.438C37.5042 108.123 37.8073 107.884 38.1582 107.72C38.5137 107.551 38.9102 107.467 39.3477 107.467C39.694 107.467 40.0107 107.517 40.2979 107.617C40.585 107.717 40.8311 107.877 41.0361 108.096C41.2458 108.314 41.4053 108.604 41.5146 108.964C41.6286 109.324 41.6855 109.764 41.6855 110.283V115H39.7031V110.276C39.7031 109.948 39.6576 109.693 39.5664 109.511C39.4753 109.328 39.3408 109.201 39.1631 109.128C38.9899 109.05 38.7757 109.012 38.5205 109.012C38.2562 109.012 38.026 109.064 37.8301 109.169C37.6387 109.274 37.4792 109.42 37.3516 109.606C37.2285 109.789 37.1351 110.003 37.0713 110.249C37.0075 110.495 36.9756 110.759 36.9756 111.042ZM45.1104 109.183V115H43.1416V107.604H44.9873L45.1104 109.183ZM44.8232 111.042H44.29C44.29 110.495 44.3607 110.003 44.502 109.565C44.6432 109.123 44.8415 108.747 45.0967 108.438C45.3519 108.123 45.6549 107.884 46.0059 107.72C46.3613 107.551 46.7578 107.467 47.1953 107.467C47.5417 107.467 47.8584 107.517 48.1455 107.617C48.4326 107.717 48.6787 107.877 48.8838 108.096C49.0934 108.314 49.2529 108.604 49.3623 108.964C49.4762 109.324 49.5332 109.764 49.5332 110.283V115H47.5508V110.276C47.5508 109.948 47.5052 109.693 47.4141 109.511C47.3229 109.328 47.1885 109.201 47.0107 109.128C46.8376 109.05 46.6234 109.012 46.3682 109.012C46.1038 109.012 45.8737 109.064 45.6777 109.169C45.4863 109.274 45.3268 109.42 45.1992 109.606C45.0762 109.789 44.9827 110.003 44.9189 110.249C44.8551 110.495 44.8232 110.759 44.8232 111.042ZM54.4346 115.137C53.8604 115.137 53.3454 115.046 52.8896 114.863C52.4339 114.676 52.0465 114.419 51.7275 114.091C51.4131 113.763 51.1715 113.382 51.0029 112.949C50.8343 112.512 50.75 112.047 50.75 111.555V111.281C50.75 110.721 50.8298 110.208 50.9893 109.743C51.1488 109.278 51.3766 108.875 51.6729 108.533C51.9736 108.191 52.3382 107.929 52.7666 107.747C53.195 107.56 53.6781 107.467 54.2158 107.467C54.7399 107.467 55.2048 107.553 55.6104 107.727C56.016 107.9 56.3555 108.146 56.6289 108.465C56.9069 108.784 57.1165 109.167 57.2578 109.613C57.3991 110.055 57.4697 110.548 57.4697 111.09V111.91H51.5908V110.598H55.5352V110.447C55.5352 110.174 55.485 109.93 55.3848 109.716C55.2891 109.497 55.1432 109.324 54.9473 109.196C54.7513 109.069 54.5007 109.005 54.1953 109.005C53.9355 109.005 53.7122 109.062 53.5254 109.176C53.3385 109.29 53.1859 109.449 53.0674 109.654C52.9535 109.859 52.8669 110.101 52.8076 110.379C52.7529 110.652 52.7256 110.953 52.7256 111.281V111.555C52.7256 111.851 52.7666 112.124 52.8486 112.375C52.9352 112.626 53.056 112.842 53.2109 113.024C53.3704 113.207 53.5618 113.348 53.7852 113.448C54.013 113.549 54.2705 113.599 54.5576 113.599C54.9131 113.599 55.2435 113.53 55.5488 113.394C55.8587 113.252 56.1253 113.04 56.3486 112.758L57.3057 113.797C57.1507 114.02 56.9388 114.234 56.6699 114.439C56.4056 114.645 56.0866 114.813 55.7129 114.945C55.3392 115.073 54.9131 115.137 54.4346 115.137ZM53.0469 106.599L54.3867 104.493H56.5264L54.6465 106.599H53.0469ZM60.5117 104.5V115H58.543V104.5H60.5117ZM60.2314 111.042H59.6914C59.696 110.527 59.7643 110.053 59.8965 109.62C60.0286 109.183 60.2178 108.804 60.4639 108.485C60.71 108.162 61.0039 107.911 61.3457 107.733C61.6921 107.556 62.0749 107.467 62.4941 107.467C62.8587 107.467 63.1891 107.519 63.4854 107.624C63.7861 107.724 64.0436 107.888 64.2578 108.116C64.4766 108.34 64.6452 108.633 64.7637 108.998C64.8822 109.363 64.9414 109.805 64.9414 110.324V115H62.959V110.311C62.959 109.982 62.9111 109.725 62.8154 109.538C62.7243 109.347 62.5898 109.212 62.4121 109.135C62.2389 109.053 62.0247 109.012 61.7695 109.012C61.487 109.012 61.2454 109.064 61.0449 109.169C60.849 109.274 60.6917 109.42 60.5732 109.606C60.4548 109.789 60.3682 110.003 60.3135 110.249C60.2588 110.495 60.2314 110.759 60.2314 111.042ZM66.124 111.377V111.233C66.124 110.691 66.2015 110.192 66.3564 109.736C66.5114 109.276 66.737 108.877 67.0332 108.54C67.3294 108.203 67.694 107.941 68.127 107.754C68.5599 107.562 69.0566 107.467 69.6172 107.467C70.1777 107.467 70.6768 107.562 71.1143 107.754C71.5518 107.941 71.9186 108.203 72.2148 108.54C72.5156 108.877 72.7435 109.276 72.8984 109.736C73.0534 110.192 73.1309 110.691 73.1309 111.233V111.377C73.1309 111.915 73.0534 112.414 72.8984 112.874C72.7435 113.33 72.5156 113.729 72.2148 114.07C71.9186 114.408 71.554 114.67 71.1211 114.856C70.6882 115.043 70.1914 115.137 69.6309 115.137C69.0703 115.137 68.5713 115.043 68.1338 114.856C67.7008 114.67 67.334 114.408 67.0332 114.07C66.737 113.729 66.5114 113.33 66.3564 112.874C66.2015 112.414 66.124 111.915 66.124 111.377ZM68.0928 111.233V111.377C68.0928 111.687 68.1201 111.976 68.1748 112.245C68.2295 112.514 68.3161 112.751 68.4346 112.956C68.5576 113.157 68.7171 113.314 68.9131 113.428C69.109 113.542 69.3483 113.599 69.6309 113.599C69.9043 113.599 70.139 113.542 70.335 113.428C70.5309 113.314 70.6882 113.157 70.8066 112.956C70.9251 112.751 71.0117 112.514 71.0664 112.245C71.1257 111.976 71.1553 111.687 71.1553 111.377V111.233C71.1553 110.933 71.1257 110.65 71.0664 110.386C71.0117 110.117 70.9229 109.88 70.7998 109.675C70.6813 109.465 70.5241 109.301 70.3281 109.183C70.1322 109.064 69.8952 109.005 69.6172 109.005C69.3392 109.005 69.1022 109.064 68.9062 109.183C68.7148 109.301 68.5576 109.465 68.4346 109.675C68.3161 109.88 68.2295 110.117 68.1748 110.386C68.1201 110.65 68.0928 110.933 68.0928 111.233ZM79.9053 104.5V115H77.9297V104.5H79.9053ZM84.9365 115.137C84.3623 115.137 83.8473 115.046 83.3916 114.863C82.9359 114.676 82.5485 114.419 82.2295 114.091C81.915 113.763 81.6735 113.382 81.5049 112.949C81.3363 112.512 81.252 112.047 81.252 111.555V111.281C81.252 110.721 81.3317 110.208 81.4912 109.743C81.6507 109.278 81.8786 108.875 82.1748 108.533C82.4756 108.191 82.8402 107.929 83.2686 107.747C83.6969 107.56 84.18 107.467 84.7178 107.467C85.2419 107.467 85.7067 107.553 86.1123 107.727C86.5179 107.9 86.8574 108.146 87.1309 108.465C87.4089 108.784 87.6185 109.167 87.7598 109.613C87.901 110.055 87.9717 110.548 87.9717 111.09V111.91H82.0928V110.598H86.0371V110.447C86.0371 110.174 85.987 109.93 85.8867 109.716C85.791 109.497 85.6452 109.324 85.4492 109.196C85.2533 109.069 85.0026 109.005 84.6973 109.005C84.4375 109.005 84.2142 109.062 84.0273 109.176C83.8405 109.29 83.6878 109.449 83.5693 109.654C83.4554 109.859 83.3688 110.101 83.3096 110.379C83.2549 110.652 83.2275 110.953 83.2275 111.281V111.555C83.2275 111.851 83.2686 112.124 83.3506 112.375C83.4372 112.626 83.5579 112.842 83.7129 113.024C83.8724 113.207 84.0638 113.348 84.2871 113.448C84.515 113.549 84.7725 113.599 85.0596 113.599C85.415 113.599 85.7454 113.53 86.0508 113.394C86.3607 113.252 86.6273 113.04 86.8506 112.758L87.8076 113.797C87.6527 114.02 87.4408 114.234 87.1719 114.439C86.9076 114.645 86.5885 114.813 86.2148 114.945C85.8411 115.073 85.415 115.137 84.9365 115.137ZM83.5488 106.599L84.8887 104.493H87.0283L85.1484 106.599H83.5488ZM91.0615 104.493V115H89.0928V104.493H91.0615ZM95.7236 107.604L92.5107 111.268L90.7881 113.011L90.0703 111.589L91.4375 109.853L93.3584 107.604H95.7236ZM93.6797 115L91.4922 111.582L92.8525 110.393L95.9492 115H93.6797ZM100.563 113.332V110.037C100.563 109.8 100.525 109.597 100.447 109.429C100.37 109.256 100.249 109.121 100.085 109.025C99.9255 108.93 99.7181 108.882 99.4629 108.882C99.2441 108.882 99.055 108.921 98.8955 108.998C98.736 109.071 98.613 109.178 98.5264 109.319C98.4398 109.456 98.3965 109.618 98.3965 109.805H96.4277C96.4277 109.49 96.5007 109.192 96.6465 108.909C96.7923 108.627 97.0042 108.378 97.2822 108.164C97.5602 107.945 97.8906 107.774 98.2734 107.651C98.6608 107.528 99.0938 107.467 99.5723 107.467C100.146 107.467 100.657 107.562 101.104 107.754C101.55 107.945 101.901 108.232 102.156 108.615C102.416 108.998 102.546 109.477 102.546 110.051V113.216C102.546 113.621 102.571 113.954 102.621 114.214C102.671 114.469 102.744 114.692 102.84 114.884V115H100.851C100.755 114.799 100.682 114.549 100.632 114.248C100.586 113.943 100.563 113.637 100.563 113.332ZM100.823 110.495L100.837 111.609H99.7363C99.4766 111.609 99.251 111.639 99.0596 111.698C98.8682 111.757 98.7109 111.842 98.5879 111.951C98.4648 112.056 98.3737 112.179 98.3145 112.32C98.2598 112.462 98.2324 112.617 98.2324 112.785C98.2324 112.954 98.2712 113.106 98.3486 113.243C98.4261 113.375 98.5378 113.48 98.6836 113.558C98.8294 113.631 99.0003 113.667 99.1963 113.667C99.4925 113.667 99.75 113.608 99.9688 113.489C100.188 113.371 100.356 113.225 100.475 113.052C100.598 112.879 100.661 112.715 100.666 112.56L101.186 113.394C101.113 113.58 101.012 113.774 100.885 113.975C100.762 114.175 100.604 114.364 100.413 114.542C100.222 114.715 99.9915 114.859 99.7227 114.973C99.4538 115.082 99.1348 115.137 98.7656 115.137C98.2962 115.137 97.8701 115.043 97.4873 114.856C97.109 114.665 96.8083 114.403 96.585 114.07C96.3662 113.733 96.2568 113.35 96.2568 112.922C96.2568 112.535 96.3298 112.19 96.4756 111.89C96.6214 111.589 96.8356 111.336 97.1182 111.131C97.4053 110.921 97.763 110.764 98.1914 110.659C98.6198 110.55 99.1165 110.495 99.6816 110.495H100.823ZM106.032 109.217V115H104.063V107.604H105.916L106.032 109.217ZM108.261 107.556L108.227 109.381C108.131 109.367 108.015 109.356 107.878 109.347C107.746 109.333 107.625 109.326 107.516 109.326C107.238 109.326 106.996 109.363 106.791 109.436C106.59 109.504 106.422 109.606 106.285 109.743C106.153 109.88 106.053 110.046 105.984 110.242C105.921 110.438 105.884 110.661 105.875 110.912L105.479 110.789C105.479 110.311 105.526 109.871 105.622 109.47C105.718 109.064 105.857 108.711 106.039 108.41C106.226 108.109 106.454 107.877 106.723 107.713C106.992 107.549 107.299 107.467 107.646 107.467C107.755 107.467 107.867 107.476 107.98 107.494C108.094 107.508 108.188 107.528 108.261 107.556ZM105.096 104.5L106.107 105.491L107.119 104.5H108.801V104.568L106.736 106.482H105.485L103.414 104.562V104.5H105.096ZM112.458 115.137C111.884 115.137 111.369 115.046 110.913 114.863C110.457 114.676 110.07 114.419 109.751 114.091C109.437 113.763 109.195 113.382 109.026 112.949C108.858 112.512 108.773 112.047 108.773 111.555V111.281C108.773 110.721 108.853 110.208 109.013 109.743C109.172 109.278 109.4 108.875 109.696 108.533C109.997 108.191 110.362 107.929 110.79 107.747C111.218 107.56 111.701 107.467 112.239 107.467C112.763 107.467 113.228 107.553 113.634 107.727C114.039 107.9 114.379 108.146 114.652 108.465C114.93 108.784 115.14 109.167 115.281 109.613C115.423 110.055 115.493 110.548 115.493 111.09V111.91H109.614V110.598H113.559V110.447C113.559 110.174 113.508 109.93 113.408 109.716C113.312 109.497 113.167 109.324 112.971 109.196C112.775 109.069 112.524 109.005 112.219 109.005C111.959 109.005 111.736 109.062 111.549 109.176C111.362 109.29 111.209 109.449 111.091 109.654C110.977 109.859 110.89 110.101 110.831 110.379C110.776 110.652 110.749 110.953 110.749 111.281V111.555C110.749 111.851 110.79 112.124 110.872 112.375C110.959 112.626 111.079 112.842 111.234 113.024C111.394 113.207 111.585 113.348 111.809 113.448C112.036 113.549 112.294 113.599 112.581 113.599C112.937 113.599 113.267 113.53 113.572 113.394C113.882 113.252 114.149 113.04 114.372 112.758L115.329 113.797C115.174 114.02 114.962 114.234 114.693 114.439C114.429 114.645 114.11 114.813 113.736 114.945C113.363 115.073 112.937 115.137 112.458 115.137Z" fill="#050706"/>
</svg>
