<svg width="150" height="122" viewBox="0 0 150 122" fill="none" xmlns="http://www.w3.org/2000/svg">
<path d="M75 0C91.8 0 103 4.4 103 10V12V16C105.213 16 107 17.7875 107 20V28C107 30.2125 105.213 32 103 32V52C103 54.2125 101.213 56 99 56V60C99 62.2125 97.2125 64 95 64H91C88.7875 64 87 62.2125 87 60V56H63V60C63 62.2125 61.2125 64 59 64H55C52.7875 64 51 62.2125 51 60V56C48.7875 56 47 54.2125 47 52V32C44.7875 32 43 30.2125 43 28V20C43 17.7875 44.7875 16 47 16V12V10C47 4.4 58.2 0 75 0ZM55 20V32C55 34.2125 56.7875 36 59 36H73V16H59C56.7875 16 55 17.7875 55 20ZM77 36H91C93.2125 36 95 34.2125 95 32V20C95 17.7875 93.2125 16 91 16H77V36ZM57 50C58.0609 50 59.0783 49.5786 59.8284 48.8284C60.5786 48.0783 61 47.0609 61 46C61 44.9391 60.5786 43.9217 59.8284 43.1716C59.0783 42.4214 58.0609 42 57 42C55.9391 42 54.9217 42.4214 54.1716 43.1716C53.4214 43.9217 53 44.9391 53 46C53 47.0609 53.4214 48.0783 54.1716 48.8284C54.9217 49.5786 55.9391 50 57 50ZM93 50C94.0609 50 95.0783 49.5786 95.8284 48.8284C96.5786 48.0783 97 47.0609 97 46C97 44.9391 96.5786 43.9217 95.8284 43.1716C95.0783 42.4214 94.0609 42 93 42C91.9391 42 90.9217 42.4214 90.1716 43.1716C89.4214 43.9217 89 44.9391 89 46C89 47.0609 89.4214 48.0783 90.1716 48.8284C90.9217 49.5786 91.9391 50 93 50ZM87 10C87 8.9 86.1 8 85 8H65C63.9 8 63 8.9 63 10C63 11.1 63.9 12 65 12H85C86.1 12 87 11.1 87 10Z" fill="#7A9D8C"/>
<path d="M28.4814 92.3955C28.4814 92.2178 28.4541 92.0583 28.3994 91.917C28.3493 91.7712 28.2536 91.639 28.1123 91.5205C27.971 91.3975 27.7728 91.2767 27.5176 91.1582C27.2624 91.0397 26.932 90.9167 26.5264 90.7891C26.0752 90.6432 25.6468 90.4792 25.2412 90.2969C24.8402 90.1146 24.4847 89.9027 24.1748 89.6611C23.8695 89.415 23.6279 89.1302 23.4502 88.8066C23.277 88.4831 23.1904 88.1071 23.1904 87.6787C23.1904 87.264 23.2816 86.888 23.4639 86.5508C23.6462 86.209 23.9014 85.9173 24.2295 85.6758C24.5576 85.4297 24.945 85.2406 25.3916 85.1084C25.8428 84.9762 26.3372 84.9102 26.875 84.9102C27.6087 84.9102 28.249 85.0423 28.7959 85.3066C29.3428 85.571 29.7666 85.9333 30.0674 86.3936C30.3727 86.8538 30.5254 87.3802 30.5254 87.9727H28.4883C28.4883 87.681 28.4268 87.4258 28.3037 87.207C28.1852 86.9837 28.0029 86.8083 27.7568 86.6807C27.5153 86.5531 27.21 86.4893 26.8408 86.4893C26.4854 86.4893 26.1891 86.5439 25.9521 86.6533C25.7152 86.7581 25.5374 86.9017 25.4189 87.084C25.3005 87.2617 25.2412 87.4622 25.2412 87.6855C25.2412 87.8542 25.2822 88.0068 25.3643 88.1436C25.4508 88.2803 25.5785 88.4079 25.7471 88.5264C25.9157 88.6449 26.123 88.7565 26.3691 88.8613C26.6152 88.9661 26.9001 89.0687 27.2236 89.1689C27.766 89.333 28.2422 89.5176 28.6523 89.7227C29.0671 89.9277 29.4134 90.1579 29.6914 90.4131C29.9694 90.6683 30.179 90.9577 30.3203 91.2812C30.4616 91.6048 30.5322 91.9717 30.5322 92.3818C30.5322 92.8148 30.4479 93.2021 30.2793 93.5439C30.1107 93.8857 29.8669 94.1751 29.5479 94.4121C29.2288 94.6491 28.8483 94.8291 28.4062 94.9521C27.9642 95.0752 27.4697 95.1367 26.9229 95.1367C26.4307 95.1367 25.9453 95.0729 25.4668 94.9453C24.9883 94.8132 24.5531 94.6149 24.1611 94.3506C23.7738 94.0863 23.4639 93.749 23.2314 93.3389C22.999 92.9287 22.8828 92.4434 22.8828 91.8828H24.9404C24.9404 92.1927 24.9883 92.4548 25.084 92.6689C25.1797 92.8831 25.3141 93.0563 25.4873 93.1885C25.665 93.3206 25.8747 93.4163 26.1162 93.4756C26.3623 93.5348 26.6312 93.5645 26.9229 93.5645C27.2783 93.5645 27.57 93.5143 27.7979 93.4141C28.0303 93.3138 28.2012 93.1748 28.3105 92.9971C28.4245 92.8193 28.4814 92.6188 28.4814 92.3955ZM33.7246 84.5V95H31.7559V84.5H33.7246ZM33.4443 91.042H32.9043C32.9089 90.527 32.9772 90.0531 33.1094 89.6201C33.2415 89.1826 33.4307 88.8044 33.6768 88.4854C33.9229 88.1618 34.2168 87.9111 34.5586 87.7334C34.9049 87.5557 35.2878 87.4668 35.707 87.4668C36.0716 87.4668 36.402 87.5192 36.6982 87.624C36.999 87.7243 37.2565 87.8883 37.4707 88.1162C37.6895 88.3395 37.8581 88.6335 37.9766 88.998C38.0951 89.3626 38.1543 89.8047 38.1543 90.3242V95H36.1719V90.3105C36.1719 89.9824 36.124 89.7249 36.0283 89.5381C35.9372 89.3467 35.8027 89.2122 35.625 89.1348C35.4518 89.0527 35.2376 89.0117 34.9824 89.0117C34.6999 89.0117 34.4583 89.0641 34.2578 89.1689C34.0618 89.2738 33.9046 89.4196 33.7861 89.6064C33.6676 89.7887 33.5811 90.0029 33.5264 90.249C33.4717 90.4951 33.4443 90.7594 33.4443 91.042ZM44.0264 93.2295V87.6035H45.9951V95H44.1426L44.0264 93.2295ZM44.2451 91.7119L44.8262 91.6982C44.8262 92.1904 44.7692 92.6484 44.6553 93.0723C44.5413 93.4915 44.3704 93.8561 44.1426 94.166C43.9147 94.4714 43.6276 94.7106 43.2812 94.8838C42.9349 95.0524 42.527 95.1367 42.0576 95.1367C41.6976 95.1367 41.3649 95.0866 41.0596 94.9863C40.7588 94.8815 40.499 94.7197 40.2803 94.501C40.0661 94.2777 39.8975 93.9928 39.7744 93.6465C39.6559 93.2956 39.5967 92.874 39.5967 92.3818V87.6035H41.5654V92.3955C41.5654 92.6143 41.5905 92.7988 41.6406 92.9492C41.6953 93.0996 41.7705 93.2227 41.8662 93.3184C41.9619 93.4141 42.0736 93.4824 42.2012 93.5234C42.3333 93.5645 42.4792 93.585 42.6387 93.585C43.0443 93.585 43.3633 93.5029 43.5957 93.3389C43.8327 93.1748 43.999 92.9515 44.0947 92.6689C44.195 92.3818 44.2451 92.0628 44.2451 91.7119ZM51.1221 87.6035V88.998H46.8154V87.6035H51.1221ZM47.8818 85.7783H49.8506V92.7715C49.8506 92.9857 49.8779 93.1497 49.9326 93.2637C49.9919 93.3776 50.0785 93.4574 50.1924 93.5029C50.3063 93.5439 50.4499 93.5645 50.623 93.5645C50.7461 93.5645 50.8555 93.5599 50.9512 93.5508C51.0514 93.5371 51.1357 93.5234 51.2041 93.5098L51.2109 94.959C51.0423 95.0137 50.86 95.057 50.6641 95.0889C50.4681 95.1208 50.2516 95.1367 50.0146 95.1367C49.5817 95.1367 49.2035 95.0661 48.8799 94.9248C48.5609 94.779 48.3148 94.5465 48.1416 94.2275C47.9684 93.9085 47.8818 93.4893 47.8818 92.9697V85.7783ZM55.8662 87.6035V88.998H51.5596V87.6035H55.8662ZM52.626 85.7783H54.5947V92.7715C54.5947 92.9857 54.6221 93.1497 54.6768 93.2637C54.736 93.3776 54.8226 93.4574 54.9365 93.5029C55.0505 93.5439 55.194 93.5645 55.3672 93.5645C55.4902 93.5645 55.5996 93.5599 55.6953 93.5508C55.7956 93.5371 55.8799 93.5234 55.9482 93.5098L55.9551 94.959C55.7865 95.0137 55.6042 95.057 55.4082 95.0889C55.2122 95.1208 54.9958 95.1367 54.7588 95.1367C54.3258 95.1367 53.9476 95.0661 53.624 94.9248C53.305 94.779 53.0589 94.5465 52.8857 94.2275C52.7126 93.9085 52.626 93.4893 52.626 92.9697V85.7783ZM59.0654 84.5V95H57.0898V84.5H59.0654ZM64.0967 95.1367C63.5225 95.1367 63.0075 95.0456 62.5518 94.8633C62.096 94.6764 61.7087 94.4189 61.3896 94.0908C61.0752 93.7627 60.8337 93.3822 60.665 92.9492C60.4964 92.5117 60.4121 92.0469 60.4121 91.5547V91.2812C60.4121 90.7207 60.4919 90.208 60.6514 89.7432C60.8109 89.2783 61.0387 88.875 61.335 88.5332C61.6357 88.1914 62.0003 87.9294 62.4287 87.7471C62.8571 87.5602 63.3402 87.4668 63.8779 87.4668C64.402 87.4668 64.8669 87.5534 65.2725 87.7266C65.6781 87.8997 66.0176 88.1458 66.291 88.4648C66.569 88.7839 66.7786 89.1667 66.9199 89.6133C67.0612 90.0553 67.1318 90.5475 67.1318 91.0898V91.9102H61.2529V90.5977H65.1973V90.4473C65.1973 90.1738 65.1471 89.93 65.0469 89.7158C64.9512 89.4971 64.8053 89.3239 64.6094 89.1963C64.4134 89.0687 64.1628 89.0049 63.8574 89.0049C63.5977 89.0049 63.3743 89.0618 63.1875 89.1758C63.0007 89.2897 62.848 89.4492 62.7295 89.6543C62.6156 89.8594 62.529 90.1009 62.4697 90.3789C62.415 90.6523 62.3877 90.9531 62.3877 91.2812V91.5547C62.3877 91.8509 62.4287 92.1243 62.5107 92.375C62.5973 92.6257 62.7181 92.8421 62.873 93.0244C63.0326 93.2067 63.224 93.348 63.4473 93.4482C63.6751 93.5485 63.9326 93.5986 64.2197 93.5986C64.5752 93.5986 64.9056 93.5303 65.2109 93.3936C65.5208 93.2523 65.7874 93.0404 66.0107 92.7578L66.9678 93.7969C66.8128 94.0202 66.6009 94.2344 66.332 94.4395C66.0677 94.6445 65.7487 94.8132 65.375 94.9453C65.0013 95.0729 64.5752 95.1367 64.0967 95.1367ZM75.6221 89.9551V91.5H71.7598V89.9551H75.6221ZM82.7178 89.0254V97.8438H80.749V87.6035H82.5742L82.7178 89.0254ZM87.4004 91.2197V91.3633C87.4004 91.901 87.3366 92.4001 87.209 92.8604C87.0859 93.3206 86.9036 93.7217 86.6621 94.0635C86.4206 94.4007 86.1198 94.665 85.7598 94.8564C85.4043 95.0433 84.9941 95.1367 84.5293 95.1367C84.0781 95.1367 83.6862 95.0456 83.3535 94.8633C83.0208 94.681 82.7406 94.4258 82.5127 94.0977C82.2894 93.765 82.1094 93.3799 81.9727 92.9424C81.8359 92.5049 81.7311 92.0355 81.6582 91.5342V91.1582C81.7311 90.6204 81.8359 90.1283 81.9727 89.6816C82.1094 89.2305 82.2894 88.8408 82.5127 88.5127C82.7406 88.18 83.0186 87.9225 83.3467 87.7402C83.6794 87.5579 84.069 87.4668 84.5156 87.4668C84.985 87.4668 85.3975 87.5557 85.7529 87.7334C86.113 87.9111 86.4137 88.1663 86.6553 88.499C86.9014 88.8317 87.0859 89.2282 87.209 89.6885C87.3366 90.1488 87.4004 90.6592 87.4004 91.2197ZM85.4248 91.3633V91.2197C85.4248 90.9053 85.3975 90.6159 85.3428 90.3516C85.2926 90.0827 85.2106 89.848 85.0967 89.6475C84.9873 89.4469 84.8415 89.292 84.6592 89.1826C84.4814 89.0687 84.265 89.0117 84.0098 89.0117C83.7409 89.0117 83.5107 89.055 83.3193 89.1416C83.1325 89.2282 82.9798 89.3535 82.8613 89.5176C82.7428 89.6816 82.654 89.8776 82.5947 90.1055C82.5355 90.3333 82.499 90.5908 82.4854 90.8779V91.8281C82.5081 92.1654 82.5719 92.4684 82.6768 92.7373C82.7816 93.0016 82.9434 93.2113 83.1621 93.3662C83.3809 93.5212 83.668 93.5986 84.0234 93.5986C84.2832 93.5986 84.502 93.5417 84.6797 93.4277C84.8574 93.3092 85.001 93.1475 85.1104 92.9424C85.2243 92.7373 85.304 92.5003 85.3496 92.2314C85.3997 91.9626 85.4248 91.6732 85.4248 91.3633ZM90.5928 89.2168V95H88.624V87.6035H90.4766L90.5928 89.2168ZM92.8213 87.5557L92.7871 89.3809C92.6914 89.3672 92.5752 89.3558 92.4385 89.3467C92.3063 89.333 92.1855 89.3262 92.0762 89.3262C91.7982 89.3262 91.5566 89.3626 91.3516 89.4355C91.151 89.5039 90.9824 89.6064 90.8457 89.7432C90.7135 89.8799 90.6133 90.0462 90.5449 90.2422C90.4811 90.4382 90.4447 90.6615 90.4355 90.9121L90.0391 90.7891C90.0391 90.3105 90.0869 89.8708 90.1826 89.4697C90.2783 89.0641 90.4173 88.7109 90.5996 88.4102C90.7865 88.1094 91.0143 87.877 91.2832 87.7129C91.5521 87.5488 91.8597 87.4668 92.2061 87.4668C92.3154 87.4668 92.4271 87.4759 92.541 87.4941C92.6549 87.5078 92.7484 87.5283 92.8213 87.5557ZM95.8291 87.6035V95H93.8535V87.6035H95.8291ZM93.7305 85.6758C93.7305 85.3887 93.8307 85.1517 94.0312 84.9648C94.2318 84.778 94.5007 84.6846 94.8379 84.6846C95.1706 84.6846 95.4372 84.778 95.6377 84.9648C95.8428 85.1517 95.9453 85.3887 95.9453 85.6758C95.9453 85.9629 95.8428 86.1999 95.6377 86.3867C95.4372 86.5736 95.1706 86.667 94.8379 86.667C94.5007 86.667 94.2318 86.5736 94.0312 86.3867C93.8307 86.1999 93.7305 85.9629 93.7305 85.6758ZM99.9717 93.5645L101.612 87.6035H103.67L101.175 95H99.9307L99.9717 93.5645ZM98.8438 87.6035L100.491 93.5713L100.525 95H99.2744L96.7793 87.6035H98.8438ZM108.435 93.332V90.0371C108.435 89.8001 108.396 89.5973 108.318 89.4287C108.241 89.2555 108.12 89.1211 107.956 89.0254C107.797 88.9297 107.589 88.8818 107.334 88.8818C107.115 88.8818 106.926 88.9206 106.767 88.998C106.607 89.071 106.484 89.1781 106.397 89.3193C106.311 89.4561 106.268 89.6178 106.268 89.8047H104.299C104.299 89.4902 104.372 89.1917 104.518 88.9092C104.663 88.6266 104.875 88.3783 105.153 88.1641C105.431 87.9453 105.762 87.7744 106.145 87.6514C106.532 87.5283 106.965 87.4668 107.443 87.4668C108.018 87.4668 108.528 87.5625 108.975 87.7539C109.421 87.9453 109.772 88.2324 110.027 88.6152C110.287 88.998 110.417 89.4766 110.417 90.0508V93.2158C110.417 93.6214 110.442 93.9541 110.492 94.2139C110.542 94.4691 110.615 94.6924 110.711 94.8838V95H108.722C108.626 94.7995 108.553 94.5488 108.503 94.248C108.457 93.9427 108.435 93.6374 108.435 93.332ZM108.694 90.4951L108.708 91.6094H107.607C107.348 91.6094 107.122 91.639 106.931 91.6982C106.739 91.7575 106.582 91.8418 106.459 91.9512C106.336 92.056 106.245 92.179 106.186 92.3203C106.131 92.4616 106.104 92.6165 106.104 92.7852C106.104 92.9538 106.142 93.1064 106.22 93.2432C106.297 93.3753 106.409 93.4801 106.555 93.5576C106.701 93.6305 106.871 93.667 107.067 93.667C107.364 93.667 107.621 93.6077 107.84 93.4893C108.059 93.3708 108.227 93.2249 108.346 93.0518C108.469 92.8786 108.533 92.7145 108.537 92.5596L109.057 93.3936C108.984 93.5804 108.883 93.7741 108.756 93.9746C108.633 94.1751 108.476 94.3643 108.284 94.542C108.093 94.7152 107.863 94.8587 107.594 94.9727C107.325 95.082 107.006 95.1367 106.637 95.1367C106.167 95.1367 105.741 95.0433 105.358 94.8564C104.98 94.665 104.679 94.403 104.456 94.0703C104.237 93.7331 104.128 93.3503 104.128 92.9219C104.128 92.5345 104.201 92.1904 104.347 91.8896C104.493 91.5889 104.707 91.3359 104.989 91.1309C105.276 90.9212 105.634 90.764 106.062 90.6592C106.491 90.5498 106.988 90.4951 107.553 90.4951H108.694ZM106.5 86.6055L107.84 84.5H109.979L108.1 86.6055H106.5ZM115.558 87.6035V88.998H111.251V87.6035H115.558ZM112.317 85.7783H114.286V92.7715C114.286 92.9857 114.313 93.1497 114.368 93.2637C114.427 93.3776 114.514 93.4574 114.628 93.5029C114.742 93.5439 114.885 93.5645 115.059 93.5645C115.182 93.5645 115.291 93.5599 115.387 93.5508C115.487 93.5371 115.571 93.5234 115.64 93.5098L115.646 94.959C115.478 95.0137 115.296 95.057 115.1 95.0889C114.904 95.1208 114.687 95.1367 114.45 95.1367C114.017 95.1367 113.639 95.0661 113.315 94.9248C112.996 94.779 112.75 94.5465 112.577 94.2275C112.404 93.9085 112.317 93.4893 112.317 92.9697V85.7783ZM118.606 89.1826V95H116.638V87.6035H118.483L118.606 89.1826ZM118.319 91.042H117.786C117.786 90.4951 117.857 90.0029 117.998 89.5654C118.139 89.1234 118.338 88.7474 118.593 88.4375C118.848 88.123 119.151 87.8838 119.502 87.7197C119.857 87.5511 120.254 87.4668 120.691 87.4668C121.038 87.4668 121.354 87.5169 121.642 87.6172C121.929 87.7174 122.175 87.877 122.38 88.0957C122.59 88.3145 122.749 88.6038 122.858 88.9639C122.972 89.3239 123.029 89.7637 123.029 90.2832V95H121.047V90.2764C121.047 89.9482 121.001 89.693 120.91 89.5107C120.819 89.3285 120.685 89.2008 120.507 89.1279C120.334 89.0505 120.119 89.0117 119.864 89.0117C119.6 89.0117 119.37 89.0641 119.174 89.1689C118.982 89.2738 118.823 89.4196 118.695 89.6064C118.572 89.7887 118.479 90.0029 118.415 90.249C118.351 90.4951 118.319 90.7594 118.319 91.042ZM126.652 87.6035V95H124.677V87.6035H126.652ZM124.738 86.708L126.078 84.6025H128.218L126.338 86.708H124.738ZM54.9229 113.387V104.5H56.9053V115H55.1211L54.9229 113.387ZM50.2471 111.391V111.247C50.2471 110.682 50.3109 110.169 50.4385 109.709C50.5661 109.244 50.7529 108.845 50.999 108.513C51.2451 108.18 51.5482 107.923 51.9082 107.74C52.2682 107.558 52.6784 107.467 53.1387 107.467C53.5716 107.467 53.9499 107.558 54.2734 107.74C54.6016 107.923 54.8796 108.182 55.1074 108.52C55.3398 108.852 55.5267 109.246 55.668 109.702C55.8092 110.153 55.9118 110.648 55.9756 111.186V111.5C55.9118 112.015 55.8092 112.493 55.668 112.936C55.5267 113.378 55.3398 113.765 55.1074 114.098C54.8796 114.426 54.6016 114.681 54.2734 114.863C53.9453 115.046 53.5625 115.137 53.125 115.137C52.6647 115.137 52.2546 115.043 51.8945 114.856C51.5391 114.67 51.2383 114.408 50.9922 114.07C50.7507 113.733 50.5661 113.337 50.4385 112.881C50.3109 112.425 50.2471 111.928 50.2471 111.391ZM52.2158 111.247V111.391C52.2158 111.696 52.2386 111.981 52.2842 112.245C52.3343 112.509 52.4141 112.744 52.5234 112.949C52.6374 113.15 52.7832 113.307 52.9609 113.421C53.1432 113.53 53.3643 113.585 53.624 113.585C53.9613 113.585 54.2393 113.51 54.458 113.359C54.6768 113.204 54.8431 112.993 54.957 112.724C55.0755 112.455 55.1439 112.145 55.1621 111.794V110.898C55.1484 110.611 55.1074 110.354 55.0391 110.126C54.9753 109.894 54.8796 109.695 54.752 109.531C54.6289 109.367 54.474 109.24 54.2871 109.148C54.1048 109.057 53.8883 109.012 53.6377 109.012C53.3825 109.012 53.1637 109.071 52.9814 109.189C52.7992 109.303 52.651 109.461 52.5371 109.661C52.4277 109.862 52.3457 110.099 52.291 110.372C52.2409 110.641 52.2158 110.933 52.2158 111.247ZM58.1289 111.377V111.233C58.1289 110.691 58.2064 110.192 58.3613 109.736C58.5163 109.276 58.7419 108.877 59.0381 108.54C59.3343 108.203 59.6989 107.941 60.1318 107.754C60.5648 107.562 61.0615 107.467 61.6221 107.467C62.1826 107.467 62.6816 107.562 63.1191 107.754C63.5566 107.941 63.9235 108.203 64.2197 108.54C64.5205 108.877 64.7484 109.276 64.9033 109.736C65.0583 110.192 65.1357 110.691 65.1357 111.233V111.377C65.1357 111.915 65.0583 112.414 64.9033 112.874C64.7484 113.33 64.5205 113.729 64.2197 114.07C63.9235 114.408 63.5589 114.67 63.126 114.856C62.693 115.043 62.1963 115.137 61.6357 115.137C61.0752 115.137 60.5762 115.043 60.1387 114.856C59.7057 114.67 59.3389 114.408 59.0381 114.07C58.7419 113.729 58.5163 113.33 58.3613 112.874C58.2064 112.414 58.1289 111.915 58.1289 111.377ZM60.0977 111.233V111.377C60.0977 111.687 60.125 111.976 60.1797 112.245C60.2344 112.514 60.321 112.751 60.4395 112.956C60.5625 113.157 60.722 113.314 60.918 113.428C61.1139 113.542 61.3532 113.599 61.6357 113.599C61.9092 113.599 62.1439 113.542 62.3398 113.428C62.5358 113.314 62.693 113.157 62.8115 112.956C62.93 112.751 63.0166 112.514 63.0713 112.245C63.1305 111.976 63.1602 111.687 63.1602 111.377V111.233C63.1602 110.933 63.1305 110.65 63.0713 110.386C63.0166 110.117 62.9277 109.88 62.8047 109.675C62.6862 109.465 62.529 109.301 62.333 109.183C62.137 109.064 61.9001 109.005 61.6221 109.005C61.3441 109.005 61.1071 109.064 60.9111 109.183C60.7197 109.301 60.5625 109.465 60.4395 109.675C60.321 109.88 60.2344 110.117 60.1797 110.386C60.125 110.65 60.0977 110.933 60.0977 111.233ZM68.3145 109.025V117.844H66.3457V107.604H68.1709L68.3145 109.025ZM72.9971 111.22V111.363C72.9971 111.901 72.9333 112.4 72.8057 112.86C72.6826 113.321 72.5003 113.722 72.2588 114.063C72.0173 114.401 71.7165 114.665 71.3564 114.856C71.001 115.043 70.5908 115.137 70.126 115.137C69.6748 115.137 69.2829 115.046 68.9502 114.863C68.6175 114.681 68.3372 114.426 68.1094 114.098C67.8861 113.765 67.7061 113.38 67.5693 112.942C67.4326 112.505 67.3278 112.035 67.2549 111.534V111.158C67.3278 110.62 67.4326 110.128 67.5693 109.682C67.7061 109.23 67.8861 108.841 68.1094 108.513C68.3372 108.18 68.6152 107.923 68.9434 107.74C69.276 107.558 69.6657 107.467 70.1123 107.467C70.5817 107.467 70.9941 107.556 71.3496 107.733C71.7096 107.911 72.0104 108.166 72.252 108.499C72.498 108.832 72.6826 109.228 72.8057 109.688C72.9333 110.149 72.9971 110.659 72.9971 111.22ZM71.0215 111.363V111.22C71.0215 110.905 70.9941 110.616 70.9395 110.352C70.8893 110.083 70.8073 109.848 70.6934 109.647C70.584 109.447 70.4382 109.292 70.2559 109.183C70.0781 109.069 69.8617 109.012 69.6064 109.012C69.3376 109.012 69.1074 109.055 68.916 109.142C68.7292 109.228 68.5765 109.354 68.458 109.518C68.3395 109.682 68.2507 109.878 68.1914 110.105C68.1322 110.333 68.0957 110.591 68.082 110.878V111.828C68.1048 112.165 68.1686 112.468 68.2734 112.737C68.3783 113.002 68.54 113.211 68.7588 113.366C68.9775 113.521 69.2646 113.599 69.6201 113.599C69.8799 113.599 70.0986 113.542 70.2764 113.428C70.4541 113.309 70.5977 113.147 70.707 112.942C70.821 112.737 70.9007 112.5 70.9463 112.231C70.9964 111.963 71.0215 111.673 71.0215 111.363ZM76.1895 109.217V115H74.2207V107.604H76.0732L76.1895 109.217ZM78.418 107.556L78.3838 109.381C78.2881 109.367 78.1719 109.356 78.0352 109.347C77.903 109.333 77.7822 109.326 77.6729 109.326C77.3949 109.326 77.1533 109.363 76.9482 109.436C76.7477 109.504 76.5791 109.606 76.4424 109.743C76.3102 109.88 76.21 110.046 76.1416 110.242C76.0778 110.438 76.0413 110.661 76.0322 110.912L75.6357 110.789C75.6357 110.311 75.6836 109.871 75.7793 109.47C75.875 109.064 76.014 108.711 76.1963 108.41C76.3831 108.109 76.611 107.877 76.8799 107.713C77.1488 107.549 77.4564 107.467 77.8027 107.467C77.9121 107.467 78.0238 107.476 78.1377 107.494C78.2516 107.508 78.3451 107.528 78.418 107.556ZM83.1074 113.332V110.037C83.1074 109.8 83.0687 109.597 82.9912 109.429C82.9137 109.256 82.793 109.121 82.6289 109.025C82.4694 108.93 82.262 108.882 82.0068 108.882C81.7881 108.882 81.599 108.921 81.4395 108.998C81.2799 109.071 81.1569 109.178 81.0703 109.319C80.9837 109.456 80.9404 109.618 80.9404 109.805H78.9717C78.9717 109.49 79.0446 109.192 79.1904 108.909C79.3363 108.627 79.5482 108.378 79.8262 108.164C80.1042 107.945 80.4346 107.774 80.8174 107.651C81.2048 107.528 81.6377 107.467 82.1162 107.467C82.6904 107.467 83.2008 107.562 83.6475 107.754C84.0941 107.945 84.445 108.232 84.7002 108.615C84.96 108.998 85.0898 109.477 85.0898 110.051V113.216C85.0898 113.621 85.1149 113.954 85.165 114.214C85.2152 114.469 85.2881 114.692 85.3838 114.884V115H83.3945C83.2988 114.799 83.2259 114.549 83.1758 114.248C83.1302 113.943 83.1074 113.637 83.1074 113.332ZM83.3672 110.495L83.3809 111.609H82.2803C82.0205 111.609 81.7949 111.639 81.6035 111.698C81.4121 111.757 81.2549 111.842 81.1318 111.951C81.0088 112.056 80.9176 112.179 80.8584 112.32C80.8037 112.462 80.7764 112.617 80.7764 112.785C80.7764 112.954 80.8151 113.106 80.8926 113.243C80.9701 113.375 81.0817 113.48 81.2275 113.558C81.3734 113.631 81.5443 113.667 81.7402 113.667C82.0365 113.667 82.2939 113.608 82.5127 113.489C82.7314 113.371 82.9001 113.225 83.0186 113.052C83.1416 112.879 83.2054 112.715 83.21 112.56L83.7295 113.394C83.6566 113.58 83.5563 113.774 83.4287 113.975C83.3057 114.175 83.1484 114.364 82.957 114.542C82.7656 114.715 82.5355 114.859 82.2666 114.973C81.9977 115.082 81.6787 115.137 81.3096 115.137C80.8402 115.137 80.4141 115.043 80.0312 114.856C79.653 114.665 79.3522 114.403 79.1289 114.07C78.9102 113.733 78.8008 113.35 78.8008 112.922C78.8008 112.535 78.8737 112.19 79.0195 111.89C79.1654 111.589 79.3796 111.336 79.6621 111.131C79.9492 110.921 80.307 110.764 80.7354 110.659C81.1637 110.55 81.6605 110.495 82.2256 110.495H83.3672ZM89.0137 113.564L90.6543 107.604H92.7119L90.2168 115H88.9727L89.0137 113.564ZM87.8857 107.604L89.5332 113.571L89.5674 115H88.3164L85.8213 107.604H87.8857ZM97.4766 113.332V110.037C97.4766 109.8 97.4378 109.597 97.3604 109.429C97.2829 109.256 97.1621 109.121 96.998 109.025C96.8385 108.93 96.6312 108.882 96.376 108.882C96.1572 108.882 95.9681 108.921 95.8086 108.998C95.6491 109.071 95.526 109.178 95.4395 109.319C95.3529 109.456 95.3096 109.618 95.3096 109.805H93.3408C93.3408 109.49 93.4137 109.192 93.5596 108.909C93.7054 108.627 93.9173 108.378 94.1953 108.164C94.4733 107.945 94.8037 107.774 95.1865 107.651C95.5739 107.528 96.0068 107.467 96.4854 107.467C97.0596 107.467 97.57 107.562 98.0166 107.754C98.4632 107.945 98.8141 108.232 99.0693 108.615C99.3291 108.998 99.459 109.477 99.459 110.051V113.216C99.459 113.621 99.484 113.954 99.5342 114.214C99.5843 114.469 99.6572 114.692 99.7529 114.884V115H97.7637C97.668 114.799 97.5951 114.549 97.5449 114.248C97.4993 113.943 97.4766 113.637 97.4766 113.332ZM97.7363 110.495L97.75 111.609H96.6494C96.3896 111.609 96.1641 111.639 95.9727 111.698C95.7812 111.757 95.624 111.842 95.501 111.951C95.3779 112.056 95.2868 112.179 95.2275 112.32C95.1729 112.462 95.1455 112.617 95.1455 112.785C95.1455 112.954 95.1842 113.106 95.2617 113.243C95.3392 113.375 95.4508 113.48 95.5967 113.558C95.7425 113.631 95.9134 113.667 96.1094 113.667C96.4056 113.667 96.6631 113.608 96.8818 113.489C97.1006 113.371 97.2692 113.225 97.3877 113.052C97.5107 112.879 97.5745 112.715 97.5791 112.56L98.0986 113.394C98.0257 113.58 97.9255 113.774 97.7979 113.975C97.6748 114.175 97.5176 114.364 97.3262 114.542C97.1348 114.715 96.9046 114.859 96.6357 114.973C96.3669 115.082 96.0479 115.137 95.6787 115.137C95.2093 115.137 94.7832 115.043 94.4004 114.856C94.0221 114.665 93.7214 114.403 93.498 114.07C93.2793 113.733 93.1699 113.35 93.1699 112.922C93.1699 112.535 93.2428 112.19 93.3887 111.89C93.5345 111.589 93.7487 111.336 94.0312 111.131C94.3184 110.921 94.6761 110.764 95.1045 110.659C95.5329 110.55 96.0296 110.495 96.5947 110.495H97.7363Z" fill="#050706"/>
</svg>
