<svg width="166" height="122" viewBox="0 0 166 122" fill="none" xmlns="http://www.w3.org/2000/svg">
<path d="M63.9915 0C66.1132 0 68.1481 0.842855 69.6484 2.34315C71.1486 3.84344 71.9915 5.87827 71.9915 8C71.9915 10.1217 71.1486 12.1566 69.6484 13.6569C68.1481 15.1571 66.1132 16 63.9915 16C61.8698 16 59.8349 15.1571 58.3346 13.6569C56.8344 12.1566 55.9915 10.1217 55.9915 8C55.9915 5.87827 56.8344 3.84344 58.3346 2.34315C59.8349 0.842855 61.8698 0 63.9915 0ZM54.9915 60V50H52.7665C51.404 50 50.4415 48.6625 50.8665 47.3625L54.754 35.6875L51.179 40.4125C49.8415 42.175 47.329 42.5125 45.579 41.1875C43.829 39.8625 43.479 37.35 44.804 35.5875L52.1665 25.875C54.9665 22.175 59.354 20 63.9915 20C68.629 20 73.0165 22.175 75.8165 25.875L83.179 35.5875C84.5165 37.35 84.1665 39.8625 82.404 41.1875C80.6415 42.5125 78.129 42.175 76.804 40.4125L73.229 35.6875L77.1165 47.3625C77.554 48.6625 76.579 50 75.2165 50H72.9915V60C72.9915 62.2125 71.204 64 68.9915 64C66.779 64 64.9915 62.2125 64.9915 60V50H62.9915V60C62.9915 62.2125 61.204 64 58.9915 64C56.779 64 54.9915 62.2125 54.9915 60ZM103.992 0C106.113 0 108.148 0.842855 109.648 2.34315C111.149 3.84344 111.992 5.87827 111.992 8C111.992 10.1217 111.149 12.1566 109.648 13.6569C108.148 15.1571 106.113 16 103.992 16C101.87 16 99.8349 15.1571 98.3347 13.6569C96.8344 12.1566 95.9915 10.1217 95.9915 8C95.9915 5.87827 96.8344 3.84344 98.3347 2.34315C99.8349 0.842855 101.87 0 103.992 0ZM102.992 48V60C102.992 62.2125 101.204 64 98.9915 64C96.779 64 94.9915 62.2125 94.9915 60V37.5625L93.379 40.125C92.204 42 89.729 42.55 87.8665 41.375C86.004 40.2 85.4415 37.725 86.6165 35.8625L93.079 25.6C95.279 22.1125 99.1165 19.9875 103.229 19.9875H104.767C108.892 19.9875 112.729 22.1 114.917 25.6L121.379 35.875C122.554 37.75 121.992 40.2125 120.129 41.3875C118.266 42.5625 115.792 42 114.617 40.1375L112.992 37.5625V60C112.992 62.2125 111.204 64 108.992 64C106.779 64 104.992 62.2125 104.992 60V48H102.992Z" fill="#7A9D8C"/>
<path d="M50.1807 95H48.0137L48.0273 93.4004H50.1807C50.7184 93.4004 51.1719 93.2796 51.541 93.0381C51.9102 92.792 52.1882 92.4342 52.375 91.9648C52.5664 91.4954 52.6621 90.9281 52.6621 90.2627V89.7773C52.6621 89.2669 52.6074 88.818 52.498 88.4307C52.3932 88.0433 52.236 87.7174 52.0264 87.4531C51.8167 87.1888 51.5592 86.9906 51.2539 86.8584C50.9486 86.7217 50.5977 86.6533 50.2012 86.6533H47.9727V85.0469H50.2012C50.8665 85.0469 51.4749 85.1608 52.0264 85.3887C52.5824 85.612 53.0632 85.9333 53.4688 86.3525C53.8743 86.7718 54.1865 87.2731 54.4053 87.8564C54.6286 88.4352 54.7402 89.0801 54.7402 89.791V90.2627C54.7402 90.9691 54.6286 91.6139 54.4053 92.1973C54.1865 92.7806 53.8743 93.2819 53.4688 93.7012C53.0677 94.1159 52.5869 94.4372 52.0264 94.665C51.4704 94.8883 50.8551 95 50.1807 95ZM49.1758 85.0469V95H47.125V85.0469H49.1758ZM59.5117 95.1367C58.9375 95.1367 58.4225 95.0456 57.9668 94.8633C57.5111 94.6764 57.1237 94.4189 56.8047 94.0908C56.4902 93.7627 56.2487 93.3822 56.0801 92.9492C55.9115 92.5117 55.8271 92.0469 55.8271 91.5547V91.2812C55.8271 90.7207 55.9069 90.208 56.0664 89.7432C56.2259 89.2783 56.4538 88.875 56.75 88.5332C57.0508 88.1914 57.4154 87.9294 57.8438 87.7471C58.2721 87.5602 58.7552 87.4668 59.293 87.4668C59.8171 87.4668 60.2819 87.5534 60.6875 87.7266C61.0931 87.8997 61.4326 88.1458 61.7061 88.4648C61.984 88.7839 62.1937 89.1667 62.335 89.6133C62.4762 90.0553 62.5469 90.5475 62.5469 91.0898V91.9102H56.668V90.5977H60.6123V90.4473C60.6123 90.1738 60.5622 89.93 60.4619 89.7158C60.3662 89.4971 60.2204 89.3239 60.0244 89.1963C59.8285 89.0687 59.5778 89.0049 59.2725 89.0049C59.0127 89.0049 58.7894 89.0618 58.6025 89.1758C58.4157 89.2897 58.263 89.4492 58.1445 89.6543C58.0306 89.8594 57.944 90.1009 57.8848 90.3789C57.8301 90.6523 57.8027 90.9531 57.8027 91.2812V91.5547C57.8027 91.8509 57.8438 92.1243 57.9258 92.375C58.0124 92.6257 58.1331 92.8421 58.2881 93.0244C58.4476 93.2067 58.639 93.348 58.8623 93.4482C59.0902 93.5485 59.3477 93.5986 59.6348 93.5986C59.9902 93.5986 60.3206 93.5303 60.626 93.3936C60.9359 93.2523 61.2025 93.0404 61.4258 92.7578L62.3828 93.7969C62.2279 94.0202 62.016 94.2344 61.7471 94.4395C61.4827 94.6445 61.1637 94.8132 60.79 94.9453C60.4163 95.0729 59.9902 95.1367 59.5117 95.1367ZM58.0488 84.4932L59.0605 85.4844L60.0723 84.4932H61.7539V84.5615L59.6895 86.4756H58.4385L56.3672 84.5547V84.4932H58.0488ZM67.291 87.6035V88.998H62.9844V87.6035H67.291ZM64.0508 85.7783H66.0195V92.7715C66.0195 92.9857 66.0469 93.1497 66.1016 93.2637C66.1608 93.3776 66.2474 93.4574 66.3613 93.5029C66.4753 93.5439 66.6188 93.5645 66.792 93.5645C66.915 93.5645 67.0244 93.5599 67.1201 93.5508C67.2204 93.5371 67.3047 93.5234 67.373 93.5098L67.3799 94.959C67.2113 95.0137 67.029 95.057 66.833 95.0889C66.637 95.1208 66.4206 95.1367 66.1836 95.1367C65.7507 95.1367 65.3724 95.0661 65.0488 94.9248C64.7298 94.779 64.4837 94.5465 64.3105 94.2275C64.1374 93.9085 64.0508 93.4893 64.0508 92.9697V85.7783ZM72.4111 92.9561C72.4111 92.8148 72.3701 92.6872 72.2881 92.5732C72.2061 92.4593 72.0534 92.3545 71.8301 92.2588C71.6113 92.1585 71.2946 92.0674 70.8799 91.9854C70.5062 91.9033 70.1576 91.8008 69.834 91.6777C69.515 91.5501 69.237 91.3975 69 91.2197C68.7676 91.042 68.5853 90.8324 68.4531 90.5908C68.321 90.3447 68.2549 90.0645 68.2549 89.75C68.2549 89.4401 68.321 89.1484 68.4531 88.875C68.5898 88.6016 68.7835 88.36 69.0342 88.1504C69.2894 87.9362 69.5993 87.7699 69.9639 87.6514C70.333 87.5283 70.7477 87.4668 71.208 87.4668C71.8506 87.4668 72.402 87.5693 72.8623 87.7744C73.3271 87.9795 73.6826 88.262 73.9287 88.6221C74.1794 88.9775 74.3047 89.3831 74.3047 89.8389H72.3359C72.3359 89.6475 72.2949 89.4766 72.2129 89.3262C72.1354 89.1712 72.0124 89.0505 71.8438 88.9639C71.6797 88.8727 71.4655 88.8271 71.2012 88.8271C70.9824 88.8271 70.7933 88.8659 70.6338 88.9434C70.4743 89.0163 70.3512 89.1165 70.2646 89.2441C70.1826 89.3672 70.1416 89.5039 70.1416 89.6543C70.1416 89.7682 70.1644 89.8708 70.21 89.9619C70.2601 90.0485 70.3398 90.1283 70.4492 90.2012C70.5586 90.2741 70.6999 90.3424 70.873 90.4062C71.0508 90.4655 71.2695 90.5202 71.5293 90.5703C72.0625 90.6797 72.5387 90.8232 72.958 91.001C73.3773 91.1742 73.71 91.4111 73.9561 91.7119C74.2021 92.0081 74.3252 92.3978 74.3252 92.8809C74.3252 93.209 74.2523 93.5098 74.1064 93.7832C73.9606 94.0566 73.751 94.2959 73.4775 94.501C73.2041 94.7015 72.876 94.8587 72.4932 94.9727C72.1149 95.082 71.6888 95.1367 71.2148 95.1367C70.5267 95.1367 69.9434 95.0137 69.4648 94.7676C68.9909 94.5215 68.6309 94.2093 68.3848 93.8311C68.1432 93.4482 68.0225 93.0563 68.0225 92.6553H69.8887C69.8978 92.9242 69.9661 93.1406 70.0938 93.3047C70.2259 93.4688 70.3923 93.5872 70.5928 93.6602C70.7979 93.7331 71.0189 93.7695 71.2559 93.7695C71.5111 93.7695 71.723 93.7354 71.8916 93.667C72.0602 93.5941 72.1878 93.4984 72.2744 93.3799C72.3656 93.2568 72.4111 93.1156 72.4111 92.9561ZM77.5723 84.4932V95H75.6035V84.4932H77.5723ZM82.2344 87.6035L79.0215 91.2676L77.2988 93.0107L76.5811 91.5889L77.9482 89.8525L79.8691 87.6035H82.2344ZM80.1904 95L78.0029 91.582L79.3633 90.3926L82.46 95H80.1904ZM85.2764 94.166L87.2383 87.6035H89.3506L86.377 96.1143C86.3132 96.3011 86.2266 96.5016 86.1172 96.7158C86.0124 96.93 85.8688 97.1328 85.6865 97.3242C85.5088 97.5202 85.2832 97.6797 85.0098 97.8027C84.7409 97.9258 84.4105 97.9873 84.0186 97.9873C83.8317 97.9873 83.679 97.9759 83.5605 97.9531C83.4421 97.9303 83.3008 97.8984 83.1367 97.8574V96.415C83.1868 96.415 83.2393 96.415 83.2939 96.415C83.3486 96.4196 83.401 96.4219 83.4512 96.4219C83.7109 96.4219 83.9229 96.3923 84.0869 96.333C84.251 96.2738 84.3831 96.1826 84.4834 96.0596C84.5837 95.9411 84.6634 95.7861 84.7227 95.5947L85.2764 94.166ZM84.4561 87.6035L86.0625 92.9629L86.3428 95.0479L85.0029 95.1914L82.3438 87.6035H84.4561ZM84.9414 86.6055L86.2812 84.5H88.4209L86.541 86.6055H84.9414ZM95.5918 84.4932V95H93.623V84.4932H95.5918ZM100.254 87.6035L97.041 91.2676L95.3184 93.0107L94.6006 91.5889L95.9678 89.8525L97.8887 87.6035H100.254ZM98.21 95L96.0225 91.582L97.3828 90.3926L100.479 95H98.21ZM103.18 84.5V95H101.204V84.5H103.18ZM109.182 93.2295V87.6035H111.15V95H109.298L109.182 93.2295ZM109.4 91.7119L109.981 91.6982C109.981 92.1904 109.924 92.6484 109.811 93.0723C109.697 93.4915 109.526 93.8561 109.298 94.166C109.07 94.4714 108.783 94.7106 108.437 94.8838C108.09 95.0524 107.682 95.1367 107.213 95.1367C106.853 95.1367 106.52 95.0866 106.215 94.9863C105.914 94.8815 105.654 94.7197 105.436 94.501C105.221 94.2777 105.053 93.9928 104.93 93.6465C104.811 93.2956 104.752 92.874 104.752 92.3818V87.6035H106.721V92.3955C106.721 92.6143 106.746 92.7988 106.796 92.9492C106.851 93.0996 106.926 93.2227 107.021 93.3184C107.117 93.4141 107.229 93.4824 107.356 93.5234C107.489 93.5645 107.634 93.585 107.794 93.585C108.2 93.585 108.519 93.5029 108.751 93.3389C108.988 93.1748 109.154 92.9515 109.25 92.6689C109.35 92.3818 109.4 92.0628 109.4 91.7119ZM112.654 84.5H114.623V93.3047L114.425 95H112.654V84.5ZM119.306 91.2266V91.3701C119.306 91.9215 119.246 92.4274 119.128 92.8877C119.014 93.348 118.836 93.7467 118.595 94.084C118.353 94.4167 118.052 94.6764 117.692 94.8633C117.337 95.0456 116.918 95.1367 116.435 95.1367C115.983 95.1367 115.591 95.0456 115.259 94.8633C114.931 94.681 114.655 94.4235 114.432 94.0908C114.208 93.7581 114.028 93.3685 113.892 92.9219C113.755 92.4753 113.652 91.9876 113.584 91.459V91.1445C113.652 90.6159 113.755 90.1283 113.892 89.6816C114.028 89.235 114.208 88.8454 114.432 88.5127C114.655 88.18 114.931 87.9225 115.259 87.7402C115.587 87.5579 115.974 87.4668 116.421 87.4668C116.909 87.4668 117.332 87.5602 117.692 87.7471C118.057 87.9294 118.358 88.1891 118.595 88.5264C118.836 88.859 119.014 89.2555 119.128 89.7158C119.246 90.1715 119.306 90.6751 119.306 91.2266ZM117.337 91.3701V91.2266C117.337 90.9258 117.314 90.6432 117.269 90.3789C117.228 90.11 117.155 89.8753 117.05 89.6748C116.945 89.4697 116.801 89.3079 116.619 89.1895C116.441 89.071 116.211 89.0117 115.929 89.0117C115.66 89.0117 115.432 89.0573 115.245 89.1484C115.058 89.2396 114.903 89.3672 114.78 89.5312C114.662 89.6953 114.573 89.8913 114.514 90.1191C114.454 90.3424 114.418 90.5885 114.404 90.8574V91.7529C114.418 92.113 114.477 92.432 114.582 92.71C114.691 92.9834 114.855 93.1999 115.074 93.3594C115.298 93.5143 115.587 93.5918 115.942 93.5918C116.22 93.5918 116.451 93.5371 116.633 93.4277C116.815 93.3184 116.956 93.1634 117.057 92.9629C117.161 92.7624 117.234 92.5277 117.275 92.2588C117.316 91.9854 117.337 91.6891 117.337 91.3701Z" fill="#050706"/>
</svg>
