<svg width="140" height="122" viewBox="0 0 140 122" fill="none" xmlns="http://www.w3.org/2000/svg">
<path d="M102 12C102 18.275 94.6125 27.6375 91.425 31.375C90.95 31.925 90.25 32.1375 89.6125 32H78C75.7875 32 74 33.7875 74 36C74 38.2125 75.7875 40 78 40H90C96.625 40 102 45.375 102 52C102 58.625 96.625 64 90 64H55.45C56.5375 62.7625 57.8625 61.175 59.2 59.4C59.9875 58.35 60.8 57.2 61.575 56H90C92.2125 56 94 54.2125 94 52C94 49.7875 92.2125 48 90 48H78C71.375 48 66 42.625 66 36C66 29.375 71.375 24 78 24H82.975C80.35 20.0625 78 15.5375 78 12C78 5.375 83.375 0 90 0C96.625 0 102 5.375 102 12ZM52.6375 61.1375C52.1625 61.675 51.7375 62.15 51.375 62.55L51.15 62.8L51.125 62.775C50.375 63.35 49.3 63.275 48.625 62.55C45.475 59.125 38 50.3125 38 44C38 37.375 43.375 32 50 32C56.625 32 62 37.375 62 44C62 47.75 59.3625 52.375 56.5625 56.2375C55.225 58.075 53.85 59.7375 52.7125 61.05L52.6375 61.1375ZM54 44C54 42.9391 53.5786 41.9217 52.8284 41.1716C52.0783 40.4214 51.0609 40 50 40C48.9391 40 47.9217 40.4214 47.1716 41.1716C46.4214 41.9217 46 42.9391 46 44C46 45.0609 46.4214 46.0783 47.1716 46.8284C47.9217 47.5786 48.9391 48 50 48C51.0609 48 52.0783 47.5786 52.8284 46.8284C53.5786 46.0783 54 45.0609 54 44ZM90 16C91.0609 16 92.0783 15.5786 92.8284 14.8284C93.5786 14.0783 94 13.0609 94 12C94 10.9391 93.5786 9.92172 92.8284 9.17157C92.0783 8.42143 91.0609 8 90 8C88.9391 8 87.9217 8.42143 87.1716 9.17157C86.4214 9.92172 86 10.9391 86 12C86 13.0609 86.4214 14.0783 87.1716 14.8284C87.9217 15.5786 88.9391 16 90 16Z" fill="#7A9D8C"/>
<path d="M17.7734 91.4521H15.2373V89.8525H17.7734C18.1654 89.8525 18.4844 89.7887 18.7305 89.6611C18.9766 89.529 19.1566 89.3467 19.2705 89.1143C19.3844 88.8818 19.4414 88.6198 19.4414 88.3281C19.4414 88.0319 19.3844 87.7562 19.2705 87.501C19.1566 87.2458 18.9766 87.0407 18.7305 86.8857C18.4844 86.7308 18.1654 86.6533 17.7734 86.6533H15.9482V95H13.8975V85.0469H17.7734C18.5527 85.0469 19.2204 85.1882 19.7764 85.4707C20.3369 85.7487 20.7653 86.1338 21.0615 86.626C21.3577 87.1182 21.5059 87.681 21.5059 88.3145C21.5059 88.957 21.3577 89.513 21.0615 89.9824C20.7653 90.4518 20.3369 90.8141 19.7764 91.0693C19.2204 91.3245 18.5527 91.4521 17.7734 91.4521ZM24.7666 89.2168V95H22.7979V87.6035H24.6504L24.7666 89.2168ZM26.9951 87.5557L26.9609 89.3809C26.8652 89.3672 26.749 89.3558 26.6123 89.3467C26.4801 89.333 26.3594 89.3262 26.25 89.3262C25.972 89.3262 25.7305 89.3626 25.5254 89.4355C25.3249 89.5039 25.1562 89.6064 25.0195 89.7432C24.8874 89.8799 24.7871 90.0462 24.7188 90.2422C24.6549 90.4382 24.6185 90.6615 24.6094 90.9121L24.2129 90.7891C24.2129 90.3105 24.2607 89.8708 24.3564 89.4697C24.4521 89.0641 24.5911 88.7109 24.7734 88.4102C24.9603 88.1094 25.1882 87.877 25.457 87.7129C25.7259 87.5488 26.0335 87.4668 26.3799 87.4668C26.4893 87.4668 26.6009 87.4759 26.7148 87.4941C26.8288 87.5078 26.9222 87.5283 26.9951 87.5557ZM23.8301 84.5L24.8418 85.4912L25.8535 84.5H27.5352V84.5684L25.4707 86.4824H24.2197L22.1484 84.5615V84.5H23.8301ZM30.0508 87.6035V95H28.0752V87.6035H30.0508ZM28.1367 86.708L29.4766 84.6025H31.6162L29.7363 86.708H28.1367ZM33.7217 89.1348V95H31.7461V87.6035H33.5986L33.7217 89.1348ZM33.4482 91.042H32.9014C32.9014 90.527 32.9629 90.0531 33.0859 89.6201C33.2135 89.1826 33.3981 88.8044 33.6396 88.4854C33.8857 88.1618 34.1888 87.9111 34.5488 87.7334C34.9089 87.5557 35.3258 87.4668 35.7998 87.4668C36.1279 87.4668 36.4287 87.5169 36.7021 87.6172C36.9756 87.7129 37.2103 87.8656 37.4062 88.0752C37.6068 88.2803 37.7617 88.5492 37.8711 88.8818C37.9805 89.21 38.0352 89.6042 38.0352 90.0645V95H36.0664V90.2832C36.0664 89.946 36.0208 89.6862 35.9297 89.5039C35.8385 89.3216 35.7087 89.194 35.54 89.1211C35.376 89.0482 35.1777 89.0117 34.9453 89.0117C34.6901 89.0117 34.4668 89.0641 34.2754 89.1689C34.0885 89.2738 33.9336 89.4196 33.8105 89.6064C33.6875 89.7887 33.5964 90.0029 33.5371 90.249C33.4779 90.4951 33.4482 90.7594 33.4482 91.042ZM37.8506 90.8164L37.1465 90.9053C37.1465 90.4222 37.2057 89.9733 37.3242 89.5586C37.4473 89.1439 37.6273 88.7793 37.8643 88.4648C38.1058 88.1504 38.4043 87.9066 38.7598 87.7334C39.1152 87.5557 39.5254 87.4668 39.9902 87.4668C40.3457 87.4668 40.6693 87.5192 40.9609 87.624C41.2526 87.7243 41.501 87.8861 41.7061 88.1094C41.9157 88.3281 42.0752 88.6152 42.1846 88.9707C42.2985 89.3262 42.3555 89.7614 42.3555 90.2764V95H40.3799V90.2764C40.3799 89.9346 40.3343 89.6748 40.2432 89.4971C40.1566 89.3148 40.029 89.1895 39.8604 89.1211C39.6963 89.0482 39.5003 89.0117 39.2725 89.0117C39.0355 89.0117 38.8281 89.0596 38.6504 89.1553C38.4727 89.2464 38.3245 89.374 38.2061 89.5381C38.0876 89.7021 37.9987 89.8936 37.9395 90.1123C37.8802 90.3265 37.8506 90.5612 37.8506 90.8164ZM47.2842 95.1367C46.71 95.1367 46.195 95.0456 45.7393 94.8633C45.2835 94.6764 44.8962 94.4189 44.5771 94.0908C44.2627 93.7627 44.0212 93.3822 43.8525 92.9492C43.6839 92.5117 43.5996 92.0469 43.5996 91.5547V91.2812C43.5996 90.7207 43.6794 90.208 43.8389 89.7432C43.9984 89.2783 44.2262 88.875 44.5225 88.5332C44.8232 88.1914 45.1878 87.9294 45.6162 87.7471C46.0446 87.5602 46.5277 87.4668 47.0654 87.4668C47.5895 87.4668 48.0544 87.5534 48.46 87.7266C48.8656 87.8997 49.2051 88.1458 49.4785 88.4648C49.7565 88.7839 49.9661 89.1667 50.1074 89.6133C50.2487 90.0553 50.3193 90.5475 50.3193 91.0898V91.9102H44.4404V90.5977H48.3848V90.4473C48.3848 90.1738 48.3346 89.93 48.2344 89.7158C48.1387 89.4971 47.9928 89.3239 47.7969 89.1963C47.6009 89.0687 47.3503 89.0049 47.0449 89.0049C46.7852 89.0049 46.5618 89.0618 46.375 89.1758C46.1882 89.2897 46.0355 89.4492 45.917 89.6543C45.8031 89.8594 45.7165 90.1009 45.6572 90.3789C45.6025 90.6523 45.5752 90.9531 45.5752 91.2812V91.5547C45.5752 91.8509 45.6162 92.1243 45.6982 92.375C45.7848 92.6257 45.9056 92.8421 46.0605 93.0244C46.2201 93.2067 46.4115 93.348 46.6348 93.4482C46.8626 93.5485 47.1201 93.5986 47.4072 93.5986C47.7627 93.5986 48.0931 93.5303 48.3984 93.3936C48.7083 93.2523 48.9749 93.0404 49.1982 92.7578L50.1553 93.7969C50.0003 94.0202 49.7884 94.2344 49.5195 94.4395C49.2552 94.6445 48.9362 94.8132 48.5625 94.9453C48.1888 95.0729 47.7627 95.1367 47.2842 95.1367ZM45.8965 86.5986L47.2363 84.4932H49.376L47.4961 86.5986H45.8965ZM56.8545 89.1826V95H54.8857V87.6035H56.7314L56.8545 89.1826ZM56.5674 91.042H56.0342C56.0342 90.4951 56.1048 90.0029 56.2461 89.5654C56.3874 89.1234 56.5856 88.7474 56.8408 88.4375C57.096 88.123 57.3991 87.8838 57.75 87.7197C58.1055 87.5511 58.502 87.4668 58.9395 87.4668C59.2858 87.4668 59.6025 87.5169 59.8896 87.6172C60.1768 87.7174 60.4229 87.877 60.6279 88.0957C60.8376 88.3145 60.9971 88.6038 61.1064 88.9639C61.2204 89.3239 61.2773 89.7637 61.2773 90.2832V95H59.2949V90.2764C59.2949 89.9482 59.2493 89.693 59.1582 89.5107C59.0671 89.3285 58.9326 89.2008 58.7549 89.1279C58.5817 89.0505 58.3675 89.0117 58.1123 89.0117C57.848 89.0117 57.6178 89.0641 57.4219 89.1689C57.2305 89.2738 57.071 89.4196 56.9434 89.6064C56.8203 89.7887 56.7269 90.0029 56.6631 90.249C56.5993 90.4951 56.5674 90.7594 56.5674 91.042ZM66.7666 93.332V90.0371C66.7666 89.8001 66.7279 89.5973 66.6504 89.4287C66.5729 89.2555 66.4521 89.1211 66.2881 89.0254C66.1286 88.9297 65.9212 88.8818 65.666 88.8818C65.4473 88.8818 65.2581 88.9206 65.0986 88.998C64.9391 89.071 64.8161 89.1781 64.7295 89.3193C64.6429 89.4561 64.5996 89.6178 64.5996 89.8047H62.6309C62.6309 89.4902 62.7038 89.1917 62.8496 88.9092C62.9954 88.6266 63.2074 88.3783 63.4854 88.1641C63.7633 87.9453 64.0938 87.7744 64.4766 87.6514C64.8639 87.5283 65.2969 87.4668 65.7754 87.4668C66.3496 87.4668 66.86 87.5625 67.3066 87.7539C67.7533 87.9453 68.1042 88.2324 68.3594 88.6152C68.6191 88.998 68.749 89.4766 68.749 90.0508V93.2158C68.749 93.6214 68.7741 93.9541 68.8242 94.2139C68.8743 94.4691 68.9473 94.6924 69.043 94.8838V95H67.0537C66.958 94.7995 66.8851 94.5488 66.835 94.248C66.7894 93.9427 66.7666 93.6374 66.7666 93.332ZM67.0264 90.4951L67.04 91.6094H65.9395C65.6797 91.6094 65.4541 91.639 65.2627 91.6982C65.0713 91.7575 64.9141 91.8418 64.791 91.9512C64.668 92.056 64.5768 92.179 64.5176 92.3203C64.4629 92.4616 64.4355 92.6165 64.4355 92.7852C64.4355 92.9538 64.4743 93.1064 64.5518 93.2432C64.6292 93.3753 64.7409 93.4801 64.8867 93.5576C65.0326 93.6305 65.2035 93.667 65.3994 93.667C65.6956 93.667 65.9531 93.6077 66.1719 93.4893C66.3906 93.3708 66.5592 93.2249 66.6777 93.0518C66.8008 92.8786 66.8646 92.7145 66.8691 92.5596L67.3887 93.3936C67.3158 93.5804 67.2155 93.7741 67.0879 93.9746C66.9648 94.1751 66.8076 94.3643 66.6162 94.542C66.4248 94.7152 66.1947 94.8587 65.9258 94.9727C65.6569 95.082 65.3379 95.1367 64.9688 95.1367C64.4993 95.1367 64.0732 95.0433 63.6904 94.8564C63.3122 94.665 63.0114 94.403 62.7881 94.0703C62.5693 93.7331 62.46 93.3503 62.46 92.9219C62.46 92.5345 62.5329 92.1904 62.6787 91.8896C62.8245 91.5889 63.0387 91.3359 63.3213 91.1309C63.6084 90.9212 63.9661 90.764 64.3945 90.6592C64.8229 90.5498 65.3197 90.4951 65.8848 90.4951H67.0264ZM72.2354 89.0254V97.8438H70.2666V87.6035H72.0918L72.2354 89.0254ZM76.918 91.2197V91.3633C76.918 91.901 76.8542 92.4001 76.7266 92.8604C76.6035 93.3206 76.4212 93.7217 76.1797 94.0635C75.9382 94.4007 75.6374 94.665 75.2773 94.8564C74.9219 95.0433 74.5117 95.1367 74.0469 95.1367C73.5957 95.1367 73.2038 95.0456 72.8711 94.8633C72.5384 94.681 72.2581 94.4258 72.0303 94.0977C71.807 93.765 71.627 93.3799 71.4902 92.9424C71.3535 92.5049 71.2487 92.0355 71.1758 91.5342V91.1582C71.2487 90.6204 71.3535 90.1283 71.4902 89.6816C71.627 89.2305 71.807 88.8408 72.0303 88.5127C72.2581 88.18 72.5361 87.9225 72.8643 87.7402C73.1969 87.5579 73.5866 87.4668 74.0332 87.4668C74.5026 87.4668 74.915 87.5557 75.2705 87.7334C75.6305 87.9111 75.9313 88.1663 76.1729 88.499C76.4189 88.8317 76.6035 89.2282 76.7266 89.6885C76.8542 90.1488 76.918 90.6592 76.918 91.2197ZM74.9424 91.3633V91.2197C74.9424 90.9053 74.915 90.6159 74.8604 90.3516C74.8102 90.0827 74.7282 89.848 74.6143 89.6475C74.5049 89.4469 74.359 89.292 74.1768 89.1826C73.999 89.0687 73.7826 89.0117 73.5273 89.0117C73.2585 89.0117 73.0283 89.055 72.8369 89.1416C72.6501 89.2282 72.4974 89.3535 72.3789 89.5176C72.2604 89.6816 72.1715 89.8776 72.1123 90.1055C72.0531 90.3333 72.0166 90.5908 72.0029 90.8779V91.8281C72.0257 92.1654 72.0895 92.4684 72.1943 92.7373C72.2992 93.0016 72.4609 93.2113 72.6797 93.3662C72.8984 93.5212 73.1855 93.5986 73.541 93.5986C73.8008 93.5986 74.0195 93.5417 74.1973 93.4277C74.375 93.3092 74.5186 93.1475 74.6279 92.9424C74.7419 92.7373 74.8216 92.5003 74.8672 92.2314C74.9173 91.9626 74.9424 91.6732 74.9424 91.3633ZM77.8271 91.377V91.2334C77.8271 90.6911 77.9046 90.1921 78.0596 89.7363C78.2145 89.276 78.4401 88.8773 78.7363 88.54C79.0326 88.2028 79.3971 87.9408 79.8301 87.7539C80.263 87.5625 80.7598 87.4668 81.3203 87.4668C81.8809 87.4668 82.3799 87.5625 82.8174 87.7539C83.2549 87.9408 83.6217 88.2028 83.918 88.54C84.2188 88.8773 84.4466 89.276 84.6016 89.7363C84.7565 90.1921 84.834 90.6911 84.834 91.2334V91.377C84.834 91.9147 84.7565 92.4137 84.6016 92.874C84.4466 93.3298 84.2188 93.7285 83.918 94.0703C83.6217 94.4076 83.2572 94.6696 82.8242 94.8564C82.3913 95.0433 81.8945 95.1367 81.334 95.1367C80.7734 95.1367 80.2744 95.0433 79.8369 94.8564C79.404 94.6696 79.0371 94.4076 78.7363 94.0703C78.4401 93.7285 78.2145 93.3298 78.0596 92.874C77.9046 92.4137 77.8271 91.9147 77.8271 91.377ZM79.7959 91.2334V91.377C79.7959 91.6868 79.8232 91.9762 79.8779 92.2451C79.9326 92.514 80.0192 92.751 80.1377 92.9561C80.2607 93.1566 80.4202 93.3138 80.6162 93.4277C80.8122 93.5417 81.0514 93.5986 81.334 93.5986C81.6074 93.5986 81.8421 93.5417 82.0381 93.4277C82.234 93.3138 82.3913 93.1566 82.5098 92.9561C82.6283 92.751 82.7148 92.514 82.7695 92.2451C82.8288 91.9762 82.8584 91.6868 82.8584 91.377V91.2334C82.8584 90.9326 82.8288 90.6501 82.7695 90.3857C82.7148 90.1169 82.626 89.8799 82.5029 89.6748C82.3844 89.4652 82.2272 89.3011 82.0312 89.1826C81.8353 89.0641 81.5983 89.0049 81.3203 89.0049C81.0423 89.0049 80.8053 89.0641 80.6094 89.1826C80.418 89.3011 80.2607 89.4652 80.1377 89.6748C80.0192 89.8799 79.9326 90.1169 79.8779 90.3857C79.8232 90.6501 79.7959 90.9326 79.7959 91.2334ZM86.1533 87.6035H88.1289V95.4443C88.1289 95.9912 88.0286 96.4538 87.8281 96.832C87.6276 97.2103 87.3382 97.4974 86.96 97.6934C86.5817 97.8893 86.1237 97.9873 85.5859 97.9873C85.4173 97.9873 85.2533 97.9782 85.0938 97.96C84.9297 97.9417 84.7611 97.9121 84.5879 97.8711L84.5947 96.3604C84.7041 96.3786 84.8112 96.3923 84.916 96.4014C85.0163 96.415 85.1188 96.4219 85.2236 96.4219C85.4287 96.4219 85.5996 96.3877 85.7363 96.3193C85.873 96.251 85.9756 96.1439 86.0439 95.998C86.1169 95.8568 86.1533 95.6722 86.1533 95.4443V87.6035ZM85.9961 85.6758C85.9961 85.3887 86.0964 85.1517 86.2969 84.9648C86.502 84.778 86.7708 84.6846 87.1035 84.6846C87.4408 84.6846 87.7096 84.778 87.9102 84.9648C88.1107 85.1517 88.2109 85.3887 88.2109 85.6758C88.2109 85.9629 88.1107 86.1999 87.9102 86.3867C87.7096 86.5736 87.4408 86.667 87.1035 86.667C86.7708 86.667 86.502 86.5736 86.2969 86.3867C86.0964 86.1999 85.9961 85.9629 85.9961 85.6758ZM93.0986 95.1367C92.5244 95.1367 92.0094 95.0456 91.5537 94.8633C91.098 94.6764 90.7106 94.4189 90.3916 94.0908C90.0771 93.7627 89.8356 93.3822 89.667 92.9492C89.4984 92.5117 89.4141 92.0469 89.4141 91.5547V91.2812C89.4141 90.7207 89.4938 90.208 89.6533 89.7432C89.8128 89.2783 90.0407 88.875 90.3369 88.5332C90.6377 88.1914 91.0023 87.9294 91.4307 87.7471C91.859 87.5602 92.3421 87.4668 92.8799 87.4668C93.404 87.4668 93.8688 87.5534 94.2744 87.7266C94.68 87.8997 95.0195 88.1458 95.293 88.4648C95.571 88.7839 95.7806 89.1667 95.9219 89.6133C96.0632 90.0553 96.1338 90.5475 96.1338 91.0898V91.9102H90.2549V90.5977H94.1992V90.4473C94.1992 90.1738 94.1491 89.93 94.0488 89.7158C93.9531 89.4971 93.8073 89.3239 93.6113 89.1963C93.4154 89.0687 93.1647 89.0049 92.8594 89.0049C92.5996 89.0049 92.3763 89.0618 92.1895 89.1758C92.0026 89.2897 91.8499 89.4492 91.7314 89.6543C91.6175 89.8594 91.5309 90.1009 91.4717 90.3789C91.417 90.6523 91.3896 90.9531 91.3896 91.2812V91.5547C91.3896 91.8509 91.4307 92.1243 91.5127 92.375C91.5993 92.6257 91.7201 92.8421 91.875 93.0244C92.0345 93.2067 92.2259 93.348 92.4492 93.4482C92.6771 93.5485 92.9346 93.5986 93.2217 93.5986C93.5771 93.5986 93.9076 93.5303 94.2129 93.3936C94.5228 93.2523 94.7894 93.0404 95.0127 92.7578L95.9697 93.7969C95.8148 94.0202 95.6029 94.2344 95.334 94.4395C95.0697 94.6445 94.7507 94.8132 94.377 94.9453C94.0033 95.0729 93.5771 95.1367 93.0986 95.1367ZM99.1826 89.1826V95H97.2139V87.6035H99.0596L99.1826 89.1826ZM98.8955 91.042H98.3623C98.3623 90.4951 98.4329 90.0029 98.5742 89.5654C98.7155 89.1234 98.9137 88.7474 99.1689 88.4375C99.4242 88.123 99.7272 87.8838 100.078 87.7197C100.434 87.5511 100.83 87.4668 101.268 87.4668C101.614 87.4668 101.931 87.5169 102.218 87.6172C102.505 87.7174 102.751 87.877 102.956 88.0957C103.166 88.3145 103.325 88.6038 103.435 88.9639C103.549 89.3239 103.605 89.7637 103.605 90.2832V95H101.623V90.2764C101.623 89.9482 101.577 89.693 101.486 89.5107C101.395 89.3285 101.261 89.2008 101.083 89.1279C100.91 89.0505 100.696 89.0117 100.44 89.0117C100.176 89.0117 99.946 89.0641 99.75 89.1689C99.5586 89.2738 99.3991 89.4196 99.2715 89.6064C99.1484 89.7887 99.055 90.0029 98.9912 90.249C98.9274 90.4951 98.8955 90.7594 98.8955 91.042ZM107.229 87.6035V95H105.253V87.6035H107.229ZM105.314 86.708L106.654 84.6025H108.794L106.914 86.708H105.314ZM114.345 89.1826V95H112.376V87.6035H114.222L114.345 89.1826ZM114.058 91.042H113.524C113.524 90.4951 113.595 90.0029 113.736 89.5654C113.878 89.1234 114.076 88.7474 114.331 88.4375C114.586 88.123 114.889 87.8838 115.24 87.7197C115.596 87.5511 115.992 87.4668 116.43 87.4668C116.776 87.4668 117.093 87.5169 117.38 87.6172C117.667 87.7174 117.913 87.877 118.118 88.0957C118.328 88.3145 118.487 88.6038 118.597 88.9639C118.711 89.3239 118.768 89.7637 118.768 90.2832V95H116.785V90.2764C116.785 89.9482 116.74 89.693 116.648 89.5107C116.557 89.3285 116.423 89.2008 116.245 89.1279C116.072 89.0505 115.858 89.0117 115.603 89.0117C115.338 89.0117 115.108 89.0641 114.912 89.1689C114.721 89.2738 114.561 89.4196 114.434 89.6064C114.311 89.7887 114.217 90.0029 114.153 90.249C114.09 90.4951 114.058 90.7594 114.058 91.042ZM124.257 93.332V90.0371C124.257 89.8001 124.218 89.5973 124.141 89.4287C124.063 89.2555 123.942 89.1211 123.778 89.0254C123.619 88.9297 123.411 88.8818 123.156 88.8818C122.938 88.8818 122.748 88.9206 122.589 88.998C122.429 89.071 122.306 89.1781 122.22 89.3193C122.133 89.4561 122.09 89.6178 122.09 89.8047H120.121C120.121 89.4902 120.194 89.1917 120.34 88.9092C120.486 88.6266 120.698 88.3783 120.976 88.1641C121.254 87.9453 121.584 87.7744 121.967 87.6514C122.354 87.5283 122.787 87.4668 123.266 87.4668C123.84 87.4668 124.35 87.5625 124.797 87.7539C125.243 87.9453 125.594 88.2324 125.85 88.6152C126.109 88.998 126.239 89.4766 126.239 90.0508V93.2158C126.239 93.6214 126.264 93.9541 126.314 94.2139C126.365 94.4691 126.438 94.6924 126.533 94.8838V95H124.544C124.448 94.7995 124.375 94.5488 124.325 94.248C124.28 93.9427 124.257 93.6374 124.257 93.332ZM124.517 90.4951L124.53 91.6094H123.43C123.17 91.6094 122.944 91.639 122.753 91.6982C122.562 91.7575 122.404 91.8418 122.281 91.9512C122.158 92.056 122.067 92.179 122.008 92.3203C121.953 92.4616 121.926 92.6165 121.926 92.7852C121.926 92.9538 121.965 93.1064 122.042 93.2432C122.119 93.3753 122.231 93.4801 122.377 93.5576C122.523 93.6305 122.694 93.667 122.89 93.667C123.186 93.667 123.443 93.6077 123.662 93.4893C123.881 93.3708 124.049 93.2249 124.168 93.0518C124.291 92.8786 124.355 92.7145 124.359 92.5596L124.879 93.3936C124.806 93.5804 124.706 93.7741 124.578 93.9746C124.455 94.1751 124.298 94.3643 124.106 94.542C123.915 94.7152 123.685 94.8587 123.416 94.9727C123.147 95.082 122.828 95.1367 122.459 95.1367C121.99 95.1367 121.563 95.0433 121.181 94.8564C120.802 94.665 120.502 94.403 120.278 94.0703C120.06 93.7331 119.95 93.3503 119.95 92.9219C119.95 92.5345 120.023 92.1904 120.169 91.8896C120.315 91.5889 120.529 91.3359 120.812 91.1309C121.099 90.9212 121.456 90.764 121.885 90.6592C122.313 90.5498 122.81 90.4951 123.375 90.4951H124.517ZM36.1279 113.599C36.3695 113.599 36.5837 113.553 36.7705 113.462C36.9574 113.366 37.1032 113.234 37.208 113.065C37.3174 112.892 37.3743 112.689 37.3789 112.457H39.2314C39.2269 112.977 39.0879 113.439 38.8145 113.845C38.541 114.246 38.1742 114.562 37.7139 114.795C37.2536 115.023 36.7386 115.137 36.1689 115.137C35.5947 115.137 35.0934 115.041 34.665 114.85C34.2412 114.658 33.888 114.394 33.6055 114.057C33.3229 113.715 33.111 113.318 32.9697 112.867C32.8285 112.411 32.7578 111.924 32.7578 111.404V111.206C32.7578 110.682 32.8285 110.194 32.9697 109.743C33.111 109.287 33.3229 108.891 33.6055 108.554C33.888 108.212 34.2412 107.945 34.665 107.754C35.0889 107.562 35.5856 107.467 36.1553 107.467C36.7614 107.467 37.2923 107.583 37.748 107.815C38.2083 108.048 38.5684 108.381 38.8281 108.813C39.0924 109.242 39.2269 109.75 39.2314 110.338H37.3789C37.3743 110.092 37.3219 109.868 37.2217 109.668C37.126 109.467 36.9847 109.308 36.7979 109.189C36.6156 109.066 36.39 109.005 36.1211 109.005C35.834 109.005 35.5993 109.066 35.417 109.189C35.2347 109.308 35.0934 109.472 34.9932 109.682C34.8929 109.887 34.8223 110.121 34.7812 110.386C34.7448 110.646 34.7266 110.919 34.7266 111.206V111.404C34.7266 111.691 34.7448 111.967 34.7812 112.231C34.8177 112.496 34.8861 112.73 34.9863 112.936C35.0911 113.141 35.2347 113.302 35.417 113.421C35.5993 113.539 35.8363 113.599 36.1279 113.599ZM42.5674 114.166L44.5293 107.604H46.6416L43.668 116.114C43.6042 116.301 43.5176 116.502 43.4082 116.716C43.3034 116.93 43.1598 117.133 42.9775 117.324C42.7998 117.52 42.5742 117.68 42.3008 117.803C42.0319 117.926 41.7015 117.987 41.3096 117.987C41.1227 117.987 40.9701 117.976 40.8516 117.953C40.7331 117.93 40.5918 117.898 40.4277 117.857V116.415C40.4779 116.415 40.5303 116.415 40.585 116.415C40.6396 116.42 40.6921 116.422 40.7422 116.422C41.002 116.422 41.2139 116.392 41.3779 116.333C41.542 116.274 41.6742 116.183 41.7744 116.06C41.8747 115.941 41.9544 115.786 42.0137 115.595L42.5674 114.166ZM41.7471 107.604L43.3535 112.963L43.6338 115.048L42.2939 115.191L39.6348 107.604H41.7471ZM49.3965 104.493V115H47.4277V104.493H49.3965ZM54.0586 107.604L50.8457 111.268L49.123 113.011L48.4053 111.589L49.7725 109.853L51.6934 107.604H54.0586ZM52.0146 115L49.8271 111.582L51.1875 110.393L54.2842 115H52.0146ZM56.9844 104.5V115H55.0088V104.5H56.9844ZM58.2969 111.377V111.233C58.2969 110.691 58.3743 110.192 58.5293 109.736C58.6842 109.276 58.9098 108.877 59.2061 108.54C59.5023 108.203 59.8669 107.941 60.2998 107.754C60.7327 107.562 61.2295 107.467 61.79 107.467C62.3506 107.467 62.8496 107.562 63.2871 107.754C63.7246 107.941 64.0915 108.203 64.3877 108.54C64.6885 108.877 64.9163 109.276 65.0713 109.736C65.2262 110.192 65.3037 110.691 65.3037 111.233V111.377C65.3037 111.915 65.2262 112.414 65.0713 112.874C64.9163 113.33 64.6885 113.729 64.3877 114.07C64.0915 114.408 63.7269 114.67 63.2939 114.856C62.861 115.043 62.3643 115.137 61.8037 115.137C61.2432 115.137 60.7441 115.043 60.3066 114.856C59.8737 114.67 59.5068 114.408 59.2061 114.07C58.9098 113.729 58.6842 113.33 58.5293 112.874C58.3743 112.414 58.2969 111.915 58.2969 111.377ZM60.2656 111.233V111.377C60.2656 111.687 60.293 111.976 60.3477 112.245C60.4023 112.514 60.4889 112.751 60.6074 112.956C60.7305 113.157 60.89 113.314 61.0859 113.428C61.2819 113.542 61.5212 113.599 61.8037 113.599C62.0771 113.599 62.3118 113.542 62.5078 113.428C62.7038 113.314 62.861 113.157 62.9795 112.956C63.098 112.751 63.1846 112.514 63.2393 112.245C63.2985 111.976 63.3281 111.687 63.3281 111.377V111.233C63.3281 110.933 63.2985 110.65 63.2393 110.386C63.1846 110.117 63.0957 109.88 62.9727 109.675C62.8542 109.465 62.6969 109.301 62.501 109.183C62.305 109.064 62.068 109.005 61.79 109.005C61.512 109.005 61.2751 109.064 61.0791 109.183C60.8877 109.301 60.7305 109.465 60.6074 109.675C60.4889 109.88 60.4023 110.117 60.3477 110.386C60.293 110.65 60.2656 110.933 60.2656 111.233ZM70.5127 112.956C70.5127 112.815 70.4717 112.687 70.3896 112.573C70.3076 112.459 70.1549 112.354 69.9316 112.259C69.7129 112.159 69.3962 112.067 68.9814 111.985C68.6077 111.903 68.2591 111.801 67.9355 111.678C67.6165 111.55 67.3385 111.397 67.1016 111.22C66.8691 111.042 66.6868 110.832 66.5547 110.591C66.4225 110.345 66.3564 110.064 66.3564 109.75C66.3564 109.44 66.4225 109.148 66.5547 108.875C66.6914 108.602 66.8851 108.36 67.1357 108.15C67.391 107.936 67.7008 107.77 68.0654 107.651C68.4346 107.528 68.8493 107.467 69.3096 107.467C69.9521 107.467 70.5036 107.569 70.9639 107.774C71.4287 107.979 71.7842 108.262 72.0303 108.622C72.2809 108.978 72.4062 109.383 72.4062 109.839H70.4375C70.4375 109.647 70.3965 109.477 70.3145 109.326C70.237 109.171 70.1139 109.05 69.9453 108.964C69.7812 108.873 69.5671 108.827 69.3027 108.827C69.084 108.827 68.8949 108.866 68.7354 108.943C68.5758 109.016 68.4528 109.117 68.3662 109.244C68.2842 109.367 68.2432 109.504 68.2432 109.654C68.2432 109.768 68.266 109.871 68.3115 109.962C68.3617 110.049 68.4414 110.128 68.5508 110.201C68.6602 110.274 68.8014 110.342 68.9746 110.406C69.1523 110.465 69.3711 110.52 69.6309 110.57C70.1641 110.68 70.6403 110.823 71.0596 111.001C71.4788 111.174 71.8115 111.411 72.0576 111.712C72.3037 112.008 72.4268 112.398 72.4268 112.881C72.4268 113.209 72.3538 113.51 72.208 113.783C72.0622 114.057 71.8525 114.296 71.5791 114.501C71.3057 114.701 70.9775 114.859 70.5947 114.973C70.2165 115.082 69.7904 115.137 69.3164 115.137C68.6283 115.137 68.0449 115.014 67.5664 114.768C67.0924 114.521 66.7324 114.209 66.4863 113.831C66.2448 113.448 66.124 113.056 66.124 112.655H67.9902C67.9993 112.924 68.0677 113.141 68.1953 113.305C68.3275 113.469 68.4938 113.587 68.6943 113.66C68.8994 113.733 69.1204 113.77 69.3574 113.77C69.6126 113.77 69.8245 113.735 69.9932 113.667C70.1618 113.594 70.2894 113.498 70.376 113.38C70.4671 113.257 70.5127 113.116 70.5127 112.956ZM77.3281 107.604V108.998H73.0215V107.604H77.3281ZM74.0879 105.778H76.0566V112.771C76.0566 112.986 76.084 113.15 76.1387 113.264C76.1979 113.378 76.2845 113.457 76.3984 113.503C76.5124 113.544 76.6559 113.564 76.8291 113.564C76.9521 113.564 77.0615 113.56 77.1572 113.551C77.2575 113.537 77.3418 113.523 77.4102 113.51L77.417 114.959C77.2484 115.014 77.0661 115.057 76.8701 115.089C76.6742 115.121 76.4577 115.137 76.2207 115.137C75.7878 115.137 75.4095 115.066 75.0859 114.925C74.7669 114.779 74.5208 114.547 74.3477 114.228C74.1745 113.909 74.0879 113.489 74.0879 112.97V105.778ZM81.8535 115.137C81.2793 115.137 80.7643 115.046 80.3086 114.863C79.8529 114.676 79.4655 114.419 79.1465 114.091C78.832 113.763 78.5905 113.382 78.4219 112.949C78.2533 112.512 78.1689 112.047 78.1689 111.555V111.281C78.1689 110.721 78.2487 110.208 78.4082 109.743C78.5677 109.278 78.7956 108.875 79.0918 108.533C79.3926 108.191 79.7572 107.929 80.1855 107.747C80.6139 107.56 81.097 107.467 81.6348 107.467C82.1589 107.467 82.6237 107.553 83.0293 107.727C83.4349 107.9 83.7744 108.146 84.0479 108.465C84.3258 108.784 84.5355 109.167 84.6768 109.613C84.818 110.055 84.8887 110.548 84.8887 111.09V111.91H79.0098V110.598H82.9541V110.447C82.9541 110.174 82.904 109.93 82.8037 109.716C82.708 109.497 82.5622 109.324 82.3662 109.196C82.1702 109.069 81.9196 109.005 81.6143 109.005C81.3545 109.005 81.1312 109.062 80.9443 109.176C80.7575 109.29 80.6048 109.449 80.4863 109.654C80.3724 109.859 80.2858 110.101 80.2266 110.379C80.1719 110.652 80.1445 110.953 80.1445 111.281V111.555C80.1445 111.851 80.1855 112.124 80.2676 112.375C80.3542 112.626 80.4749 112.842 80.6299 113.024C80.7894 113.207 80.9808 113.348 81.2041 113.448C81.432 113.549 81.6895 113.599 81.9766 113.599C82.332 113.599 82.6624 113.53 82.9678 113.394C83.2777 113.252 83.5443 113.04 83.7676 112.758L84.7246 113.797C84.5697 114.02 84.3577 114.234 84.0889 114.439C83.8245 114.645 83.5055 114.813 83.1318 114.945C82.7581 115.073 82.332 115.137 81.8535 115.137ZM91.8955 113.462V115H86.2764V113.462H91.8955ZM91.7861 108.738L87.0693 115H85.75V113.831L90.4463 107.604H91.7861V108.738ZM91.0889 107.604V109.148H85.8594V107.604H91.0889ZM95.1016 104.493V115H93.1328V104.493H95.1016ZM99.7637 107.604L96.5508 111.268L94.8281 113.011L94.1104 111.589L95.4775 109.853L97.3984 107.604H99.7637ZM97.7197 115L95.5322 111.582L96.8926 110.393L99.9893 115H97.7197ZM104.986 113.229V107.604H106.955V115H105.103L104.986 113.229ZM105.205 111.712L105.786 111.698C105.786 112.19 105.729 112.648 105.615 113.072C105.501 113.492 105.33 113.856 105.103 114.166C104.875 114.471 104.588 114.711 104.241 114.884C103.895 115.052 103.487 115.137 103.018 115.137C102.658 115.137 102.325 115.087 102.02 114.986C101.719 114.882 101.459 114.72 101.24 114.501C101.026 114.278 100.857 113.993 100.734 113.646C100.616 113.296 100.557 112.874 100.557 112.382V107.604H102.525V112.396C102.525 112.614 102.55 112.799 102.601 112.949C102.655 113.1 102.73 113.223 102.826 113.318C102.922 113.414 103.034 113.482 103.161 113.523C103.293 113.564 103.439 113.585 103.599 113.585C104.004 113.585 104.323 113.503 104.556 113.339C104.793 113.175 104.959 112.951 105.055 112.669C105.155 112.382 105.205 112.063 105.205 111.712Z" fill="#050706"/>
</svg>
